<?xml version="1.0" standalone="no"?>
<!DOCTYPE svg PUBLIC "-//W3C//DTD SVG 1.1//EN" "http://www.w3.org/Graphics/SVG/1.1/DTD/svg11.dtd" >
<svg xmlns="http://www.w3.org/2000/svg" xmlns:xlink="http://www.w3.org/1999/xlink" version="1.1">
<metadata>
Created by FontForge 20141024 at Fri Nov  6 11:21:29 2015
 By Jimmy Warting
Copyright \(c\) 2015 by Estudio Calderon. All rights reserved.
</metadata>
<defs>
<font id="HollieScriptPro" horiz-adv-x="349" >
  <font-face 
    font-family="Hollie Script Pro"
    font-weight="400"
    font-stretch="normal"
    units-per-em="1000"
    panose-1="0 0 0 0 0 0 0 0 0 0"
    ascent="628"
    descent="-372"
    x-height="393"
    cap-height="706"
    bbox="-961 -562 2303 1177"
    underline-thickness="50"
    underline-position="-50"
    stemh="32"
    stemv="84"
    unicode-range="U+000D-FB04"
  />
<missing-glyph horiz-adv-x="775" 
d="M281 88c-19 -17 -29 -39 -29 -66c0 -33 15 -50 44 -50c24 0 57 33 57 78c0 24 -24 37 -72 38zM359 125c-13 11 -20 24 -20 41c0 54 84 119 152 189c46 47 82 111 82 172c0 75 -44 124 -109 124c-68 0 -134 -30 -170 -67c-37 -37 -60 -78 -60 -103c0 -17 8 -26 24 -26
c9 29 30 55 63 79s65 36 94 36c39 0 59 -22 59 -67c0 -20 -10 -45 -29 -76c-20 -31 -42 -59 -65 -85c-24 -27 -46 -55 -65 -85c-20 -30 -30 -55 -30 -74c0 -40 24 -64 52 -64c9 0 16 2 22 6zM607 -54c-9 -4 -22 -9 -39 -15s-48 -14 -93 -24s-88 -15 -127 -15
c-147 0 -301 66 -301 344c0 129 33 292 99 490l17 6c42 15 140 48 242 48c80 0 144 -19 204 -67c60 -49 96 -145 96 -277c0 -128 -33 -291 -98 -490z" />
    <glyph glyph-name="i_j" unicode="ij" horiz-adv-x="367" 
d="M317 -160h-2c-5 21 -25 38 -61 50c-35 -193 -83 -311 -171 -311c-45 0 -119 35 -173 103c-27 35 -40 71 -40 108s15 69 45 94s65 43 107 53c41 10 85 15 133 15c13 0 22 0 29 -1c13 61 25 134 36 219c-39 -124 -96 -192 -145 -192c-44 0 -76 54 -76 149
c0 59 13 135 29 208c7 37 12 59 13 66c60 -9 77 -27 77 -64c0 -9 -6 -37 -18 -83c-12 -47 -18 -88 -18 -124c0 -41 9 -61 27 -61c27 0 60 43 94 148c17 53 30 114 40 185l2 18c67 -1 87 -28 87 -71c0 -23 -6 -46 -17 -67c-8 -36 -18 -97 -29 -182c-12 -86 -20 -139 -23 -158
c59 -13 88 -33 88 -60c0 -29 -28 -42 -34 -42zM173 -95h-27c-79 0 -137 -15 -176 -44c-38 -29 -57 -63 -57 -102c0 -55 40 -102 93 -102c69 0 124 83 167 248zM378 566c-15 -69 -40 -109 -47 -109h-5c-20 0 -65 5 -65 96c0 41 9 64 28 67c2 1 5 1 10 1c37 0 79 -27 79 -55z
M173 546c-15 -69 -41 -109 -48 -109h-5c-19 0 -64 6 -64 94c0 43 9 66 28 69c2 1 5 1 10 1c18 0 36 -6 53 -17c17 -12 26 -25 26 -38z" />
    <glyph glyph-name="l_j" unicode="lj" horiz-adv-x="446" 
d="M290 98c-51 -99 -116 -160 -175 -160c-65 0 -113 68 -113 201c0 76 10 159 29 248s45 165 77 229c31 63 63 95 94 95c43 0 64 -42 64 -125c0 -51 -8 -109 -23 -174c-16 -65 -35 -121 -57 -167c-23 -47 -43 -70 -61 -70c-6 0 -11 2 -15 7c27 39 53 108 76 205
s34 173 34 226c0 25 -3 38 -10 38c-10 0 -24 -28 -42 -85c-19 -57 -35 -127 -50 -208s-23 -151 -23 -209c0 -88 18 -132 55 -132c23 0 51 18 82 55c31 36 54 80 71 131c7 67 14 139 21 217c58 1 87 -23 87 -71c0 -23 -6 -46 -17 -67c-7 -39 -15 -89 -23 -148
c-9 -60 -16 -110 -21 -150c-5 -39 -13 -82 -23 -128c-21 -92 -44 -142 -88 -179c-22 -18 -48 -27 -78 -27c-43 0 -81 19 -114 56c-34 38 -51 77 -51 116c0 17 6 31 11 34l4 3c23 -83 77 -114 122 -114c76 0 122 105 157 353zM410 457h-6c-18 0 -63 5 -63 95c0 42 9 65 27 68
c2 1 5 1 10 1c17 0 34 -5 53 -16c18 -11 27 -22 27 -35v-2l-1 -2c-15 -69 -40 -109 -47 -109z" />
    <glyph glyph-name="n_j" unicode="nj" horiz-adv-x="529" 
d="M479 -160h-2c-5 21 -25 38 -61 50c-35 -193 -83 -311 -171 -311c-45 0 -118 35 -172 103c-27 35 -41 71 -41 108s15 69 45 94s66 43 107 53s85 15 133 15c13 0 22 0 29 -1c13 60 26 136 37 229c-37 -129 -88 -196 -137 -196c-55 0 -83 46 -83 137c0 75 15 148 46 217
l-2 2c-19 -8 -49 -58 -92 -150s-64 -161 -65 -207c-6 -3 -13 -5 -21 -5c-28 0 -50 24 -50 68c0 23 11 86 32 201c11 57 18 95 21 113c43 -8 68 -24 68 -64c0 -4 -8 -40 -23 -108h4c23 56 49 105 79 147c29 41 52 62 67 62c11 0 23 -7 38 -22s22 -27 22 -38
c-7 -23 -15 -55 -24 -98s-14 -80 -14 -111c0 -39 9 -58 26 -58c25 0 60 50 93 154c16 51 28 109 37 174l2 22c67 -1 87 -28 87 -71c0 -23 -6 -46 -17 -67c-8 -36 -18 -97 -29 -182c-12 -86 -20 -139 -23 -158c59 -13 88 -33 88 -60c0 -29 -28 -42 -34 -42zM335 -95h-27
c-79 0 -137 -15 -175 -44c-39 -29 -58 -63 -58 -102c0 -55 40 -102 93 -102c69 0 124 83 167 248zM540 571v-5c-15 -69 -40 -109 -47 -109h-5c-20 0 -65 5 -65 96c0 41 9 64 28 67c2 1 5 1 10 1c17 0 34 -5 52 -15c18 -11 27 -22 27 -35z" />
    <glyph glyph-name="ts" unicode="t&#x2019;s" horiz-adv-x="549" 
d="M450 370h-2c-20 0 -39 -13 -58 -40s-29 -57 -29 -89c0 -81 135 -84 135 -160c0 -35 -16 -65 -49 -90s-66 -38 -100 -38c-40 0 -68 21 -68 64c0 16 5 29 14 40c8 -13 28 -19 59 -19c26 0 50 5 73 14c22 9 33 20 33 34c0 15 -39 31 -91 56c-26 13 -46 26 -61 40
c-15 -65 -43 -118 -83 -157s-81 -59 -122 -59c-65 0 -110 53 -110 153c0 79 19 182 57 309h-19c-7 0 -20 -1 -25 -1c-96 0 -133 20 -152 64c0 1 42 9 117 18c37 4 74 8 110 11c13 39 23 63 30 74c34 -7 51 -26 51 -57c0 -5 0 -9 -1 -11c37 1 64 2 80 2c30 0 60 -11 91 -32
s46 -37 46 -48c0 -2 -1 -3 -2 -4c-2 -1 -22 -2 -60 -4c-38 -3 -100 -6 -185 -9l-3 -7c-9 -22 -20 -63 -31 -122c-11 -60 -17 -112 -17 -156c0 -72 21 -108 63 -108c27 0 56 16 86 48c29 32 50 71 61 117c-9 15 -13 31 -13 47c0 40 14 77 43 110s57 50 85 50
c15 0 32 -6 50 -19c5 26 9 45 12 56c1 1 4 1 8 1c25 0 59 -16 59 -44c-7 -11 -14 -32 -23 -63s-13 -58 -13 -80c-6 -5 -12 -7 -17 -7c-21 0 -31 25 -31 74c0 9 1 23 2 42zM283 557c-3 0 -31 1 -31 43c0 20 7 62 22 125c14 63 23 94 27 94c46 -1 69 -20 69 -56
c0 -13 -3 -28 -8 -43c-27 -79 -54 -133 -79 -163z" />
    <glyph glyph-name="ens" unicode="en&#x2019;s" horiz-adv-x="1053" 
d="M838 287l-1053 480l-2 -1c-30 -100 -67 -176 -110 -228c-44 -53 -86 -79 -125 -79c-56 0 -94 54 -94 149c0 35 5 73 16 116c10 43 20 75 30 96h-2c-22 -15 -54 -66 -95 -155s-62 -157 -62 -202c-6 -3 -13 -5 -21 -5c-28 0 -50 24 -50 68c0 12 6 51 15 114
c5 31 9 60 12 85l-1 1h-2c-23 -103 -59 -175 -98 -210c-12 0 -51 -34 -51 -110c0 61 111 2 1005 2c21 0 61 -27 61 -24c33 0 50 -29 50 -72c0 -41 -12 -82 -37 -121c-25 -40 -54 -60 -88 -60c-15 0 -30 3 -44 10c5 -60 37 -96 78 -96c36 0 73 34 110 103
c37 68 62 159 75 274c8 1 14 2 19 2c43 0 67 -30 67 -78c0 -43 -6 -96 -19 -158h3c23 56 49 105 79 147c29 41 52 62 67 62c11 0 23 -7 38 -22s22 -27 22 -38l-4 -14c-10 -36 -34 -125 -34 -190c0 -48 15 -72 44 -72s61 24 96 73s63 116 86 202c-5 14 -7 29 -7 46
c0 45 27 94 50 114l16 15c33 -14 49 -35 49 -62c3 -24 -28 -82 -37 -107c12 -25 28 -55 47 -89s33 -62 43 -84c9 -22 15 -44 18 -67c0 -3 1 -11 1 -15c0 -40 -15 -71 -44 -95c-30 -23 -64 -34 -101 -34c-75 0 -109 31 -109 70c0 22 9 38 26 49c11 -19 34 -29 70 -29
c48 0 93 21 93 52c0 27 -22 64 -57 119c-17 27 -30 50 -39 68zM-328 912c-3 0 -31 1 -31 43c0 20 7 62 22 125c14 63 23 94 27 94c46 -1 69 -20 69 -56c0 -13 -3 -28 -8 -43c-27 -79 -54 -133 -79 -163zM-961 644c1 -1 4 -1 8 -1c25 0 48 20 68 61c19 41 29 78 29 111
c0 23 -6 35 -17 35c-16 0 -34 -23 -55 -70s-32 -93 -33 -136z" />
    <glyph glyph-name="er" unicode="e&#x2019;r" horiz-adv-x="685" 
d="M92 164c1 -1 4 -1 8 -1c25 0 48 20 68 61c19 41 29 78 29 111c0 23 -6 35 -17 35c-16 0 -34 -23 -55 -70s-32 -93 -33 -136zM300 432c-3 0 -31 1 -31 43c0 20 7 62 22 125c14 63 23 94 27 94c46 -1 69 -20 69 -56c0 -13 -3 -28 -8 -43c-27 -79 -54 -133 -79 -163z
M451 359h-2c-20 -129 -66 -236 -121 -296s-116 -92 -173 -92c-88 0 -154 72 -154 189c0 59 15 116 45 170s64 81 101 81c21 0 61 -27 64 -27c33 0 50 -29 50 -72c0 -41 -12 -82 -37 -121c-25 -40 -54 -60 -88 -60c-15 0 -30 3 -44 10c0 -75 30 -113 77 -113s96 33 147 98
s84 148 99 249c-28 20 -42 44 -42 72c0 43 26 83 59 83c15 0 30 -6 47 -18l-22 -118c21 -7 64 -17 88 -24c12 -4 25 -8 38 -12c26 -9 38 -18 38 -29c1 -2 -33 -154 -32 -234c0 -69 15 -103 45 -103c4 0 7 0 9 1c-3 -15 -12 -31 -29 -46s-35 -23 -52 -23
c-45 0 -68 48 -68 145c0 80 14 166 43 259c-22 9 -51 19 -86 31z" />
    <glyph glyph-name="es" unicode="e&#x27;s" horiz-adv-x="653" 
d="M441 282c-24 -93 -63 -168 -117 -223c-54 -56 -111 -84 -172 -84c-85 0 -151 72 -151 185c0 59 15 116 45 170s64 81 101 81c21 0 61 -27 64 -27c33 0 50 -29 50 -72c0 -41 -12 -82 -37 -121c-25 -40 -54 -60 -88 -60c-15 0 -30 3 -44 10c5 -67 35 -111 88 -111
c46 0 93 29 141 86c47 57 81 129 100 214c-6 17 -9 35 -9 52c0 45 27 94 50 114l16 15c33 -14 49 -35 49 -62c3 -24 -28 -82 -37 -107c12 -25 28 -55 47 -89s33 -62 43 -84c9 -22 15 -44 18 -67c0 -3 1 -11 1 -15c0 -40 -15 -71 -44 -95c-30 -23 -64 -34 -101 -34
c-75 0 -109 31 -109 70c0 22 9 38 26 49c11 -19 34 -29 70 -29c48 0 93 21 93 52c0 27 -20 63 -54 117c-17 27 -30 48 -39 65zM338 432c-3 0 -31 1 -31 43c0 20 7 62 22 125c14 63 23 94 27 94c46 -1 69 -20 69 -56c0 -13 -3 -28 -8 -43c-27 -79 -54 -133 -79 -163zM92 164
c1 -1 4 -1 8 -1c25 0 48 20 68 61c19 41 29 78 29 111c0 23 -6 35 -17 35c-16 0 -34 -23 -55 -70s-32 -93 -33 -136z" />
    <glyph glyph-name="ellipsis" unicode="&#x2e;&#x2e;&#x2e;" horiz-adv-x="546" 
d="M72 93c55 -1 82 -16 83 -44c0 -52 -38 -90 -66 -90c-33 0 -51 23 -51 58c0 30 11 55 34 76zM245 101c54 -1 82 -16 83 -45c0 -52 -38 -89 -66 -89c-33 0 -51 23 -51 58c0 30 11 55 34 76zM410 93c55 -1 82 -16 83 -44c0 -52 -38 -90 -66 -90c-33 0 -51 23 -51 58
c0 30 11 55 34 76z" />
    <glyph glyph-name="f_f" unicode="ff" horiz-adv-x="560" 
d="M306 311c-73 -3 -135 -4 -188 -1c-1 -4 -2 -7 -2 -9c31 -33 55 -79 70 -138s23 -116 23 -172c0 -79 -13 -142 -40 -191c-27 -48 -56 -72 -86 -72c-25 0 -51 19 -76 56c-25 38 -38 80 -38 127c0 105 20 242 61 411c-41 10 -62 25 -64 45c0 1 26 6 79 14
c39 141 74 239 105 294c13 23 34 35 62 35c9 0 20 -2 31 -7c-29 -33 -64 -137 -106 -310c77 10 143 17 196 20c35 122 67 209 96 262c13 23 34 35 62 35c9 0 19 -2 31 -7c-28 -34 -62 -130 -101 -287c39 -1 76 -18 113 -51c19 -18 26 -29 20 -32l-3 -1
c-43 -6 -94 -11 -153 -15c0 -1 0 -3 -1 -4c29 -33 51 -77 66 -131c14 -55 21 -108 21 -160c0 -80 -13 -146 -38 -198s-53 -78 -82 -78c-25 0 -50 19 -75 56c-25 38 -38 80 -38 127c0 105 18 232 55 382zM109 269c-31 -149 -46 -264 -46 -346c0 -61 10 -92 30 -92
c37 0 71 56 71 169s-18 202 -55 269zM390 278c-30 -141 -45 -254 -45 -339c0 -60 10 -90 29 -90c36 0 66 66 66 182c0 99 -17 181 -50 247z" />
    <glyph glyph-name="f_f_l" unicode="ffl" horiz-adv-x="868" 
d="M306 311c-73 -3 -135 -4 -188 -1c-1 -4 -2 -7 -2 -9c31 -33 55 -79 70 -138s23 -116 23 -172c0 -79 -13 -142 -40 -191c-27 -48 -56 -72 -86 -72c-25 0 -51 19 -76 56c-25 38 -38 80 -38 127c0 105 20 242 61 411c-41 10 -62 25 -64 45c0 1 26 6 79 14
c39 141 74 239 105 294c13 23 34 35 62 35c9 0 20 -2 31 -7c-29 -33 -64 -137 -106 -310c77 10 143 17 196 20c35 122 67 209 96 262c13 23 34 35 62 35c9 0 19 -2 31 -7c-28 -34 -62 -130 -101 -287c39 -1 76 -18 113 -51c19 -18 26 -29 20 -32l-3 -1
c-43 -6 -94 -11 -153 -15c0 -1 0 -3 -1 -4c29 -33 51 -77 66 -131c14 -55 21 -108 21 -160c0 -80 -13 -146 -38 -198s-53 -78 -82 -78c-25 0 -50 19 -75 56c-25 38 -38 80 -38 127c0 105 18 232 55 382zM585 38c-12 -4 -25 -6 -38 -6c-21 0 -32 8 -32 23c0 2 1 6 2 11
c20 0 40 5 60 14c-2 18 -3 38 -3 59c0 76 10 159 29 248s45 165 76 229c31 63 63 95 94 95c43 0 65 -43 65 -130c0 -76 -16 -163 -49 -260s-75 -172 -124 -225c6 -53 25 -79 57 -79c27 0 55 18 85 55c30 36 52 82 67 139c9 0 13 -6 13 -19c0 -5 -1 -9 -2 -13
c-13 -71 -39 -128 -78 -173c-39 -46 -79 -68 -120 -68c-49 0 -83 33 -102 100zM109 269c-31 -149 -46 -264 -46 -346c0 -61 10 -92 30 -92c37 0 71 56 71 169s-18 202 -55 269zM390 278c-30 -141 -45 -254 -45 -339c0 -60 10 -90 29 -90c36 0 66 66 66 182
c0 99 -17 181 -50 247zM665 160c39 57 70 131 92 221c22 89 33 165 33 226c0 29 -3 44 -9 44c-15 0 -37 -59 -66 -178s-45 -224 -50 -313z" />
    <glyph glyph-name="a_l" unicode="al" horiz-adv-x="633" 
d="M381 77v3c-28 -50 -59 -75 -92 -75c-53 0 -83 39 -90 117l-4 1c-26 -91 -61 -137 -104 -137c-63 0 -94 59 -94 143c0 63 15 122 44 178s65 84 107 84c36 0 62 -11 79 -34l6 28c52 -7 70 -27 70 -64c0 -9 -5 -31 -14 -64c-10 -34 -15 -68 -15 -103c0 -45 13 -67 40 -67
c25 0 49 22 70 67v8c-9 5 -13 12 -13 20c0 9 6 17 17 24c9 82 25 163 46 242s46 145 75 199c29 53 57 80 85 81c42 -1 63 -41 63 -121c0 -81 -18 -168 -53 -261c-35 -94 -77 -155 -125 -183c-1 -17 -2 -40 -2 -71c0 -103 35 -174 95 -175c-3 -16 -13 -32 -31 -48
s-36 -24 -54 -24c-69 0 -106 95 -106 232zM222 329c-6 10 -19 15 -39 15c-24 0 -47 -26 -69 -78c-22 -53 -33 -101 -33 -144c0 -35 9 -53 27 -53c23 0 46 26 67 78c21 51 37 112 47 182zM484 215c36 37 66 103 91 197c24 94 36 168 36 222c0 22 -3 33 -10 33
c-15 1 -35 -49 -61 -149c-27 -101 -45 -202 -56 -303z" />
    <glyph glyph-name="a_m" unicode="am" horiz-adv-x="982" 
d="M668 161h4c18 53 44 103 77 150s59 70 78 70c10 0 22 -7 36 -22s21 -27 21 -38c0 -2 -4 -26 -13 -72c-9 -47 -14 -84 -14 -111c0 -49 12 -74 37 -74c17 0 34 10 49 31c15 20 26 40 33 61l11 31c9 0 13 -4 13 -13c0 -31 -13 -71 -40 -119c-27 -49 -57 -73 -91 -73
c-65 0 -98 49 -98 146c0 35 4 72 12 110s16 67 25 86l-2 1c-17 -4 -43 -44 -79 -119c-36 -76 -54 -135 -54 -177c0 -5 -5 -7 -16 -7c-51 0 -76 27 -76 81c0 28 4 60 13 107c4 23 7 41 10 54c3 12 7 32 14 60c6 27 9 42 10 45l-2 1c-11 -7 -46 -50 -85 -136
c-25 -54 -55 -147 -76 -248v-3c-6 -3 -13 -5 -21 -5c-28 0 -50 21 -50 70c0 13 6 46 15 106c5 29 9 55 12 76l-2 1c-33 -144 -93 -222 -146 -222c-39 0 -69 41 -74 113l-4 1c-26 -91 -61 -137 -104 -137c-63 0 -94 59 -94 143c0 63 15 122 44 178s65 84 107 84
c36 0 63 -12 80 -35l5 29c52 -7 70 -27 70 -64c0 -9 -5 -31 -14 -64c-10 -34 -15 -68 -15 -103c0 -48 8 -72 23 -72c22 0 47 33 75 100c28 66 47 146 57 239c12 2 20 3 24 3c40 0 60 -26 60 -78c0 -5 -3 -27 -10 -74c-4 -23 -7 -44 -10 -61h3c25 62 52 115 83 158
c30 43 56 65 77 65c28 0 48 -25 48 -66c0 -5 -1 -14 -2 -29c-5 -24 -11 -56 -18 -95c-8 -39 -13 -67 -16 -83zM210 262l12 67c-6 10 -19 15 -39 15c-24 0 -47 -26 -69 -78c-22 -53 -33 -101 -33 -144c0 -35 9 -53 27 -53c19 0 38 19 57 56c18 37 33 82 45 137z" />
    <glyph glyph-name="a_n" unicode="an" horiz-adv-x="793" 
d="M624 339l-2 1c-27 -25 -60 -80 -99 -165c-39 -86 -58 -150 -58 -192c-6 -3 -13 -5 -21 -5c-28 0 -50 21 -50 70c0 2 9 61 26 176l-2 1c-35 -141 -92 -216 -145 -216c-39 0 -69 41 -74 113l-4 1c-26 -91 -61 -137 -104 -137c-63 0 -94 59 -94 143c0 63 15 122 44 178
s65 84 107 84c36 0 63 -12 80 -35l5 29c52 -7 70 -27 70 -64c0 -9 -5 -31 -14 -64c-10 -34 -15 -68 -15 -103c0 -48 8 -72 23 -72c21 0 48 37 80 110c31 73 51 149 58 230c8 1 14 2 18 2c40 0 60 -26 60 -78c0 -11 -2 -34 -7 -68s-10 -64 -17 -89c1 -1 4 -1 7 -1
c23 56 49 105 79 147c29 41 52 62 67 62c11 0 23 -7 38 -22s22 -27 22 -38l-4 -14c-10 -36 -34 -125 -34 -190c0 -46 12 -69 37 -69c17 0 34 10 49 31c15 20 27 40 34 61l10 31c9 0 13 -4 13 -13c0 -31 -13 -71 -40 -119c-27 -49 -57 -73 -91 -73c-65 0 -98 49 -98 146
c0 35 5 73 16 116c10 42 20 74 30 95zM210 262l12 67c-6 10 -19 15 -39 15c-24 0 -47 -26 -69 -78c-22 -53 -33 -101 -33 -144c0 -35 9 -53 27 -53c19 0 38 19 57 56c18 37 33 82 45 137z" />
    <glyph glyph-name="aacute_n" unicode="&#xe1;n" horiz-adv-x="793" 
d="M624 339l-2 1c-27 -25 -60 -80 -99 -165c-39 -86 -58 -150 -58 -192c-6 -3 -13 -5 -21 -5c-28 0 -50 21 -50 70c0 2 9 61 26 176l-2 1c-35 -141 -92 -216 -145 -216c-39 0 -69 41 -74 113l-4 1c-26 -91 -61 -137 -104 -137c-63 0 -94 59 -94 143c0 63 15 122 44 178
s65 84 107 84c36 0 63 -12 80 -35l5 29c52 -7 70 -27 70 -64c0 -9 -5 -31 -14 -64c-10 -34 -15 -68 -15 -103c0 -48 8 -72 23 -72c21 0 48 37 80 110c31 73 51 149 58 230c8 1 14 2 18 2c40 0 60 -26 60 -78c0 -11 -2 -34 -7 -68s-10 -64 -17 -89c1 -1 4 -1 7 -1
c23 56 49 105 79 147c29 41 52 62 67 62c11 0 23 -7 38 -22s22 -27 22 -38l-4 -14c-10 -36 -34 -125 -34 -190c0 -46 12 -69 37 -69c17 0 34 10 49 31c15 20 27 40 34 61l10 31c9 0 13 -4 13 -13c0 -31 -13 -71 -40 -119c-27 -49 -57 -73 -91 -73c-65 0 -98 49 -98 146
c0 35 5 73 16 116c10 42 20 74 30 95zM210 262l12 67c-6 10 -19 15 -39 15c-24 0 -47 -26 -69 -78c-22 -53 -33 -101 -33 -144c0 -35 9 -53 27 -53c19 0 38 19 57 56c18 37 33 82 45 137zM155 453c3 21 17 49 41 84c23 35 45 52 65 52c15 0 31 -9 50 -28
c-63 -76 -109 -114 -138 -114c-7 0 -13 2 -18 6z" />
    <glyph glyph-name="a_ntilde" unicode="a&#xf1;" horiz-adv-x="793" 
d="M624 339l-2 1c-27 -25 -60 -80 -99 -165c-39 -86 -58 -150 -58 -192c-6 -3 -13 -5 -21 -5c-28 0 -50 21 -50 70c0 2 9 61 26 176l-2 1c-35 -141 -92 -216 -145 -216c-39 0 -69 41 -74 113l-4 1c-26 -91 -61 -137 -104 -137c-63 0 -94 59 -94 143c0 63 15 122 44 178
s65 84 107 84c36 0 63 -12 80 -35l5 29c52 -7 70 -27 70 -64c0 -9 -5 -31 -14 -64c-10 -34 -15 -68 -15 -103c0 -48 8 -72 23 -72c21 0 48 37 80 110c31 73 51 149 58 230c8 1 14 2 18 2c40 0 60 -26 60 -78c0 -11 -2 -34 -7 -68s-10 -64 -17 -89c1 -1 4 -1 7 -1
c23 56 49 105 79 147c29 41 52 62 67 62c11 0 23 -7 38 -22s22 -27 22 -38l-4 -14c-10 -36 -34 -125 -34 -190c0 -46 12 -69 37 -69c17 0 34 10 49 31c15 20 27 40 34 61l10 31c9 0 13 -4 13 -13c0 -31 -13 -71 -40 -119c-27 -49 -57 -73 -91 -73c-65 0 -98 49 -98 146
c0 35 5 73 16 116c10 42 20 74 30 95zM210 262l12 67c-6 10 -19 15 -39 15c-24 0 -47 -26 -69 -78c-22 -53 -33 -101 -33 -144c0 -35 9 -53 27 -53c19 0 38 19 57 56c18 37 33 82 45 137zM698 534c7 0 14 -16 14 -35c0 -28 -18 -52 -66 -52c-12 0 -32 2 -59 7s-47 7 -58 7
c-21 0 -37 -6 -46 -17c-8 0 -15 16 -15 35c0 28 19 52 66 52c11 0 31 -2 58 -7s47 -7 59 -7c23 0 38 6 47 17z" />
    <glyph glyph-name="a_r" unicode="ar" horiz-adv-x="730" 
d="M467 359h-2c-36 -236 -95 -354 -176 -354c-55 0 -85 44 -90 117l-4 1c-26 -91 -61 -137 -104 -137c-63 0 -94 59 -94 143c0 63 15 122 44 178s65 84 107 84c36 0 63 -12 80 -35l5 29c52 -7 70 -27 70 -64c0 -9 -5 -31 -14 -64c-10 -34 -15 -68 -15 -103
c0 -45 9 -67 27 -67c47 0 96 96 131 288c-29 19 -43 43 -43 72c0 43 26 83 59 83c15 0 30 -6 47 -18l-22 -118c21 -7 66 -18 90 -25c11 -3 23 -7 36 -12c25 -9 38 -19 38 -31c0 -3 -33 -114 -33 -194c0 -47 11 -70 34 -70c17 0 34 10 50 31s28 42 36 63l11 31
c9 0 13 -4 13 -13c0 -31 -14 -72 -42 -121s-59 -74 -94 -74c-65 0 -98 48 -98 144c0 74 13 142 39 205c-22 9 -51 19 -86 31zM210 262l12 67c-6 10 -19 15 -39 15c-24 0 -47 -26 -69 -78c-22 -53 -33 -101 -33 -144c0 -35 9 -53 27 -53c19 0 38 19 57 56c18 37 33 82 45 137
z" />
    <glyph glyph-name="a_x" unicode="ax" horiz-adv-x="750" 
d="M199 122l-4 1c-26 -91 -61 -137 -104 -137c-63 0 -94 59 -94 143c0 63 15 122 44 178s65 84 107 84c36 0 62 -11 79 -34l6 28c52 -7 70 -27 70 -64c0 -9 -5 -31 -14 -64c-10 -34 -15 -68 -15 -103c0 -45 13 -67 40 -67c18 0 35 19 50 56s27 79 34 126s10 88 7 121v2
c63 -1 83 -14 95 -61c18 -79 29 -124 33 -137c33 42 67 89 102 142c35 52 54 83 56 94c3 -1 31 -26 27 -59c-2 -9 -5 -17 -8 -24c-17 -29 -70 -97 -159 -202c22 -45 50 -67 83 -67c86 0 116 104 121 128l1 5c9 -1 13 -7 13 -19c0 -48 -27 -119 -86 -174
c-29 -28 -62 -42 -97 -42c-37 0 -70 30 -99 89c-57 -74 -89 -128 -94 -162l-3 1c-9 6 -41 23 -33 62c5 25 41 76 108 151c-16 45 -30 97 -42 157c-7 -80 -22 -145 -47 -194c-25 -50 -54 -75 -87 -75c-53 0 -83 39 -90 117zM222 329c-6 10 -19 15 -39 15
c-24 0 -47 -26 -69 -78c-22 -53 -33 -101 -33 -144c0 -35 9 -53 27 -53c23 0 46 26 67 78c21 51 37 112 47 182z" />
    <glyph glyph-name="a_z" unicode="a&#x7a;" horiz-adv-x="762" 
d="M199 122l-4 1c-26 -91 -61 -137 -104 -137c-63 0 -94 59 -94 143c0 63 15 122 44 178s65 84 107 84c36 0 62 -11 79 -34l6 28c52 -7 70 -27 70 -64c0 -9 -5 -31 -14 -64c-10 -34 -15 -68 -15 -103c0 -45 13 -67 40 -67c21 0 42 23 61 69c19 45 32 94 39 145
c-15 9 -22 22 -22 39s6 86 64 74c-1 -11 -3 -24 -4 -39c60 -9 122 -13 187 -13l80 5c2 -7 3 -14 3 -22c0 -29 -5 -44 -16 -47l-197 -198c73 -32 127 -48 162 -48c25 0 42 9 52 28c4 -3 6 -10 6 -21c0 -21 -6 -42 -19 -64c-13 -21 -30 -31 -52 -31c-29 0 -69 13 -119 39
c-50 25 -78 39 -85 41c-11 -12 -36 -38 -45 -49c-9 0 -23 26 -23 42c0 41 38 76 82 76c16 16 45 44 87 84c41 39 71 69 90 88c-63 -3 -101 -5 -112 -5c-42 0 -74 3 -95 10c-8 -80 -26 -147 -54 -202c-29 -55 -60 -83 -95 -83c-53 0 -83 39 -90 117zM222 329
c-6 10 -19 15 -39 15c-24 0 -47 -26 -69 -78c-22 -53 -33 -101 -33 -144c0 -35 9 -53 27 -53c23 0 46 26 67 78c21 51 37 112 47 182z" />
    <glyph glyph-name="b_b" unicode="bb" horiz-adv-x="710" 
d="M487 392l-24 -99l2 -1c28 61 60 91 95 91c13 0 29 -10 50 -29s34 -39 39 -60c3 -17 5 -34 5 -52c0 -60 -14 -118 -43 -173s-66 -83 -109 -83c-35 0 -63 15 -86 46c-1 -14 -2 -34 -2 -59c-3 -1 -8 -1 -15 -1c-34 0 -51 28 -51 85c0 13 0 24 1 33
c-39 -79 -105 -120 -166 -120c-47 0 -92 24 -92 61c0 16 9 34 17 42l6 6c9 -14 20 -25 34 -32c16 23 30 58 41 107c11 48 17 91 17 129c0 39 -6 59 -18 59c-18 0 -39 -21 -62 -62c-23 -42 -42 -90 -57 -144c-12 -65 -18 -119 -17 -163c-3 -1 -8 -1 -15 -1
c-34 0 -51 28 -51 85c0 74 37 272 111 594c51 -1 77 -28 77 -81c0 -59 -47 -173 -49 -178l-24 -99l2 -1c29 61 61 91 95 91c13 0 30 -10 51 -29s33 -39 38 -60c4 -16 6 -33 6 -52c0 -76 -26 -158 -69 -205c57 12 111 68 140 156c21 125 52 277 95 458c51 -1 77 -28 77 -81
c0 -59 -47 -173 -49 -178zM420 69c13 -19 29 -29 46 -29c29 0 53 27 73 80c19 53 29 107 29 160c0 41 -6 62 -17 62c-19 0 -40 -21 -63 -63c-24 -42 -43 -90 -57 -143c-6 -33 -10 -56 -11 -67z" />
    <glyph glyph-name="b_h" unicode="bh" horiz-adv-x="745" 
d="M418 -23v-23c-7 -1 -12 -2 -15 -2c-23 0 -37 12 -44 35s-8 40 -8 69c0 17 0 30 1 39c-40 -81 -106 -125 -169 -125c-47 0 -92 24 -92 61c0 16 9 34 17 42l6 6c9 -14 20 -25 34 -32c16 23 30 58 41 107c11 48 17 91 17 129c0 39 -6 59 -18 59c-18 0 -39 -21 -62 -62
c-23 -42 -42 -90 -57 -144c-11 -60 -17 -114 -17 -163c-3 -1 -8 -1 -15 -1c-34 0 -51 28 -51 85c0 74 37 272 111 594c51 -1 77 -28 77 -81c0 -59 -47 -173 -49 -178l-24 -99l2 -1c29 61 61 91 95 91c13 0 30 -10 51 -29s33 -39 38 -60c4 -16 6 -33 6 -52
c0 -76 -26 -158 -69 -205c57 13 111 67 139 155c12 79 45 233 99 462c51 -1 77 -28 77 -81c0 -41 -21 -113 -40 -167c-10 -27 -15 -42 -15 -43c-15 -61 -26 -113 -35 -156l3 -1c23 61 50 113 81 156s54 65 70 65c10 0 22 -7 37 -21c15 -15 22 -27 22 -38l-4 -14
c-10 -35 -33 -127 -33 -191c0 -46 12 -69 36 -69c17 0 34 10 50 31c15 20 26 40 33 61l11 31c9 0 13 -4 13 -13c0 -36 -21 -101 -64 -153c-21 -26 -44 -39 -68 -39c-65 0 -97 49 -97 146c0 35 5 74 16 117s21 76 30 97c-9 0 -26 -24 -52 -72c-27 -49 -52 -105 -76 -170
c-25 -65 -38 -116 -39 -153z" />
    <glyph glyph-name="b_l" unicode="bl" horiz-adv-x="590" 
d="M456 147v-27c0 -135 31 -203 94 -203c-3 -16 -13 -32 -31 -48s-36 -24 -54 -24c-65 0 -102 83 -106 206c-47 -49 -116 -81 -176 -81c-47 0 -92 24 -92 61c0 16 9 34 17 42l6 6c9 -14 20 -25 34 -32c16 23 30 58 41 107c11 48 17 91 17 129c0 39 -6 59 -18 59
c-18 0 -39 -21 -62 -62c-23 -42 -42 -90 -57 -143c-11 -61 -17 -115 -17 -164c-3 -1 -8 -1 -15 -1c-34 0 -51 28 -51 85c0 74 37 272 111 594c51 -1 77 -28 77 -81c0 -59 -47 -173 -49 -178l-23 -99l1 -1c29 61 60 91 95 91c13 0 30 -10 51 -29s33 -39 38 -60
c4 -16 6 -33 6 -52c0 -77 -26 -160 -70 -207c48 7 93 29 136 68c2 87 13 179 32 276c19 96 44 178 75 247c31 68 62 102 94 102c40 0 60 -35 60 -106c0 -66 -15 -144 -44 -235c-30 -91 -70 -171 -120 -240zM460 219c36 67 64 143 85 226c20 83 30 147 30 192
c0 20 -3 30 -8 30c-15 0 -34 -49 -58 -148c-25 -99 -41 -199 -49 -300z" />
    <glyph glyph-name="b_r" unicode="br" horiz-adv-x="703" 
d="M441 359h-1c-19 -88 -30 -136 -61 -214c-15 -37 -31 -68 -48 -91c-34 -48 -87 -84 -148 -84c-47 0 -92 24 -92 61c0 16 9 34 17 42l6 6c9 -14 20 -25 34 -32c16 23 30 58 41 107c11 48 17 91 17 129c0 39 -6 59 -18 59c-18 0 -39 -21 -62 -62c-23 -42 -42 -90 -57 -143
c-11 -61 -17 -115 -17 -164c-3 -1 -8 -1 -15 -1c-34 0 -51 28 -51 85c0 74 37 272 111 594c51 -1 77 -28 77 -81c0 -59 -47 -173 -49 -178l-23 -99l1 -1c29 61 60 91 95 91c13 0 30 -10 51 -29s33 -39 38 -60c4 -16 6 -33 6 -52c0 -76 -25 -157 -68 -204
c41 13 78 51 109 116c31 64 54 138 71 221c-28 20 -42 44 -42 72c0 43 26 83 59 83c15 0 30 -6 47 -18l-21 -118c20 -7 66 -18 89 -25c11 -4 24 -8 37 -13c26 -9 37 -19 37 -30c0 -3 -33 -114 -33 -194c0 -47 11 -70 34 -70c17 0 34 10 50 31s28 42 36 63l11 31
c9 0 13 -4 13 -13c0 -31 -14 -72 -42 -121s-59 -74 -94 -74c-65 0 -98 48 -98 144c0 74 13 142 39 205c-22 9 -51 19 -86 31z" />
    <glyph glyph-name="b_s" unicode="bs" horiz-adv-x="637" 
d="M125 392l-24 -99l2 -1c29 61 61 91 95 91c13 0 30 -10 51 -29s33 -39 38 -60c4 -16 6 -33 6 -52c0 -76 -26 -158 -69 -205c47 5 84 36 112 95s44 111 65 199c-6 14 -9 30 -9 48c0 30 8 58 25 84s30 42 41 48c32 -14 48 -35 48 -62c0 -20 -6 -38 -22 -74
c-8 -19 -13 -30 -14 -33c13 -33 32 -72 55 -117s37 -75 42 -88c45 40 78 90 99 150c8 0 12 -5 12 -15c0 -17 -10 -44 -30 -80s-44 -69 -71 -98c1 -3 1 -7 1 -12c0 -37 -13 -65 -38 -86c-26 -21 -55 -31 -87 -31c-47 0 -82 23 -82 63c0 12 3 24 8 35c3 -1 8 -1 15 -1
c33 0 65 7 96 22c-3 40 -16 79 -42 136c-13 29 -22 49 -27 61c-1 0 -2 0 -3 -1c-15 -67 -28 -112 -55 -170c-13 -29 -28 -54 -43 -73c-32 -39 -81 -67 -137 -67c-47 0 -92 24 -92 61c0 16 9 34 17 42l6 6c9 -14 20 -25 34 -32c16 23 30 58 41 107c11 48 17 91 17 129
c0 39 -6 59 -18 59c-18 0 -39 -21 -62 -62c-23 -42 -42 -90 -57 -144c-11 -60 -17 -114 -17 -163c-3 -1 -8 -1 -15 -1c-34 0 -51 28 -51 85c0 74 37 272 111 594c51 -1 77 -28 77 -81c0 -59 -47 -173 -49 -178z" />
    <glyph glyph-name="c_l" unicode="cl" horiz-adv-x="553" 
d="M301 77v33c-36 -87 -99 -134 -162 -134c-77 0 -138 68 -138 184c0 59 15 116 45 170s64 81 101 81c21 0 40 -6 59 -18c3 37 8 65 15 85c1 1 4 1 8 1c25 0 59 -16 59 -44c-7 -11 -14 -32 -23 -63s-13 -58 -13 -80c-6 -5 -12 -7 -17 -7c-21 0 -31 25 -31 74v11
c-54 12 -114 -121 -112 -214c0 -78 26 -117 79 -117c49 0 95 47 126 128c-4 5 -6 10 -6 15c0 9 6 17 17 24c9 82 25 163 46 242s46 145 75 199c29 53 57 80 85 81c42 -1 63 -41 63 -121c0 -81 -18 -168 -53 -261c-35 -94 -77 -155 -125 -183c-1 -17 -2 -40 -2 -71
c0 -103 35 -174 95 -175c-3 -16 -13 -32 -31 -48s-36 -24 -54 -24c-69 0 -106 95 -106 232zM404 215c36 37 66 103 91 197c24 94 36 168 36 222c0 22 -3 33 -10 33c-15 1 -35 -49 -61 -149c-27 -101 -45 -202 -56 -303z" />
    <glyph glyph-name="c_m" unicode="cm" horiz-adv-x="911" 
d="M597 161h4c18 53 44 103 77 150s59 70 78 70c10 0 22 -7 36 -22s21 -27 21 -38c0 -2 -4 -26 -13 -72c-9 -47 -14 -84 -14 -111c0 -49 12 -74 37 -74c17 0 34 10 49 31c15 20 27 40 34 61l10 31c9 0 13 -4 13 -13c0 -31 -13 -71 -40 -119c-27 -49 -57 -73 -91 -73
c-65 0 -98 49 -98 146c0 35 4 72 12 110s16 67 25 86l-2 1c-17 -4 -43 -44 -79 -119c-36 -76 -54 -135 -54 -177c0 -5 -5 -7 -16 -7c-51 0 -76 27 -76 81c0 28 4 60 13 107c4 23 7 41 10 54c3 12 7 32 14 60c6 27 9 42 10 45l-2 1c-9 -8 -22 -24 -39 -48
c-17 -25 -38 -68 -63 -131s-45 -132 -59 -208c-6 -3 -13 -5 -21 -5c-28 0 -50 24 -50 68c0 5 8 57 24 156h-1l-2 1c-43 -137 -114 -227 -205 -227c-77 0 -138 68 -138 184c0 59 15 116 45 170s64 81 101 81c21 0 40 -6 59 -18c5 57 12 86 23 86c25 0 59 -16 59 -44
c-7 -11 -14 -32 -23 -63s-13 -58 -13 -80c-6 -5 -12 -7 -17 -7c-21 0 -31 25 -31 74v11h-5c-26 0 -50 -24 -73 -71s-34 -95 -34 -143c0 -78 26 -117 79 -117c35 0 70 30 106 91s65 158 87 292c8 1 14 2 18 2c40 0 60 -26 60 -78c0 -25 -7 -70 -20 -135h3
c25 62 52 115 83 158c30 43 56 65 77 65c28 0 48 -25 48 -66c0 -5 -1 -14 -2 -29c-5 -24 -11 -56 -18 -95c-8 -39 -13 -67 -16 -83z" />
    <glyph glyph-name="c_n" unicode="cn" horiz-adv-x="722" 
d="M553 339l-2 1c-19 -8 -49 -58 -92 -150s-64 -161 -65 -207c-6 -3 -13 -5 -21 -5c-28 0 -50 21 -50 68c0 1 8 53 23 156l-2 1c-43 -137 -114 -227 -205 -227c-77 0 -138 68 -138 184c0 59 15 116 45 170s64 81 101 81c21 0 40 -6 59 -18c5 57 12 86 23 86
c25 0 59 -16 59 -44c-7 -11 -14 -32 -23 -63s-13 -58 -13 -80c-6 -5 -12 -7 -17 -7c-21 0 -31 25 -31 74v11h-5c-26 0 -50 -24 -73 -71s-34 -95 -34 -143c0 -78 26 -117 79 -117c35 0 70 31 107 92c36 61 65 158 86 291c8 1 14 2 18 2c40 0 60 -26 60 -78
c0 -25 -8 -77 -24 -157c1 -1 4 -1 7 -1c23 56 49 105 79 147c29 41 52 62 67 62c11 0 23 -7 38 -22s22 -27 22 -38l-4 -14c-10 -36 -34 -125 -34 -190c0 -46 12 -69 37 -69c17 0 34 10 49 31c15 20 26 40 33 61l11 31c9 0 13 -4 13 -13c0 -31 -13 -71 -40 -119
c-27 -49 -57 -73 -91 -73c-65 0 -98 49 -98 146c0 35 5 73 16 116c10 42 20 74 30 95z" />
    <glyph glyph-name="c_r" unicode="cr" horiz-adv-x="663" 
d="M401 359h-2c-44 -198 -97 -301 -153 -344c-40 -32 -68 -39 -104 -39c-47 0 -83 18 -106 56c-23 37 -35 79 -35 128c0 59 15 116 45 170s64 81 101 81c19 0 38 -6 57 -18c5 25 9 43 12 54c1 1 4 1 8 1c27 0 59 -16 59 -44c-7 -11 -14 -32 -23 -63s-13 -58 -13 -80
c-6 -5 -12 -7 -17 -7c-21 0 -31 25 -31 74c0 9 1 23 2 43c-1 0 -4 1 -5 1c-23 0 -46 -24 -69 -72s-35 -96 -35 -144c0 -78 26 -117 79 -117c37 0 74 30 111 90c36 60 64 142 83 246c-28 20 -42 44 -42 72c0 43 26 83 59 83c15 0 30 -6 47 -18l-21 -118c20 -7 66 -18 89 -25
c11 -4 24 -8 37 -13c26 -9 37 -19 37 -30c0 -3 -33 -114 -33 -194c0 -47 11 -70 34 -70c17 0 34 10 50 31s28 42 36 63l11 31c9 0 13 -4 13 -13c0 -31 -14 -72 -42 -121s-59 -74 -94 -74c-65 0 -98 48 -98 144c0 74 13 142 39 205c-22 9 -51 19 -86 31z" />
    <glyph glyph-name="c_t" unicode="ct" horiz-adv-x="567" 
d="M584 198v-3c-7 -51 -26 -101 -56 -149c-31 -48 -67 -72 -109 -72c-59 0 -89 48 -89 145c0 14 0 25 1 32c-52 -117 -116 -175 -191 -175c-85 0 -135 69 -137 154c-1 42 3 84 14 127c10 43 27 79 52 109s51 45 79 45c19 0 38 -6 57 -17c3 23 7 40 11 53c1 1 4 1 8 1
c27 0 59 -16 59 -44c-7 -11 -14 -32 -23 -63s-13 -58 -13 -80c-6 -5 -12 -7 -17 -7c-21 0 -31 25 -31 74c0 10 1 24 2 43c-26 1 -50 -23 -73 -71s-35 -96 -35 -144c0 -78 26 -117 79 -117c67 0 127 84 179 251c7 33 15 65 24 96c-7 -1 -18 -1 -31 -1c-24 0 -36 10 -36 30
c0 7 2 17 6 29c24 9 52 17 85 22c21 65 37 107 49 128c34 -7 51 -26 51 -57c0 -19 -5 -42 -16 -67c62 -5 93 -27 93 -66c0 -4 -1 -11 -2 -20c-60 2 -100 3 -121 4c-24 -90 -36 -171 -36 -242c0 -59 14 -89 41 -89c22 0 44 15 66 46c21 31 37 67 48 108c8 0 12 -4 12 -13z
" />
    <glyph glyph-name="c_x" unicode="cx" horiz-adv-x="674" 
d="M204 359v11h-5c-26 0 -50 -24 -73 -71s-34 -95 -34 -143c0 -78 26 -117 79 -117c75 -6 159 174 158 353c63 -1 83 -14 95 -61c19 -81 30 -127 33 -137c33 42 67 89 102 142c35 52 54 83 56 94c2 -1 27 -23 27 -52c0 -13 -10 -34 -24 -57c-9 -13 -28 -37 -39 -52
c-12 -15 -37 -45 -49 -60c-11 -12 -45 -53 -55 -64c22 -45 50 -67 83 -67c86 0 116 104 121 128l1 5c9 -1 13 -7 13 -19c0 -48 -27 -119 -86 -174c-29 -28 -62 -42 -97 -42c-37 0 -70 30 -99 89c-57 -74 -89 -128 -94 -162l-3 1c-8 4 -34 19 -34 50c0 28 36 82 109 163
c-17 47 -31 101 -42 160c-11 -105 -42 -196 -103 -256c-31 -30 -66 -45 -105 -45c-77 0 -138 68 -138 184c0 59 15 116 45 170s64 81 101 81c21 0 40 -6 59 -18c5 57 12 86 23 86c25 0 59 -16 59 -44c-7 -11 -14 -32 -23 -63s-13 -58 -13 -80c-6 -5 -12 -7 -17 -7
c-21 0 -31 25 -31 74z" />
    <glyph glyph-name="d_a" unicode="da" horiz-adv-x="744" 
d="M183 82h-2c-25 -75 -55 -113 -92 -113c-65 0 -98 60 -98 145c-4 119 71 280 158 277c31 0 54 -8 71 -25c19 88 44 179 75 272c45 0 72 -34 72 -82c0 -51 -27 -128 -51 -185c-13 -29 -19 -44 -20 -46c-8 -32 -16 -75 -23 -128c-3 -31 -5 -59 -5 -82c0 -82 17 -123 52 -123
c4 0 7 0 9 1c-3 -15 -12 -31 -29 -46s-35 -23 -52 -23c-45 0 -66 53 -65 158zM548 122l-4 1c-26 -91 -61 -137 -104 -137c-63 0 -94 59 -94 143c0 63 15 122 44 178s65 84 107 84c36 0 62 -11 79 -34l6 28c52 -7 70 -27 70 -64c0 -9 -5 -31 -14 -64
c-10 -34 -15 -68 -15 -103c0 -45 13 -67 40 -67c17 0 34 10 49 31s25 41 32 62l10 31c9 0 13 -4 13 -13c0 -32 -13 -72 -39 -120c-26 -49 -56 -73 -90 -73c-53 0 -83 39 -90 117zM571 329c-6 10 -19 15 -39 15c-24 0 -47 -26 -69 -78c-22 -53 -33 -101 -33 -144
c0 -35 9 -53 27 -53c23 0 46 26 67 78c21 51 37 112 47 182zM196 233c5 35 11 70 18 104c-8 5 -18 7 -30 7c-23 0 -46 -29 -71 -87s-37 -109 -37 -153c0 -35 10 -53 29 -53c13 0 29 18 46 53s32 78 45 129z" />
    <glyph glyph-name="d_b" unicode="db" horiz-adv-x="712" 
d="M489 392l-24 -99l2 -1c29 61 61 91 95 91c13 0 29 -10 50 -29s34 -39 39 -60c3 -17 5 -34 5 -52c0 -60 -14 -118 -43 -173s-66 -83 -109 -83c-35 0 -63 15 -85 46c-2 -21 -3 -41 -3 -59c-3 -1 -8 -1 -15 -1c-34 0 -51 28 -51 85c0 74 37 272 111 594c51 -1 77 -28 77 -81
c0 -41 -17 -99 -35 -143c-9 -23 -14 -34 -14 -35zM423 68c14 -19 29 -28 45 -28c29 0 54 28 73 83s29 108 29 160c0 39 -6 59 -18 59c-24 0 -49 -30 -76 -90s-45 -121 -53 -184zM183 82h-2c-25 -75 -55 -113 -92 -113c-65 0 -98 60 -98 145c-4 119 71 280 158 277
c31 0 54 -8 71 -25c20 94 48 195 84 302c45 0 72 -34 72 -82c0 -51 -27 -128 -51 -185c-13 -29 -19 -44 -20 -46c-25 -93 -37 -173 -37 -240c0 -82 17 -123 52 -123c4 0 7 0 9 1c-3 -15 -12 -31 -29 -46s-35 -23 -52 -23c-43 0 -65 53 -65 158zM196 233c5 35 11 70 18 104
c-8 5 -18 7 -30 7c-23 0 -46 -29 -71 -87s-37 -109 -37 -153c0 -35 10 -53 29 -53c13 0 29 18 46 53s32 78 45 129z" />
    <glyph glyph-name="d_d" unicode="dd" horiz-adv-x="755" 
d="M565 120h-4c-31 -101 -67 -151 -110 -151c-65 0 -98 60 -98 145c-4 119 71 280 158 277c32 0 56 -9 73 -27c19 95 43 187 73 274c45 0 72 -34 72 -82c0 -51 -27 -128 -51 -185c-13 -29 -19 -44 -20 -46c-14 -67 -21 -118 -21 -154c0 -56 14 -84 42 -84c29 0 66 45 89 124
c8 -1 12 -6 12 -17c-5 -57 -21 -101 -48 -132c-28 -32 -56 -48 -85 -48c-47 0 -74 35 -82 106zM563 207c2 37 7 79 16 128c-9 6 -20 9 -33 9c-23 0 -46 -29 -71 -87s-37 -109 -37 -153c0 -35 10 -53 29 -53c13 0 28 15 47 46s35 67 49 110zM183 82h-2
c-25 -75 -55 -113 -92 -113c-65 0 -98 60 -98 145c-4 119 71 280 158 277c31 0 54 -8 71 -25c20 94 48 195 84 302c45 0 72 -34 72 -82c0 -51 -27 -128 -51 -185c-13 -29 -19 -44 -20 -46c-15 -59 -26 -111 -32 -158c-3 -31 -5 -59 -5 -82c0 -82 17 -123 52 -123
c4 0 7 0 9 1c-3 -15 -12 -31 -29 -46s-35 -23 -52 -23c-45 0 -66 53 -65 158zM196 233c5 35 11 70 18 104c-8 5 -18 7 -30 7c-23 0 -46 -29 -71 -87s-37 -109 -37 -153c0 -35 10 -53 29 -53c13 0 29 18 46 53s32 78 45 129z" />
    <glyph glyph-name="d_e" unicode="de" horiz-adv-x="654" 
d="M183 82h-2c-25 -75 -55 -113 -92 -113c-65 0 -98 60 -98 145c-4 119 71 280 158 277c31 0 54 -8 71 -25c19 88 44 179 75 272c45 0 72 -34 72 -82c0 -51 -27 -128 -51 -185c-13 -29 -19 -44 -20 -46c-8 -32 -16 -75 -23 -128c-3 -31 -5 -59 -5 -82c0 -82 17 -123 52 -123
c4 0 7 0 9 1c-3 -15 -12 -31 -29 -46s-35 -23 -52 -23c-45 0 -66 53 -65 158zM351 139c-1 1 -7 4 -17 11c-3 1 -5 5 -5 11c0 10 4 16 11 19c7 -5 10 -8 11 -8c2 58 18 112 48 163c29 51 62 76 98 76c21 0 61 -27 64 -27c33 -1 50 -30 50 -73c0 -45 -15 -88 -46 -131
s-70 -66 -118 -67c11 -43 35 -64 72 -64c55 0 115 59 142 162c10 0 14 -5 13 -16c-7 -64 -29 -114 -66 -151s-78 -56 -122 -56c-72 0 -128 52 -135 151zM196 233c5 35 11 70 18 104c-8 5 -18 7 -30 7c-23 0 -46 -29 -71 -87s-37 -109 -37 -153c0 -35 10 -53 29 -53
c13 0 29 18 46 53s32 78 45 129zM442 158v-4c32 9 58 33 77 71c19 37 28 73 28 107c0 25 -6 38 -17 38c-16 0 -35 -24 -56 -73s-32 -95 -32 -139z" />
    <glyph glyph-name="d_h" unicode="dh" horiz-adv-x="750" 
d="M423 -23v-23c-29 -5 -49 4 -57 27c-8 24 -10 43 -10 75c0 48 10 125 19 181c4 27 11 64 21 110c9 46 16 79 21 100c5 20 13 55 24 104s18 76 19 82c51 -1 77 -28 77 -81c3 -56 -49 -187 -48 -189c-11 -43 -22 -95 -35 -156l4 -1c23 61 50 113 81 156c30 43 53 65 69 65
c10 0 22 -7 37 -21c15 -15 22 -27 22 -38l-4 -14c-10 -35 -33 -126 -33 -191c0 -46 12 -69 36 -69c17 0 34 10 50 31c15 20 27 40 34 61l10 31c9 0 13 -4 13 -13c0 -36 -21 -101 -64 -153c-21 -26 -44 -39 -68 -39c-65 0 -97 49 -97 146c0 35 5 74 16 117s21 76 30 97
c-9 0 -26 -24 -52 -72c-27 -49 -52 -105 -76 -170c-25 -65 -38 -116 -39 -153zM183 82h-2c-25 -75 -55 -113 -92 -113c-65 0 -98 60 -98 145c-4 119 71 280 158 277c31 0 54 -8 71 -25c19 88 44 179 75 272c45 0 72 -34 72 -82c0 -51 -27 -128 -51 -185
c-13 -29 -19 -44 -20 -46c-8 -32 -16 -75 -23 -128c-3 -31 -5 -59 -5 -82c0 -82 17 -123 52 -123c4 0 7 0 9 1c-3 -15 -12 -31 -29 -46s-35 -23 -52 -23c-45 0 -66 53 -65 158zM196 233c5 35 11 70 18 104c-8 5 -18 7 -30 7c-23 0 -46 -29 -71 -87s-37 -109 -37 -153
c0 -35 10 -53 29 -53c13 0 29 18 46 53s32 78 45 129z" />
    <glyph glyph-name="d_l" unicode="dl" horiz-adv-x="640" 
d="M388 77v11c-28 -48 -68 -74 -103 -74c-47 0 -74 35 -82 106h-4c-31 -101 -67 -151 -110 -151c-65 0 -98 60 -98 145c-4 119 71 280 158 277c32 0 56 -9 73 -27c19 95 43 187 73 274c45 0 72 -34 72 -82c0 -51 -27 -128 -51 -185c-13 -29 -19 -44 -20 -46
c-14 -67 -21 -118 -21 -154c0 -56 14 -84 42 -84c25 0 49 25 72 76c-7 5 -11 11 -11 19c0 9 6 17 17 24c9 82 25 163 46 242s46 145 75 199c29 53 57 80 85 81c42 -1 63 -41 63 -121c0 -81 -18 -168 -53 -261c-35 -94 -77 -155 -125 -183c-1 -17 -2 -40 -2 -71
c0 -103 35 -174 95 -175c-3 -16 -13 -32 -31 -48s-36 -24 -54 -24c-69 0 -106 95 -106 232zM201 207c2 37 7 79 16 128c-9 6 -20 9 -33 9c-23 0 -46 -29 -71 -87s-37 -109 -37 -153c0 -35 10 -53 29 -53c13 0 28 15 47 46s35 67 49 110zM491 215c36 37 66 103 91 197
c24 94 36 168 36 222c0 22 -3 33 -10 33c-15 1 -35 -49 -61 -149c-27 -101 -45 -202 -56 -303z" />
    <glyph glyph-name="d_m" unicode="dm" horiz-adv-x="972" 
d="M658 161h4c18 53 44 103 77 150s59 70 78 70c10 0 22 -7 36 -22s21 -27 21 -38c0 -2 -4 -26 -13 -72c-9 -47 -14 -84 -14 -111c0 -49 12 -74 37 -74c17 0 34 10 49 31c15 20 26 40 33 61l11 31c9 0 13 -4 13 -13c0 -31 -13 -71 -40 -119c-27 -49 -57 -73 -91 -73
c-65 0 -98 49 -98 146c0 35 4 72 12 110s16 67 25 86l-2 1c-17 -4 -43 -44 -79 -119c-36 -76 -54 -135 -54 -177c0 -5 -5 -7 -16 -7c-51 0 -76 27 -76 81c0 28 4 60 13 107c4 23 7 41 10 54c3 12 7 32 14 60c6 27 9 42 10 45l-2 1c-9 -8 -22 -24 -38 -48
c-17 -24 -38 -67 -63 -130s-45 -132 -60 -209c-6 -3 -13 -5 -21 -5c-28 0 -50 24 -50 68c2 23 10 70 12 93h-2c-28 -92 -70 -125 -109 -125c-47 0 -74 35 -82 106h-4c-31 -101 -67 -151 -110 -151c-65 0 -98 60 -98 145c-4 119 71 280 158 277c32 0 56 -9 73 -27
c19 95 43 187 73 274c45 0 72 -34 72 -82c0 -51 -27 -128 -51 -185c-13 -29 -19 -44 -20 -46c-14 -67 -21 -118 -21 -154c0 -56 14 -84 42 -84s84 84 101 335c4 1 12 1 24 1c39 0 59 -27 59 -81c0 -27 -4 -67 -13 -119h3c25 60 52 110 81 151c29 40 53 60 74 60
c28 0 48 -25 48 -66c0 -5 -1 -14 -2 -29c-5 -24 -11 -56 -18 -95c-8 -39 -13 -67 -16 -83zM201 207c2 37 7 79 16 128c-9 6 -20 9 -33 9c-23 0 -46 -29 -71 -87s-37 -109 -37 -153c0 -35 10 -53 29 -53c13 0 28 15 47 46s35 67 49 110z" />
    <glyph glyph-name="d_n" unicode="dn" horiz-adv-x="783" 
d="M480 181h3c22 58 48 109 79 152s54 64 70 64c11 0 23 -7 38 -22s22 -27 22 -38l-4 -14c-10 -36 -34 -125 -34 -190c0 -46 12 -69 37 -69c17 0 34 10 49 31c15 20 27 40 34 61l10 31c9 0 13 -4 13 -13c0 -31 -13 -71 -40 -119c-27 -49 -57 -73 -91 -73
c-65 0 -98 49 -98 146c0 35 5 73 16 116c10 42 20 74 30 95l-2 1c-19 -8 -49 -58 -92 -150s-64 -161 -65 -207c-6 -3 -13 -5 -21 -5c-28 0 -50 24 -50 68c2 23 10 70 12 93h-2c-28 -92 -70 -125 -109 -125c-47 0 -74 35 -82 106h-4c-31 -101 -67 -151 -110 -151
c-65 0 -98 60 -98 145c-4 119 71 280 158 277c32 0 56 -9 73 -27c19 95 43 187 73 274c45 0 72 -34 72 -82c0 -51 -27 -128 -51 -185c-13 -29 -19 -44 -20 -46c-14 -67 -21 -118 -21 -154c0 -56 14 -84 42 -84c17 0 43 31 66 109c15 49 28 131 35 226c4 1 12 1 24 1
c39 0 59 -27 59 -81c0 -33 -7 -86 -21 -161zM201 207c2 37 7 79 16 128c-9 6 -20 9 -33 9c-23 0 -46 -29 -71 -87s-37 -109 -37 -153c0 -35 10 -53 29 -53c13 0 28 15 47 46s35 67 49 110z" />
    <glyph glyph-name="d_o" unicode="do" horiz-adv-x="730" 
d="M184 82h-3c-25 -75 -55 -113 -92 -113c-65 0 -98 60 -98 145c-4 119 71 280 158 277c31 0 55 -9 72 -26c26 124 51 215 74 273c45 0 72 -34 72 -82c0 -51 -27 -128 -51 -185c-13 -29 -19 -44 -20 -46c-20 -78 -30 -154 -30 -227c0 -95 21 -149 63 -164c1 0 1 -1 1 -2
c0 -6 -31 -29 -61 -29c-57 0 -85 60 -85 179zM624 115c-31 -83 -86 -139 -155 -139c-80 0 -120 66 -120 158c-3 118 74 284 179 282c53 0 85 -26 97 -78c8 -1 14 -3 19 -4c5 -21 7 -44 7 -71c0 -32 -4 -66 -13 -103c2 -1 6 -2 12 -2c19 0 38 10 57 31c18 20 31 40 40 61
l13 30c5 0 7 -3 7 -10c-15 -105 -72 -156 -132 -156c-5 0 -9 0 -11 1zM588 129c-23 19 -34 50 -34 93c0 45 15 89 39 108c-3 28 -14 42 -32 42c-58 4 -124 -146 -121 -236c0 -56 19 -93 55 -93c35 0 66 29 93 86zM199 245c6 38 11 68 16 91c-7 5 -18 8 -31 8
c-23 0 -46 -29 -71 -87s-37 -109 -37 -153c0 -35 10 -53 29 -53c14 0 30 20 49 59c18 39 33 84 45 135z" />
    <glyph glyph-name="d_r" unicode="dr" horiz-adv-x="752" 
d="M490 359h-1c-19 -115 -48 -204 -86 -266c-39 -62 -77 -93 -114 -93c-43 0 -77 43 -86 120h-4c-31 -101 -67 -151 -110 -151c-65 0 -98 60 -98 145c-4 119 71 280 158 277c32 0 56 -9 73 -27c19 95 43 187 73 274c45 0 72 -34 72 -82c0 -51 -27 -128 -51 -185
c-13 -29 -19 -44 -20 -46c-14 -67 -21 -118 -21 -154c0 -55 11 -83 32 -83c22 0 48 28 79 83s55 123 72 202c-31 21 -46 45 -46 74c0 43 26 83 59 83c15 0 30 -6 47 -18l-22 -118c21 -7 66 -18 90 -25c11 -3 23 -7 36 -12c25 -9 38 -19 38 -31c0 -3 -33 -114 -33 -194
c0 -47 11 -70 34 -70c17 0 34 10 50 31s28 42 35 63l12 31c9 0 13 -4 13 -13c0 -31 -14 -72 -42 -121s-59 -74 -94 -74c-65 0 -98 48 -98 144c0 74 13 142 39 205c-22 9 -51 19 -86 31zM201 207c2 37 7 79 16 128c-9 6 -20 9 -33 9c-23 0 -46 -29 -71 -87s-37 -109 -37 -153
c0 -35 10 -53 29 -53c13 0 28 15 47 46s35 67 49 110z" />
    <glyph glyph-name="d_x" unicode="dx" horiz-adv-x="748" 
d="M203 120h-4c-31 -101 -67 -151 -110 -151c-65 0 -98 60 -98 145c-4 119 71 280 158 277c32 0 56 -9 73 -27c19 95 43 187 73 274c45 0 72 -34 72 -82c0 -51 -27 -128 -51 -185c-13 -29 -19 -44 -20 -46c-14 -67 -21 -118 -21 -154c0 -56 14 -84 42 -84c20 0 40 24 58 70
s28 130 28 235c61 -1 83 -16 95 -61c19 -81 30 -127 33 -137c33 42 67 89 102 142c35 52 54 83 56 94c2 -1 27 -23 27 -52c0 -13 -10 -34 -24 -57c-9 -13 -28 -37 -39 -52c-12 -15 -37 -45 -49 -60c-11 -12 -45 -53 -55 -64c22 -45 50 -67 83 -67c86 0 116 104 121 128l1 5
c9 -1 13 -7 13 -19c0 -48 -27 -119 -86 -174c-29 -28 -62 -42 -97 -42c-37 0 -70 30 -99 89c-57 -74 -89 -128 -94 -162l-3 1c-8 4 -34 19 -34 50c0 28 36 82 109 163c-13 38 -25 81 -36 130c-5 -68 -21 -124 -48 -167c-27 -44 -58 -66 -94 -66c-47 0 -74 35 -82 106z
M201 207c2 37 7 79 16 128c-9 6 -20 9 -33 9c-23 0 -46 -29 -71 -87s-37 -109 -37 -153c0 -35 10 -53 29 -53c13 0 28 15 47 46s35 67 49 110z" />
    <glyph glyph-name="e_l" unicode="el" horiz-adv-x="553" 
d="M301 77v33c-33 -77 -100 -122 -165 -122c-76 0 -135 61 -135 172c0 59 15 116 45 170s64 81 101 81c21 0 61 -27 64 -27c33 0 50 -29 50 -72c0 -41 -12 -82 -37 -121c-25 -40 -54 -60 -88 -60c-15 0 -30 3 -44 10c5 -59 36 -92 77 -92c45 0 97 43 128 119
c-4 4 -6 9 -6 14c0 9 6 17 17 24c9 82 25 163 46 242s46 145 75 199c29 53 57 80 85 81c42 -1 63 -41 63 -121c0 -81 -18 -168 -53 -261c-35 -94 -77 -155 -125 -183c-1 -17 -2 -40 -2 -71c0 -103 35 -174 95 -175c-3 -16 -13 -32 -31 -48s-36 -24 -54 -24
c-69 0 -106 95 -106 232zM404 215c36 37 66 103 91 197c24 94 36 168 36 222c0 22 -3 33 -10 33c-15 1 -35 -49 -61 -149c-27 -101 -45 -202 -56 -303zM92 164c1 -1 4 -1 8 -1c25 0 48 20 68 61c19 41 29 78 29 111c0 23 -6 35 -17 35c-16 0 -34 -23 -55 -70
s-32 -93 -33 -136z" />
    <glyph glyph-name="e_m" unicode="em" horiz-adv-x="911" 
d="M597 161h4c18 53 44 103 77 150s59 70 78 70c10 0 22 -7 36 -22s21 -27 21 -38c0 -2 -4 -26 -13 -72c-9 -47 -14 -84 -14 -111c0 -49 12 -74 37 -74c17 0 34 10 49 31c15 20 27 40 34 61l10 31c9 0 13 -4 13 -13c0 -31 -13 -71 -40 -119c-27 -49 -57 -73 -91 -73
c-65 0 -98 49 -98 146c0 35 4 72 12 110s16 67 25 86l-2 1c-17 -4 -43 -44 -79 -119c-36 -76 -54 -135 -54 -177c0 -5 -5 -7 -16 -7c-51 0 -76 27 -76 81c0 28 4 60 13 107c4 23 7 41 10 54c3 12 7 32 14 60c6 27 9 42 10 45l-2 1c-11 -7 -46 -50 -85 -136
c-25 -54 -55 -147 -76 -248v-3c-6 -3 -13 -5 -21 -5c-28 0 -50 24 -50 68c3 27 8 63 15 110c7 46 11 80 14 101h-2c-39 -179 -111 -269 -214 -269c-76 0 -135 61 -135 172c0 59 15 116 45 170s64 81 101 81c21 0 61 -27 64 -27c33 0 50 -29 50 -72c0 -41 -12 -82 -37 -121
c-25 -40 -54 -60 -88 -60c-15 0 -30 3 -44 10c3 -41 17 -69 43 -86c32 -21 65 -11 100 28c53 59 93 172 122 339c4 1 12 1 24 1c42 0 62 -31 59 -93c-2 -33 -6 -68 -13 -107h3c25 60 52 110 81 151c29 40 53 60 74 60c28 0 48 -25 48 -66c0 -5 -1 -14 -2 -29
c-5 -24 -11 -56 -18 -95c-8 -39 -13 -67 -16 -83zM92 164c1 -1 4 -1 8 -1c25 0 48 20 68 61c19 41 29 78 29 111c0 23 -6 35 -17 35c-16 0 -34 -23 -55 -70s-32 -93 -33 -136z" />
    <glyph glyph-name="e_n" unicode="en" horiz-adv-x="722" 
d="M422 188h3c23 56 49 105 79 147c29 41 52 62 67 62c11 0 23 -7 38 -22s22 -27 22 -38l-4 -14c-10 -36 -34 -125 -34 -190c0 -46 12 -69 37 -69c17 0 34 10 49 31c15 20 26 40 33 61l11 31c9 0 13 -4 13 -13c0 -31 -13 -71 -40 -119c-27 -49 -57 -73 -91 -73
c-65 0 -98 49 -98 146c0 35 5 74 16 117c10 43 20 74 30 95h-2c-22 -15 -54 -66 -95 -155s-62 -157 -62 -202c-6 -3 -13 -5 -21 -5c-28 0 -50 24 -50 68c0 12 6 51 15 114c5 31 9 60 12 85l-1 1h-2c-23 -103 -59 -175 -98 -210c-40 -36 -74 -48 -113 -48
c-76 0 -135 61 -135 172c0 59 15 116 45 170s64 81 101 81c21 0 61 -27 64 -27c33 0 50 -29 50 -72c0 -41 -12 -82 -37 -121c-25 -40 -54 -60 -88 -60c-15 0 -30 3 -44 10c5 -60 37 -96 78 -96c36 0 73 34 110 103c37 68 62 159 75 274c8 1 14 2 19 2c43 0 67 -30 67 -78
c0 -43 -6 -96 -19 -158zM92 164c1 -1 4 -1 8 -1c25 0 48 20 68 61c19 41 29 78 29 111c0 23 -6 35 -17 35c-16 0 -34 -23 -55 -70s-32 -93 -33 -136z" />
    <glyph glyph-name="eacute_n" unicode="&#xe9;n" horiz-adv-x="722" 
d="M422 188h3c23 56 49 105 79 147c29 41 52 62 67 62c11 0 23 -7 38 -22s22 -27 22 -38l-4 -14c-10 -36 -34 -125 -34 -190c0 -46 12 -69 37 -69c17 0 34 10 49 31c15 20 26 40 33 61l11 31c9 0 13 -4 13 -13c0 -31 -13 -71 -40 -119c-27 -49 -57 -73 -91 -73
c-65 0 -98 49 -98 146c0 35 5 74 16 117c10 43 20 74 30 95h-2c-22 -15 -54 -66 -95 -155s-62 -157 -62 -202c-6 -3 -13 -5 -21 -5c-28 0 -50 24 -50 68c0 12 6 51 15 114c5 31 9 60 12 85l-1 1h-2c-23 -103 -59 -175 -98 -210c-40 -36 -74 -48 -113 -48
c-76 0 -135 61 -135 172c0 59 15 116 45 170s64 81 101 81c21 0 61 -27 64 -27c33 0 50 -29 50 -72c0 -41 -12 -82 -37 -121c-25 -40 -54 -60 -88 -60c-15 0 -30 3 -44 10c5 -60 37 -96 78 -96c36 0 73 34 110 103c37 68 62 159 75 274c8 1 14 2 19 2c43 0 67 -30 67 -78
c0 -43 -6 -96 -19 -158zM92 164c1 -1 4 -1 8 -1c25 0 48 20 68 61c19 41 29 78 29 111c0 23 -6 35 -17 35c-16 0 -34 -23 -55 -70s-32 -93 -33 -136zM152 453c3 21 17 49 41 84c23 35 45 52 65 52c15 0 31 -9 50 -28c-63 -76 -109 -114 -138 -114c-7 0 -13 2 -18 6z" />
    <glyph glyph-name="e_ntilde" unicode="e&#xf1;" horiz-adv-x="722" 
d="M422 188h3c23 56 49 105 79 147c29 41 52 62 67 62c11 0 23 -7 38 -22s22 -27 22 -38l-4 -14c-10 -36 -34 -125 -34 -190c0 -46 12 -69 37 -69c17 0 34 10 49 31c15 20 26 40 33 61l11 31c9 0 13 -4 13 -13c0 -31 -13 -71 -40 -119c-27 -49 -57 -73 -91 -73
c-65 0 -98 49 -98 146c0 35 5 74 16 117c10 43 20 74 30 95h-2c-22 -15 -54 -66 -95 -155s-62 -157 -62 -202c-6 -3 -13 -5 -21 -5c-28 0 -50 24 -50 68c0 12 6 51 15 114c5 31 9 60 12 85l-1 1h-2c-23 -103 -59 -175 -98 -210c-40 -36 -74 -48 -113 -48
c-76 0 -135 61 -135 172c0 59 15 116 45 170s64 81 101 81c21 0 61 -27 64 -27c33 0 50 -29 50 -72c0 -41 -12 -82 -37 -121c-25 -40 -54 -60 -88 -60c-15 0 -30 3 -44 10c5 -60 37 -96 78 -96c36 0 73 34 110 103c37 68 62 159 75 274c53 9 86 -21 86 -76
c0 -43 -6 -96 -19 -158zM92 164c1 -1 4 -1 8 -1c25 0 48 20 68 61c19 41 29 78 29 111c0 23 -6 35 -17 35c-16 0 -34 -23 -55 -70s-32 -93 -33 -136zM627 534c7 0 14 -16 14 -35c0 -28 -19 -52 -66 -52c-12 0 -32 2 -59 7s-47 7 -58 7c-21 0 -37 -6 -46 -17
c-8 0 -15 16 -15 35c0 28 19 52 66 52c11 0 31 -2 58 -7s47 -7 59 -7c23 0 38 6 47 17z" />
    <glyph glyph-name="e_r" unicode="er" horiz-adv-x="663" 
d="M401 359h-2c-28 -131 -68 -227 -101 -278c-17 -25 -35 -45 -56 -60c-42 -29 -67 -33 -106 -33c-76 0 -135 61 -135 172c0 59 15 116 45 170s64 81 101 81c21 0 61 -27 64 -27c33 0 50 -29 50 -72c0 -41 -12 -82 -37 -121c-25 -40 -54 -60 -88 -60c-15 0 -30 3 -44 10
c5 -59 33 -89 73 -89c39 0 77 28 115 84c37 56 66 136 85 239c-28 20 -42 44 -42 72c0 43 26 83 59 83c15 0 30 -6 47 -18l-22 -118c21 -7 66 -18 90 -25c11 -3 23 -7 36 -12c25 -9 38 -19 38 -31c0 -3 -33 -114 -33 -194c0 -47 11 -70 34 -70c17 0 34 10 50 31s28 42 36 63
l11 31c9 0 13 -4 13 -13c0 -31 -14 -72 -42 -121s-59 -74 -94 -74c-65 0 -98 48 -98 144c0 74 13 142 39 205c-22 9 -51 19 -86 31zM92 164c1 -1 4 -1 8 -1c25 0 48 20 68 61c19 41 29 78 29 111c0 23 -6 35 -17 35c-16 0 -34 -23 -55 -70s-32 -93 -33 -136z" />
    <glyph glyph-name="e_s" unicode="es" horiz-adv-x="581" 
d="M366 281c-1 0 -2 0 -3 -1c-21 -97 -37 -151 -71 -208s-85 -84 -156 -84c-76 0 -135 61 -135 172c0 59 15 116 45 170s64 81 101 81c21 0 61 -27 64 -27c33 0 50 -29 50 -72c0 -41 -12 -82 -37 -121c-25 -40 -54 -60 -88 -60c-15 0 -30 3 -44 10c5 -59 36 -92 77 -92
c69 0 121 66 156 198c1 7 8 35 20 84c-6 15 -9 30 -9 47c0 54 22 98 66 133c32 -15 48 -36 48 -62c0 -20 -7 -41 -21 -72c-7 -16 -12 -28 -15 -35c13 -33 32 -72 55 -117s37 -75 42 -88c45 40 78 90 99 150c8 0 12 -5 12 -15c0 -17 -10 -44 -30 -80s-44 -69 -71 -98
c1 -3 1 -7 1 -12c0 -37 -13 -65 -38 -86c-26 -21 -55 -31 -87 -31c-47 0 -82 23 -82 63c0 12 3 24 8 35c3 -1 8 -1 15 -1c33 0 65 7 96 22c-3 40 -15 78 -42 137c-13 29 -22 49 -26 60zM92 164c1 -1 4 -1 8 -1c25 0 48 20 68 61c19 41 29 78 29 111c0 23 -6 35 -17 35
c-16 0 -34 -23 -55 -70s-32 -93 -33 -136z" />
    <glyph glyph-name="e_x" unicode="ex" horiz-adv-x="679" 
d="M334 392h1c63 -1 83 -14 95 -61c18 -79 29 -124 33 -137c33 42 67 89 102 142c35 52 54 83 56 94c2 -1 27 -23 27 -52c0 -21 -26 -63 -63 -108c-12 -16 -36 -45 -49 -61s-41 -49 -54 -65c20 -44 47 -66 82 -66c86 0 116 104 121 128l1 5c9 -1 13 -7 13 -19
c0 -48 -27 -119 -86 -174c-29 -28 -62 -42 -97 -42c-36 0 -69 30 -99 89c-57 -74 -89 -128 -94 -162l-3 1c-8 4 -34 19 -34 50c0 24 30 69 56 101c13 15 30 36 53 61c-19 51 -34 112 -46 182c-23 -215 -108 -320 -203 -320c-39 0 -73 17 -102 52c-29 34 -43 77 -43 130
c0 59 15 116 45 170s64 81 101 81c21 0 61 -27 64 -27c33 0 50 -29 50 -72c0 -41 -12 -82 -37 -121c-25 -40 -54 -60 -88 -60c-15 0 -30 3 -44 10c4 -64 32 -101 69 -101s74 31 109 93c35 61 56 148 64 259zM92 164c1 -1 4 -1 8 -1c25 0 48 20 68 61c19 41 29 78 29 111
c0 23 -6 35 -17 35c-16 0 -34 -23 -55 -70s-32 -93 -33 -136z" />
    <glyph glyph-name="f_i" unicode="fi" horiz-adv-x="478" 
d="M121 316h-2l-1 -1v-2c30 -34 52 -80 67 -137s22 -113 22 -168c0 -79 -13 -146 -40 -200c-27 -53 -55 -80 -84 -80c-25 0 -51 19 -76 56c-25 38 -38 80 -38 127c0 109 21 246 62 413c-30 7 -45 19 -45 35c0 2 1 4 4 5l54 10c38 145 73 245 106 301c13 23 34 35 62 35
c9 0 20 -2 31 -7c-29 -34 -65 -138 -107 -313c63 10 107 15 134 15c87 0 119 -19 119 -68c0 -9 -6 -37 -18 -83c-12 -47 -18 -88 -18 -124c0 -41 12 -62 37 -62c17 0 34 12 50 36c15 24 27 48 34 72l10 35c9 0 13 -4 13 -13c-1 -37 -25 -109 -69 -168
c-22 -29 -45 -44 -68 -44c-60 0 -90 47 -90 141c0 47 10 117 29 209c-49 -13 -108 -20 -178 -20zM111 278c-32 -153 -48 -272 -48 -355c0 -61 10 -92 30 -92c36 0 69 70 69 186c0 108 -17 195 -51 261zM444 546c-15 -69 -41 -109 -48 -109h-6c-17 0 -63 6 -63 94
c0 43 9 66 28 69c2 1 5 1 10 1c18 0 36 -6 53 -17c17 -12 26 -25 26 -38z" />
    <glyph glyph-name="f_l" unicode="fl" horiz-adv-x="589" 
d="M161 305h-36c27 -35 48 -80 62 -135c13 -56 20 -110 20 -162c0 -79 -13 -146 -40 -200c-27 -53 -55 -80 -84 -80c-25 0 -51 19 -76 56c-25 38 -38 80 -38 127c0 103 20 238 60 407c-27 11 -43 32 -43 41c0 2 1 4 4 5c15 4 33 8 54 13c39 143 74 242 106 298
c17 32 62 44 93 28c-29 -34 -65 -138 -107 -313c5 0 20 1 27 1c109 0 118 -60 118 -76c0 -7 -40 -10 -120 -10zM239 66h8c17 0 35 4 53 11c-3 17 -4 37 -4 62c0 76 10 159 29 248s45 165 76 229c31 63 63 95 94 95c43 0 65 -43 65 -130c0 -76 -16 -163 -49 -260
s-75 -172 -124 -225c6 -53 25 -79 57 -79c27 0 55 18 85 55c30 36 52 82 67 139c9 0 13 -6 13 -19c0 -5 -1 -9 -2 -13c-13 -71 -39 -128 -78 -173c-39 -46 -79 -68 -120 -68c-49 0 -83 33 -102 100c-12 -4 -25 -6 -38 -6c-21 0 -32 8 -32 23c0 2 1 6 2 11zM111 279
c-47 -224 -71 -448 -18 -448c36 0 69 70 69 186c0 109 -17 196 -51 262zM386 157c39 57 70 132 93 224c22 91 33 167 33 226c0 29 -3 44 -9 44c-9 0 -23 -28 -40 -83c-18 -56 -35 -124 -50 -203c-15 -80 -24 -149 -27 -208z" />
    <glyph glyph-name="f_s" unicode="fs" horiz-adv-x="603" 
d="M161 305h-36c27 -35 48 -80 62 -135c13 -56 20 -110 20 -162c0 -79 -13 -146 -40 -200c-27 -53 -55 -80 -84 -80c-25 0 -51 19 -76 56c-25 38 -38 80 -38 127c0 103 20 238 60 407c-27 11 -43 32 -43 41c0 2 1 4 4 5c15 4 33 8 54 13c39 143 74 242 106 298
c17 32 62 44 93 28c-29 -34 -65 -138 -107 -313c5 0 20 1 27 1c109 0 118 -60 118 -76c0 -7 -40 -10 -120 -10zM399 261h-3c-12 -43 -28 -86 -52 -148c-25 -62 -53 -106 -76 -106c-12 0 -25 11 -30 19l-4 6c6 8 14 19 25 34c10 14 28 45 55 92c26 47 49 95 69 144
c-11 32 -17 59 -17 80c0 45 24 94 44 114l14 15c41 -23 61 -53 61 -88c0 -24 -14 -56 -42 -96c13 -33 31 -70 52 -110s33 -67 38 -80c45 40 78 90 99 150c8 0 12 -5 12 -15c0 -17 -10 -44 -30 -80s-44 -69 -71 -98c1 -3 1 -7 1 -12c0 -37 -13 -65 -38 -86
c-26 -21 -55 -31 -87 -31c-47 0 -82 23 -82 63c0 12 3 24 8 35c3 -1 8 -1 15 -1c33 0 65 7 96 22c-2 32 -9 56 -21 89c-9 25 -12 31 -24 60c-6 14 -10 23 -12 28zM111 279c-47 -224 -71 -448 -18 -448c36 0 69 70 69 186c0 109 -17 196 -51 262z" />
    <glyph glyph-name="f_t" unicode="ft" horiz-adv-x="487" 
d="M496 211c8 0 12 -4 12 -13c-6 -51 -24 -101 -55 -150c-31 -50 -67 -74 -110 -74c-59 0 -89 48 -89 145c0 51 9 114 26 190c-49 -2 -94 -3 -133 -2c21 -36 37 -79 48 -128c11 -50 16 -97 16 -142c0 -81 -14 -152 -42 -215c-29 -63 -57 -94 -86 -94c-25 0 -51 19 -76 56
c-25 38 -38 80 -38 127c0 105 20 242 61 409c-41 10 -62 26 -64 47c0 2 27 7 80 16c38 140 73 237 104 292c13 23 34 35 62 35c9 0 20 -2 31 -7c-29 -33 -64 -136 -106 -307c51 7 108 12 169 15c27 92 49 153 66 183c34 -7 51 -26 51 -57c0 -23 -11 -61 -34 -113
c-2 -5 -4 -10 -6 -16c37 -9 68 -27 95 -56c13 -15 16 -23 8 -24c-23 -3 -65 -8 -125 -13c-13 -67 -20 -123 -20 -169c0 -59 14 -89 41 -89c22 0 44 15 66 46c21 31 37 67 48 108zM117 305c-36 -166 -54 -293 -54 -382c0 -61 10 -92 30 -92c17 0 34 21 50 63
c15 43 23 93 23 152c0 107 -16 194 -49 259z" />
    <glyph glyph-name="f_y" unicode="fy" horiz-adv-x="628" 
d="M176 -176v5c-25 -63 -61 -101 -93 -101c-25 0 -51 19 -76 56c-25 38 -38 80 -38 127c0 100 18 229 55 386c-21 9 -33 31 -36 66c14 5 33 9 56 14c39 143 74 242 106 298c13 23 34 35 62 35c9 0 20 -2 31 -7c-29 -35 -65 -139 -107 -314c23 1 40 2 52 2
c128 0 192 -33 192 -98c-1 -13 -4 -39 -9 -79c-6 -41 -9 -70 -9 -87c0 -29 7 -44 20 -44c20 0 60 62 96 165c17 51 28 102 32 152c80 0 93 -68 60 -138c-7 -36 -13 -78 -20 -126l-18 -126c-9 -71 -22 -160 -40 -214c-26 -83 -72 -150 -150 -146c-43 0 -82 19 -115 57
c-34 38 -51 77 -51 117zM490 200h-3c-45 -129 -92 -193 -141 -193c-47 0 -70 36 -70 107c0 35 5 75 14 119c9 43 14 69 14 76c0 21 -13 32 -38 32c-20 0 -52 -7 -69 -11c-13 -4 -67 -21 -74 -23c29 -35 50 -80 64 -136c13 -56 20 -110 20 -163c0 -55 -7 -106 -22 -153l6 4
c23 -83 77 -114 122 -114s81 35 108 106s50 187 69 349zM111 279c-32 -153 -48 -271 -48 -354c0 -63 10 -94 30 -94c36 0 69 70 69 186c0 109 -17 196 -51 262z" />
    <glyph glyph-name="g_f" unicode="gf" horiz-adv-x="646" 
d="M204 128l-3 1c-31 -95 -67 -143 -110 -143c-63 0 -94 59 -94 143c0 63 15 122 44 178s65 84 107 84c37 0 63 -11 79 -34l4 43c80 0 93 -68 60 -138c-8 -37 -16 -90 -25 -159s-17 -131 -24 -186c-8 -54 -19 -109 -32 -164c-27 -110 -74 -174 -139 -174
c-45 0 -119 35 -173 103c-27 35 -40 71 -40 108c0 49 21 89 63 121c43 33 88 49 136 49c55 0 80 -19 80 -42c0 -5 -1 -9 -3 -13c-14 3 -30 4 -47 4c-53 0 -98 -15 -133 -45s-53 -65 -53 -105c0 -55 40 -102 93 -102c98 0 168 157 210 471zM528 305h-36
c27 -35 48 -80 62 -135c13 -56 20 -110 20 -162c0 -79 -13 -146 -40 -200c-27 -53 -55 -80 -84 -80c-25 0 -51 19 -76 56c-25 38 -38 80 -38 127c0 108 20 244 60 407c-27 11 -43 30 -43 41c0 2 1 4 4 5c15 4 33 8 54 13c39 143 74 242 106 298c17 32 62 44 93 28
c-29 -34 -65 -138 -107 -313c7 0 22 1 27 1c109 0 118 -60 118 -76c0 -7 -40 -10 -120 -10zM478 279c-47 -224 -71 -448 -18 -448c36 0 69 70 69 186c0 109 -17 196 -51 262zM220 277l5 47c-5 13 -19 20 -42 20c-24 0 -47 -26 -69 -78c-22 -53 -33 -101 -33 -144
c0 -35 9 -53 27 -53c21 0 42 21 63 62s38 89 49 146z" />
    <glyph glyph-name="g_g" unicode="gg" horiz-adv-x="696" 
d="M550 128l-2 1c-31 -95 -67 -143 -110 -143c-63 0 -94 59 -94 143c0 63 15 122 44 178s65 84 107 84c37 0 63 -12 79 -35l4 44c51 0 77 -24 77 -71c0 -21 -6 -43 -17 -67c-7 -33 -17 -98 -29 -197c-13 -100 -24 -173 -33 -222c155 3 257 30 308 83c2 -9 3 -23 3 -42
c0 -109 -73 -163 -219 -163c-38 0 -78 2 -120 5c-29 -92 -68 -138 -116 -138c-45 0 -73 42 -65 78c30 -4 58 19 84 70c-51 7 -104 16 -169 28c-33 6 -59 11 -78 14c-53 -145 -158 -231 -355 -231c-85 0 -153 17 -204 51c-51 35 -76 75 -76 121c0 49 30 92 91 127
c61 36 149 54 264 54c61 0 137 -6 228 -18c22 68 39 150 51 246l-2 1c-31 -95 -67 -143 -110 -143c-63 0 -94 59 -94 143c0 63 15 122 44 178s65 84 107 84c35 0 62 -11 79 -33c1 19 3 33 4 42c51 0 77 -24 77 -71c0 -21 -6 -43 -17 -67c-9 -39 -19 -103 -30 -193
s-21 -156 -30 -199c108 -15 195 -23 262 -26c22 75 41 170 57 284zM115 -208c-90 13 -177 19 -261 19c-151 0 -238 -52 -238 -112c0 -52 70 -95 187 -95c143 0 247 63 312 188zM567 276l5 48c-5 13 -19 20 -42 20c-24 0 -47 -26 -69 -78c-22 -53 -33 -101 -33 -144
c0 -35 9 -53 27 -53c21 0 42 20 63 61s38 89 49 146zM219 268l5 58c-6 12 -20 18 -41 18c-24 0 -47 -26 -69 -78c-22 -53 -33 -101 -33 -144c0 -35 9 -53 27 -53c20 0 41 20 62 59s37 85 49 140z" />
    <glyph glyph-name="g_j" unicode="gj" horiz-adv-x="513" 
d="M403 -127h12c118 0 199 25 243 76c-5 -151 -70 -201 -199 -201c-22 0 -49 2 -81 5c-31 -110 -72 -165 -123 -165c-40 0 -67 32 -67 65c0 3 1 8 2 13c1 0 5 -1 6 -1c32 0 61 34 88 101l-80 12c-53 -145 -158 -231 -355 -231c-85 0 -153 17 -204 51c-51 35 -76 75 -76 121
c0 49 30 92 91 127c61 36 149 54 264 54c64 0 141 -4 230 -11c21 65 37 144 49 239l-2 1c-31 -95 -67 -143 -110 -143c-63 0 -94 59 -94 143c0 63 15 122 44 178s65 84 107 84c35 0 62 -11 79 -33c1 19 3 33 4 42c51 0 77 -24 77 -71c0 -21 -6 -43 -17 -67
c-9 -39 -19 -102 -29 -189c-11 -88 -20 -151 -28 -190c29 -3 57 -5 84 -6c32 131 57 312 74 543c56 0 87 -31 87 -71c0 -21 -6 -43 -17 -67c-7 -32 -17 -96 -29 -193c-12 -98 -22 -169 -30 -216zM115 -209c-98 13 -185 20 -261 20c-151 0 -238 -52 -238 -112
c0 -52 70 -95 187 -95c143 0 247 62 312 187zM219 268l5 58c-6 12 -20 18 -41 18c-24 0 -47 -26 -69 -78c-22 -53 -33 -101 -33 -144c0 -35 9 -53 27 -53c20 0 41 20 62 59s37 85 49 140zM478 457h-6c-18 0 -63 5 -63 95c0 42 9 65 27 68c2 1 5 1 10 1c17 0 34 -5 53 -16
c18 -11 27 -22 27 -35v-2l-1 -2c-15 -69 -40 -109 -47 -109z" />
    <glyph glyph-name="g_l" unicode="gl" horiz-adv-x="649" 
d="M305 -160h-2c-5 22 -26 39 -65 51c-15 -93 -31 -157 -56 -218s-63 -94 -111 -94c-45 0 -119 35 -173 103c-27 35 -40 71 -40 108s15 69 45 94s66 43 107 53s86 15 134 15c13 0 23 0 30 -1c11 53 21 112 30 177l-3 1c-29 -95 -66 -143 -110 -143c-63 0 -94 59 -94 143
c0 63 15 122 44 178s65 84 107 84c36 0 62 -11 79 -34l4 43c51 0 77 -24 77 -71c0 -21 -6 -43 -17 -67c-11 -53 -20 -120 -32 -212c-6 -47 -11 -82 -14 -107c63 -12 94 -32 94 -61s-28 -42 -34 -42zM298 66h8c17 0 35 4 53 11c-3 17 -4 37 -4 62c0 76 10 159 29 248
s45 165 76 229c31 63 63 95 94 95c43 0 65 -43 65 -130c0 -76 -16 -163 -49 -260s-75 -172 -124 -225c6 -53 25 -79 57 -79c27 0 55 18 85 55c30 36 52 82 67 139c9 0 13 -6 13 -19c0 -5 -1 -9 -2 -13c-13 -71 -39 -128 -78 -173c-39 -46 -79 -68 -120 -68
c-49 0 -83 33 -102 100c-12 -4 -25 -6 -38 -6c-21 0 -32 8 -32 23c0 2 1 6 2 11zM163 -96c-7 1 -16 1 -29 1c-79 0 -137 -15 -176 -44c-38 -29 -57 -63 -57 -102c0 -56 41 -102 94 -102c71 0 127 82 168 247zM221 283l4 41c-5 13 -19 20 -42 20c-24 0 -47 -26 -69 -78
c-22 -53 -33 -101 -33 -144c0 -35 9 -53 27 -53c21 0 43 21 65 64c21 42 37 92 48 150zM445 157c39 57 70 132 93 224c22 91 33 167 33 226c0 29 -3 44 -9 44c-9 0 -23 -28 -40 -83c-18 -56 -35 -124 -50 -203c-15 -80 -24 -149 -27 -208z" />
    <glyph glyph-name="g_p" unicode="gp" horiz-adv-x="700" 
d="M204 128l-3 1c-31 -95 -67 -143 -110 -143c-63 0 -94 59 -94 143c0 63 15 122 44 178s65 84 107 84c37 0 63 -11 79 -34l4 43c51 0 77 -24 77 -71c0 -21 -6 -43 -17 -67c-7 -33 -15 -81 -22 -143s-15 -118 -22 -170c-7 -51 -17 -102 -28 -153
c-24 -102 -67 -163 -130 -163c-15 0 -34 5 -59 16s-37 25 -37 42c0 5 1 9 3 11c48 0 81 18 118 76c36 58 67 174 90 350zM452 281l4 -1c28 63 60 95 96 95c13 0 30 -9 51 -28c20 -19 33 -39 38 -60c3 -13 5 -31 5 -52c3 -109 -62 -258 -152 -256c-33 0 -61 14 -83 43
c-8 -73 -12 -136 -12 -188c0 -53 4 -96 12 -127c-6 -2 -13 -3 -21 -3c-45 0 -88 28 -88 116c0 51 17 155 50 314c33 158 52 273 59 344c0 1 2 2 5 2c13 0 28 -6 44 -17c16 -12 24 -30 24 -53c0 -19 -3 -27 -7 -35c-5 -8 -14 -41 -25 -94zM416 57c14 -16 28 -24 43 -24
c21 0 40 14 57 42c17 27 29 59 37 96c8 36 12 70 12 103c0 40 -7 60 -21 60c-17 0 -36 -18 -58 -55s-41 -80 -57 -130c-1 -5 -3 -19 -6 -40c-3 -22 -6 -39 -7 -52zM225 324c-5 13 -19 20 -42 20c-24 0 -47 -26 -69 -78c-22 -53 -33 -101 -33 -144c0 -35 9 -53 27 -53
c25 0 48 26 70 77s38 111 47 178z" />
    <glyph glyph-name="g_s" unicode="gs" horiz-adv-x="657" 
d="M203 128l-2 1c-31 -95 -67 -143 -110 -143c-63 0 -94 59 -94 143c0 63 15 122 44 178s65 84 107 84c37 0 63 -11 79 -34l4 43c51 0 77 -24 77 -71c0 -21 -6 -43 -17 -67c-9 -39 -19 -105 -30 -196c77 61 133 139 170 235c-13 31 -19 58 -19 81c0 45 27 94 50 114l16 15
c33 -14 49 -35 49 -62c3 -24 -28 -82 -37 -107c13 -33 31 -72 54 -116s37 -74 43 -89c45 42 78 92 99 150c8 0 12 -5 12 -15c0 -17 -10 -44 -30 -80s-44 -69 -71 -98c1 -3 1 -7 1 -12c0 -37 -13 -65 -38 -86c-26 -21 -55 -31 -87 -31c-47 0 -82 23 -82 63c0 12 3 24 8 35
c3 -1 8 -1 15 -1c33 0 65 7 96 22c-2 33 -9 54 -23 89c-5 13 -9 23 -11 28c-3 5 -8 16 -15 31s-12 25 -13 28c-1 0 -1 0 -2 -1c-43 -105 -108 -190 -193 -256c-5 -41 -10 -76 -14 -105c-5 -29 -11 -61 -18 -97s-15 -66 -24 -90c-27 -73 -67 -137 -126 -132
c-60 0 -137 32 -193 94c-27 31 -41 65 -41 101c-5 72 70 115 151 148c27 11 59 25 98 42c38 17 71 33 100 50c7 42 13 80 17 114zM173 -51c-24 -15 -52 -30 -85 -46c-33 -15 -59 -28 -80 -38c-22 -10 -42 -21 -62 -34c-40 -25 -59 -54 -59 -91c0 -49 45 -89 106 -89
c77 0 137 99 180 298zM220 276l5 48c-5 13 -19 20 -42 20c-24 0 -47 -26 -69 -78c-22 -53 -33 -101 -33 -144c0 -35 9 -53 27 -53c21 0 42 20 63 61s38 89 49 146z" />
    <glyph glyph-name="g_y" unicode="gy" horiz-adv-x="697" 
d="M560 200h-3c-45 -129 -92 -193 -141 -193c-47 0 -70 36 -70 107c0 43 7 96 21 157s27 106 39 133h1c9 0 23 -5 41 -16c17 -11 26 -25 26 -42c0 -3 -1 -11 -1 -12c-28 -84 -42 -153 -42 -206c0 -30 7 -45 21 -45c17 0 41 36 70 108c29 71 48 141 57 209
c51 0 77 -24 77 -71c0 -21 -6 -43 -17 -67c-7 -33 -17 -100 -29 -199c-13 -99 -23 -173 -32 -220c153 3 255 30 306 83c2 -9 3 -23 3 -42c0 -109 -73 -163 -219 -163c-38 0 -78 2 -119 5c-29 -92 -68 -138 -116 -138c-45 0 -73 42 -65 78c30 -4 58 19 84 70
c-51 7 -104 16 -170 28c-33 6 -59 11 -78 14c-53 -145 -158 -231 -355 -231c-85 0 -153 17 -204 51c-51 35 -76 75 -76 121c0 49 30 92 91 127c61 36 149 54 264 54c61 0 137 -6 228 -18c22 68 39 150 51 246l-2 1c-31 -95 -67 -143 -110 -143c-63 0 -94 59 -94 143
c0 63 15 122 44 178s65 84 107 84c35 0 62 -11 79 -33c1 19 3 33 4 42c51 0 77 -24 77 -71c0 -21 -6 -43 -17 -67c-9 -39 -19 -103 -30 -193s-21 -156 -30 -199c117 -15 204 -24 263 -26c27 91 49 210 66 356zM115 -208c-90 13 -177 19 -261 19c-151 0 -238 -52 -238 -112
c0 -52 70 -95 187 -95c143 0 247 63 312 188zM219 268l5 58c-6 12 -20 18 -41 18c-24 0 -47 -26 -69 -78c-22 -53 -33 -101 -33 -144c0 -35 9 -53 27 -53c20 0 41 20 62 59s37 85 49 140z" />
    <glyph glyph-name="h_e" unicode="he" horiz-adv-x="651" 
d="M56 -23v-23c-29 -5 -49 4 -57 27c-8 24 -10 43 -10 75c0 57 9 133 30 237c11 51 19 93 26 124s17 77 31 136s22 92 24 101c51 -1 77 -28 77 -81c0 -41 -21 -113 -40 -167c-10 -27 -15 -42 -15 -43c-15 -63 -27 -115 -35 -155l4 -1c23 61 50 113 81 156c30 43 53 64 69 64
c10 0 22 -7 37 -21c15 -15 22 -27 22 -38c-20 -69 -36 -154 -40 -233c-5 -80 12 -139 52 -139c5 0 8 0 10 1c-3 -15 -13 -31 -31 -48s-36 -25 -55 -25c-28 0 -47 19 -57 56c-11 37 -13 82 -8 134c11 104 32 205 52 258c-9 0 -26 -24 -52 -72c-27 -49 -52 -105 -76 -170
c-25 -65 -38 -116 -39 -153zM347 139c-1 1 -7 4 -17 11c-3 1 -5 5 -5 11c0 10 4 16 11 19c7 -5 10 -8 11 -8c2 58 18 112 48 163c29 51 62 76 98 76c21 0 61 -27 64 -27c33 -1 50 -30 50 -73c0 -45 -15 -88 -46 -131s-70 -66 -118 -67c11 -43 35 -64 72 -64
c55 0 115 59 142 162c10 0 14 -5 13 -16c-7 -64 -29 -114 -66 -151s-78 -56 -122 -56c-72 0 -128 52 -135 151zM438 158v-4c32 9 58 33 77 71c19 37 28 73 28 107c0 25 -6 38 -17 38c-16 0 -35 -24 -56 -73s-32 -95 -32 -139z" />
    <glyph glyph-name="h_l" unicode="hl" horiz-adv-x="627" 
d="M375 77v5c-28 -72 -73 -115 -117 -115c-49 0 -85 50 -85 143c0 44 6 91 18 142c11 50 23 90 36 120c-11 0 -28 -18 -52 -55c-25 -37 -48 -82 -70 -135c-23 -53 -36 -99 -39 -136v-29c-3 -1 -8 -2 -15 -2c-37 3 -56 36 -56 101c0 54 19 162 57 323s59 252 63 273
c51 -1 77 -28 77 -81c0 -41 -20 -112 -40 -169l-15 -42c-27 -116 -42 -179 -44 -188c23 55 50 101 82 139c31 37 55 56 70 56c10 0 22 -7 37 -21c15 -15 22 -27 22 -38c-27 -91 -40 -173 -40 -248c0 -42 10 -63 29 -63c28 0 63 38 83 106c-7 5 -11 12 -11 19c0 9 6 17 17 24
c9 82 25 163 46 242s46 145 75 199c29 53 57 80 85 81c42 -1 63 -41 63 -121c0 -81 -18 -168 -53 -261c-35 -94 -77 -155 -125 -183c-1 -17 -2 -40 -2 -71c0 -103 35 -174 95 -175c-3 -16 -13 -32 -31 -48s-36 -24 -54 -24c-69 0 -106 95 -106 232zM478 215
c36 37 66 103 91 197c24 94 36 168 36 222c0 22 -3 33 -10 33c-15 1 -35 -49 -61 -149c-27 -101 -45 -202 -56 -303z" />
    <glyph glyph-name="h_i" unicode="hi" horiz-adv-x="559" 
d="M56 -23v-23c-29 -5 -49 4 -57 27c-8 24 -10 43 -10 75c0 57 9 133 30 237c11 51 19 93 26 124s17 77 31 136s22 92 24 101c51 -1 77 -28 77 -81c0 -41 -21 -113 -40 -167c-10 -27 -15 -42 -15 -43c-15 -63 -27 -115 -35 -155l4 -1c23 61 50 113 81 156c30 43 53 64 69 64
c10 0 22 -7 37 -21c15 -15 22 -27 22 -38c-20 -69 -36 -154 -40 -233c-5 -80 12 -139 52 -139c5 0 8 0 10 1c-3 -15 -13 -31 -31 -48s-36 -25 -55 -25c-28 0 -47 19 -57 56c-11 37 -13 82 -8 134c11 104 32 205 52 258c-9 0 -26 -24 -52 -72c-27 -49 -52 -105 -76 -170
c-25 -65 -38 -116 -39 -153zM554 176l11 35c9 0 13 -4 13 -13c-1 -37 -25 -109 -69 -168c-22 -29 -45 -44 -68 -44c-60 0 -90 47 -90 141c0 59 13 135 29 208c7 37 12 59 13 66c60 -9 77 -27 77 -64c0 -9 -6 -37 -18 -83c-12 -47 -18 -88 -18 -124c0 -41 12 -62 37 -62
c17 0 34 12 50 36c15 24 26 48 33 72zM525 550v-4c-15 -69 -41 -109 -48 -109h-5c-19 0 -64 6 -64 94c0 43 9 66 28 69c2 1 5 1 10 1c17 0 34 -5 52 -16s27 -22 27 -35z" />
    <glyph glyph-name="h_j" unicode="hj" horiz-adv-x="539" 
d="M56 -23v-23c-7 -1 -12 -2 -15 -2c-23 0 -37 12 -44 35s-8 40 -8 69c0 57 9 133 30 237c11 51 19 93 26 124s17 77 31 136s22 92 24 101c51 -1 77 -28 77 -81c0 -41 -21 -113 -40 -167c-10 -27 -15 -42 -15 -43c-15 -63 -27 -115 -35 -155l4 -1c23 61 50 113 81 156
c30 43 53 64 69 64c10 0 22 -7 37 -21c15 -15 22 -27 22 -38l-4 -14c-10 -35 -33 -127 -33 -191c0 -47 9 -70 28 -70c24 0 55 49 84 152c15 51 26 110 33 175c58 0 87 -24 87 -71c0 -21 -6 -43 -17 -67c-7 -29 -14 -76 -22 -141s-16 -127 -24 -186c-8 -58 -18 -116 -31 -175
c-25 -116 -71 -192 -131 -192c-40 0 -67 32 -67 65c0 3 1 8 2 13c1 0 5 -1 6 -1c76 0 134 176 175 527c-35 -123 -81 -185 -124 -185c-47 0 -85 66 -85 151c0 35 5 74 16 117s21 76 30 97c-9 0 -26 -24 -52 -72c-27 -49 -52 -105 -76 -170c-25 -65 -38 -116 -39 -153z
M494 457h-6c-18 0 -63 5 -63 95c0 42 9 65 27 68c2 1 5 1 10 1c17 0 34 -5 53 -16c18 -11 27 -22 27 -35v-2l-1 -2c-15 -69 -40 -109 -47 -109z" />
    <glyph glyph-name="h_m" unicode="hm" horiz-adv-x="968" 
d="M654 161h4c18 53 44 103 77 150s59 70 78 70c10 0 22 -7 36 -22s21 -27 21 -38c0 -2 -4 -26 -13 -72c-9 -47 -14 -84 -14 -111c0 -49 12 -74 37 -74c17 0 34 10 49 31c15 20 26 40 33 61l11 31c9 0 13 -4 13 -13c0 -31 -13 -71 -40 -119c-27 -49 -57 -73 -91 -73
c-65 0 -98 49 -98 146c0 35 4 72 12 110s16 67 25 86l-2 1c-17 -4 -43 -44 -79 -119c-36 -76 -54 -135 -54 -177c0 -5 -5 -7 -16 -7c-51 0 -76 27 -76 81c0 28 4 60 13 107c4 23 7 41 10 54c3 12 7 32 14 60c6 27 9 42 10 45l-2 1c-10 -8 -48 -51 -87 -139
c-25 -56 -55 -148 -74 -248c-6 -3 -13 -5 -21 -5c-28 0 -50 24 -50 68c4 35 9 72 16 117c3 23 6 40 8 53l-4 1c-16 -61 -38 -110 -66 -146c-29 -36 -55 -54 -78 -54c-47 0 -79 49 -79 140c0 35 5 74 16 117c10 43 20 74 29 95l-2 1c-11 -7 -30 -32 -55 -76
c-25 -45 -50 -100 -73 -166c-24 -67 -36 -125 -36 -174c-7 -1 -12 -2 -15 -2c-23 0 -37 12 -44 35s-8 40 -8 69c0 57 9 133 30 237c11 51 19 93 26 124s17 77 31 136s22 92 24 101c51 -1 77 -28 77 -81c0 -41 -21 -113 -40 -167c-10 -27 -15 -42 -15 -43
c-15 -63 -27 -115 -35 -155l3 -1c21 54 48 104 79 151c31 46 55 69 72 69c10 0 22 -7 37 -21c15 -15 22 -27 22 -38c0 4 -37 -133 -37 -203c0 -47 8 -70 23 -70c20 0 44 35 73 104c28 69 46 143 55 223c4 1 12 1 24 1c39 0 59 -27 59 -81c0 -27 -4 -67 -13 -119h3
c25 60 52 110 81 151c29 40 53 60 74 60c28 0 48 -25 48 -66c0 -5 -1 -14 -2 -29c-4 -24 -10 -56 -18 -95s-13 -67 -16 -83z" />
    <glyph glyph-name="h_n" unicode="hn" horiz-adv-x="778" 
d="M609 339l-2 1c-19 -8 -49 -58 -92 -150s-64 -161 -65 -207c-6 -3 -13 -5 -21 -5c-28 0 -50 21 -50 68c0 13 6 53 18 120c5 33 10 63 13 88h-2c-39 -145 -96 -237 -152 -237c-47 0 -79 49 -79 140c0 35 5 74 16 117c10 43 20 74 29 95l-2 1c-11 -7 -29 -32 -54 -77
s-50 -100 -73 -166c-24 -66 -36 -124 -37 -173c-7 -1 -12 -2 -15 -2c-23 0 -37 12 -44 35s-8 40 -8 69c0 57 9 133 30 237c11 51 19 93 26 124s17 77 31 136s22 92 24 101c51 -1 77 -28 77 -81c0 -41 -21 -113 -40 -167c-10 -27 -15 -42 -15 -43c-15 -63 -27 -115 -35 -155
l3 -1c21 54 48 104 79 151c31 46 55 69 72 69c10 0 22 -7 37 -21c15 -15 22 -27 22 -38c0 4 -37 -133 -37 -203c0 -46 7 -69 22 -69c20 0 45 35 75 105c29 69 49 143 60 221c8 1 14 2 18 2c40 0 60 -26 60 -78c0 -41 -8 -94 -24 -157c1 -1 4 -1 7 -1c23 56 49 105 79 147
c29 41 52 62 67 62c11 0 23 -7 38 -22s22 -27 22 -38l-4 -14c-10 -36 -34 -125 -34 -190c0 -46 12 -69 37 -69c17 0 34 10 49 31c15 20 26 40 33 61l11 31c9 0 13 -4 13 -13c0 -31 -13 -71 -40 -119c-27 -49 -57 -73 -91 -73c-65 0 -98 49 -98 146c0 35 5 73 16 116
c10 42 20 74 30 95z" />
    <glyph glyph-name="h_o" unicode="ho" horiz-adv-x="718" 
d="M612 115c-31 -83 -86 -139 -155 -139c-80 0 -120 66 -120 158c-3 118 74 284 179 282c53 0 85 -26 97 -78c8 -1 14 -3 19 -4c5 -21 7 -44 7 -71c0 -32 -4 -66 -13 -103c2 -1 6 -2 12 -2c19 0 38 10 57 31c18 20 31 40 40 61l13 30c5 0 7 -3 7 -10
c-15 -105 -72 -156 -132 -156c-5 0 -9 0 -11 1zM576 129c-23 19 -34 50 -34 93c0 45 15 89 39 108c-3 28 -14 42 -32 42c-58 4 -124 -146 -121 -236c0 -56 19 -93 55 -93c35 0 66 29 93 86zM56 -23v-23c-29 -5 -49 4 -57 27c-8 24 -10 43 -10 75c0 57 9 133 30 237
c11 51 19 93 26 124s17 77 31 136s22 92 24 101c51 -1 77 -28 77 -81c0 -41 -21 -113 -40 -167c-10 -27 -15 -42 -15 -43c-15 -63 -27 -115 -35 -155l4 -1c23 61 50 113 81 156c30 43 53 64 69 64c10 0 22 -7 37 -21c15 -15 22 -27 22 -38c-20 -69 -36 -154 -40 -233
c-5 -80 12 -139 52 -139c5 0 8 0 10 1c-3 -15 -13 -31 -31 -48s-36 -25 -55 -25c-28 0 -47 19 -57 56c-11 37 -13 82 -8 134c11 104 32 205 52 258c-9 0 -26 -24 -52 -72c-27 -49 -52 -105 -76 -170c-25 -65 -38 -116 -39 -153z" />
    <glyph glyph-name="h_r" unicode="hr" horiz-adv-x="707" 
d="M56 -23v-23c-7 -1 -12 -2 -15 -2c-23 0 -37 12 -44 35s-8 40 -8 69c0 57 9 133 30 237c11 51 19 93 26 124s17 77 31 136s22 92 24 101c51 -1 77 -28 77 -81c0 -41 -21 -113 -40 -167c-10 -27 -15 -42 -15 -43c-15 -63 -27 -115 -35 -155l4 -1c23 61 50 113 81 156
c30 43 53 64 69 64c10 0 22 -7 37 -21c15 -15 22 -27 22 -38c-25 -89 -38 -160 -38 -213c0 -38 9 -57 26 -57c40 0 87 80 128 272c-28 19 -49 50 -49 77c0 43 26 83 59 83c15 0 30 -6 47 -18c-8 -42 -14 -75 -18 -100v-1l-3 -17c20 -7 66 -18 89 -25c11 -4 24 -8 37 -13
c26 -9 37 -19 37 -30c0 -3 -33 -114 -33 -194c0 -47 11 -70 34 -70c17 0 34 10 50 31s28 42 36 63l11 31c9 0 13 -4 13 -13c0 -31 -14 -72 -42 -121s-59 -74 -94 -74c-65 0 -98 48 -98 144c0 74 13 142 39 205c-23 9 -51 19 -84 30c-40 -240 -116 -345 -189 -345
c-53 0 -80 46 -80 139c0 37 4 77 13 118s19 74 31 100c-1 1 -1 1 -2 1c-10 0 -28 -25 -54 -75c-26 -51 -50 -108 -73 -172c-23 -65 -36 -114 -37 -147z" />
    <glyph glyph-name="i_i" unicode="ii" horiz-adv-x="414" 
d="M207 122c-28 -75 -71 -136 -118 -136c-60 0 -90 47 -90 141c0 59 13 135 29 208c7 37 12 59 13 66c60 -9 77 -27 77 -64c0 -9 -6 -37 -18 -83c-12 -47 -18 -88 -18 -124c0 -41 12 -62 37 -62c17 0 34 12 50 36c15 24 26 48 33 72l11 35c4 30 11 68 21 114
c9 46 14 71 15 76c60 -9 77 -27 77 -64c0 -9 -6 -37 -18 -83c-12 -47 -18 -88 -18 -124c0 -41 12 -62 37 -62c17 0 34 12 50 36c15 24 26 48 33 72l11 35c9 0 13 -4 13 -13c-1 -37 -25 -109 -69 -168c-22 -29 -45 -44 -68 -44c-59 0 -89 45 -90 136zM385 563v-4
c-15 -69 -41 -109 -48 -109h-5c-19 0 -64 6 -64 94c0 43 9 66 28 69c2 1 5 1 10 1c17 0 34 -5 52 -16s27 -22 27 -35zM173 550v-4c-15 -69 -41 -109 -48 -109h-5c-19 0 -64 6 -64 94c0 43 9 66 28 69c2 1 5 1 10 1c17 0 34 -5 52 -16s27 -22 27 -35z" />
    <glyph glyph-name="i_l" unicode="il" horiz-adv-x="445" 
d="M193 77v12c-33 -69 -67 -103 -104 -103c-60 0 -90 47 -90 141c0 59 13 135 29 208c7 37 12 59 13 66c60 -9 77 -27 77 -64c0 -9 -6 -37 -18 -83c-12 -47 -18 -88 -18 -124c0 -41 12 -62 37 -62c28 0 54 30 77 90v3c-9 6 -13 13 -13 21c0 9 6 17 17 24c9 82 25 163 46 242
s46 145 75 199c29 53 57 80 85 81c42 -1 63 -41 63 -121c0 -81 -18 -168 -53 -261c-35 -94 -77 -155 -125 -183c-1 -17 -2 -40 -2 -71c0 -103 35 -174 95 -175c-3 -16 -13 -32 -31 -48s-36 -24 -54 -24c-69 0 -106 95 -106 232zM296 215c36 37 66 103 91 197
c24 94 36 168 36 222c0 22 -3 33 -10 33c-15 1 -35 -49 -61 -149c-27 -101 -45 -202 -56 -303zM173 546c-15 -68 -42 -107 -48 -109c-9 -1 -68 -7 -69 94c0 47 13 70 38 70c18 0 36 -6 53 -17c17 -12 26 -25 26 -38z" />
    <glyph glyph-name="i_m" unicode="im" horiz-adv-x="799" 
d="M485 161h4c18 53 44 103 77 150s59 70 78 70c10 0 22 -7 36 -22s21 -27 21 -38c0 -2 -4 -26 -13 -72c-9 -47 -14 -84 -14 -111c0 -49 12 -74 37 -74c17 0 34 10 49 31c15 20 27 40 34 61l10 31c9 0 13 -4 13 -13c0 -31 -13 -71 -40 -119c-27 -49 -57 -73 -91 -73
c-65 0 -98 49 -98 146c0 35 4 72 12 110s16 67 25 86l-2 1c-17 -4 -43 -44 -79 -119c-36 -76 -54 -135 -54 -177c0 -5 -5 -7 -16 -7c-51 0 -76 27 -76 81c0 28 4 60 13 107c4 23 7 41 10 54c3 12 7 32 14 60c6 27 9 42 10 45l-2 1c-11 -7 -47 -53 -88 -140
c-25 -55 -54 -147 -73 -247c-6 -3 -13 -5 -21 -5c-28 0 -50 24 -50 68c0 15 12 87 35 216h-1c-1 1 -1 1 -2 1c-24 -79 -39 -124 -66 -185c-28 -61 -57 -93 -88 -93c-60 0 -90 47 -90 141c0 59 13 135 29 208c7 37 12 59 13 66c60 -9 77 -27 77 -64c0 -9 -6 -37 -18 -83
c-12 -47 -18 -88 -18 -124c0 -44 7 -66 20 -66c23 0 52 43 92 155c20 56 39 124 57 204c4 1 10 1 18 1c42 0 62 -31 59 -93c-2 -33 -6 -68 -13 -107h3c25 60 52 110 81 151c29 40 53 60 74 60c28 0 48 -25 48 -66c0 -5 -1 -14 -2 -29c-4 -25 -10 -56 -18 -95
s-13 -67 -16 -83zM173 549v-4c-15 -69 -41 -109 -48 -109h-5c-19 0 -64 6 -64 94c0 43 9 66 28 69c2 1 5 1 10 1c17 0 34 -5 52 -16s27 -22 27 -35z" />
    <glyph glyph-name="i_n" unicode="in" horiz-adv-x="610" 
d="M307 183h4c23 57 49 107 79 150s53 64 69 64c11 0 23 -7 38 -22s22 -27 22 -38l-4 -14c-10 -36 -34 -125 -34 -190c0 -46 12 -69 37 -69c17 0 34 10 49 31c15 20 26 40 33 61l11 31c9 0 13 -4 13 -13c0 -31 -13 -71 -40 -119c-27 -49 -57 -73 -91 -73
c-65 0 -98 49 -98 146c0 35 5 74 16 117s21 75 31 96c-9 0 -27 -22 -52 -67c-26 -45 -50 -97 -73 -156s-35 -104 -35 -135c-6 -3 -13 -5 -21 -5c-28 0 -50 24 -50 68c0 15 12 87 35 216h-1c-1 1 -1 1 -2 1c-24 -79 -39 -124 -66 -185c-28 -61 -57 -93 -88 -93
c-60 0 -90 47 -90 141c0 59 13 135 29 208c7 37 12 59 13 66c60 -9 77 -27 77 -64c0 -9 -6 -37 -18 -83c-12 -47 -18 -88 -18 -124c0 -44 7 -66 20 -66c23 0 53 41 93 154c19 56 38 124 56 205c4 1 10 1 18 1c43 0 60 -22 60 -89c0 -26 -7 -76 -22 -151zM173 549v-4
c-15 -69 -41 -109 -48 -109h-5c-19 0 -64 6 -64 94c0 43 9 66 28 69c2 1 5 1 10 1c17 0 34 -5 52 -16s27 -22 27 -35z" />
    <glyph glyph-name="iacute_n" unicode="&#xed;n" horiz-adv-x="610" 
d="M307 183h4c23 57 49 107 79 150s53 64 69 64c11 0 23 -7 38 -22s22 -27 22 -38l-4 -14c-10 -36 -34 -125 -34 -190c0 -46 12 -69 37 -69c17 0 34 10 49 31c15 20 26 40 33 61l11 31c9 0 13 -4 13 -13c0 -31 -13 -71 -40 -119c-27 -49 -57 -73 -91 -73
c-65 0 -98 49 -98 146c0 35 5 74 16 117s21 75 31 96c-9 0 -27 -22 -52 -67c-26 -45 -50 -97 -73 -156s-35 -104 -35 -135c-6 -3 -13 -5 -21 -5c-28 0 -50 24 -50 68c0 15 12 87 35 216h-1c-1 1 -1 1 -2 1c-24 -79 -39 -124 -66 -185c-28 -61 -57 -93 -88 -93
c-60 0 -90 47 -90 141c0 59 13 135 29 208c7 37 12 59 13 66c60 -9 77 -27 77 -64c0 -9 -6 -37 -18 -83c-12 -47 -18 -88 -18 -124c0 -44 7 -66 20 -66c23 0 53 41 93 154c19 56 38 124 56 205c4 1 10 1 18 1c43 0 60 -22 60 -89c0 -26 -7 -76 -22 -151zM79 453
c3 21 17 49 41 84c23 35 45 52 65 52c15 0 31 -9 50 -28c-63 -76 -109 -114 -138 -114c-7 0 -13 2 -18 6z" />
    <glyph glyph-name="i_ntilde" unicode="i&#xf1;" horiz-adv-x="610" 
d="M307 183h4c23 57 49 107 79 150s53 64 69 64c11 0 23 -7 38 -22s22 -27 22 -38l-4 -14c-10 -36 -34 -125 -34 -190c0 -46 12 -69 37 -69c17 0 34 10 49 31c15 20 26 40 33 61l11 31c9 0 13 -4 13 -13c0 -31 -13 -71 -40 -119c-27 -49 -57 -73 -91 -73
c-65 0 -98 49 -98 146c0 35 5 74 16 117s21 75 31 96c-9 0 -27 -22 -52 -67c-26 -45 -50 -97 -73 -156s-35 -104 -35 -135c-6 -3 -13 -5 -21 -5c-28 0 -50 24 -50 68c0 15 12 87 35 216h-1c-1 1 -1 1 -2 1c-24 -79 -39 -124 -66 -185c-28 -61 -57 -93 -88 -93
c-60 0 -90 47 -90 141c0 59 13 135 29 208c7 37 12 59 13 66c60 -9 77 -27 77 -64c0 -9 -6 -37 -18 -83c-12 -47 -18 -88 -18 -124c0 -44 7 -66 20 -66c23 0 53 41 93 154c19 56 38 124 56 205c4 1 10 1 18 1c43 0 60 -22 60 -89c0 -26 -7 -76 -22 -151zM173 549v-4
c-15 -69 -41 -109 -48 -109h-5c-19 0 -64 6 -64 94c0 43 9 66 28 69c2 1 5 1 10 1c17 0 34 -5 52 -16s27 -22 27 -35zM515 534c7 0 14 -16 14 -35c0 -28 -19 -52 -66 -52c-12 0 -32 2 -59 7s-47 7 -58 7c-21 0 -37 -6 -46 -17c-8 0 -15 16 -15 35c0 28 19 52 66 52
c11 0 31 -2 58 -7s47 -7 59 -7c23 0 38 6 47 17z" />
    <glyph glyph-name="i_r" unicode="ir" horiz-adv-x="546" 
d="M284 359h-2c-40 -264 -113 -373 -193 -373c-60 0 -90 47 -90 141c0 59 13 135 29 208c7 37 12 59 13 66c60 -9 77 -27 77 -64c0 -9 -6 -37 -18 -83c-12 -47 -18 -88 -18 -124c0 -41 12 -62 37 -62c24 0 48 32 73 95s44 134 57 212c-29 20 -43 44 -43 72c0 43 26 83 59 83
c15 0 30 -6 47 -18l-21 -118c21 -7 70 -19 94 -26c11 -4 23 -8 36 -13c25 -10 36 -21 32 -33c-5 -16 -17 -67 -28 -134c-11 -68 -3 -126 30 -126c17 0 34 10 50 31s28 42 35 63l12 31c9 0 13 -4 13 -13c0 -31 -14 -72 -42 -121s-59 -74 -94 -74c-65 0 -98 48 -98 144
c0 74 13 142 39 205c-22 9 -51 19 -86 31zM173 550v-4c-15 -69 -41 -109 -48 -109h-5c-19 0 -64 6 -64 94c0 43 9 66 28 69c2 1 5 1 10 1c17 0 34 -5 52 -16s27 -22 27 -35z" />
    <glyph glyph-name="i_s" unicode="is" horiz-adv-x="484" 
d="M268 276h-1c-23 -96 -56 -183 -104 -244c-25 -31 -49 -46 -74 -46c-60 0 -90 47 -90 141c0 59 13 135 29 208c7 37 12 59 13 66c60 -9 77 -27 77 -64c0 -9 -6 -37 -18 -83c-12 -47 -18 -88 -18 -124c0 -41 12 -62 37 -62c48 0 91 85 130 256c-7 23 -10 43 -10 58
c0 45 28 94 49 114l17 15c33 -14 49 -35 49 -62c3 -24 -28 -82 -37 -107c13 -33 31 -72 54 -116s37 -74 43 -89c45 42 78 92 99 150c8 0 12 -5 12 -15c0 -17 -10 -44 -30 -80s-44 -69 -71 -98c1 -3 1 -7 1 -12c0 -37 -13 -65 -38 -86c-26 -21 -55 -31 -87 -31
c-47 0 -82 23 -82 63c0 12 3 24 8 35c3 -1 8 -1 15 -1c33 0 65 7 96 22c-1 29 -15 71 -25 95c-5 12 -13 29 -23 52c-11 22 -18 37 -21 45zM173 546c-15 -69 -41 -109 -48 -109h-5c-19 0 -64 6 -64 94c0 43 9 66 28 69c2 1 5 1 10 1c18 0 36 -6 53 -17c17 -12 26 -25 26 -38z
" />
    <glyph glyph-name="i_x" unicode="ix" horiz-adv-x="562" 
d="M299 65c-57 -74 -89 -128 -94 -162l-3 1c-8 4 -34 19 -34 50c0 24 30 69 56 101c13 15 30 36 53 61c-15 45 -29 98 -42 159c-19 -183 -79 -289 -146 -289c-60 0 -90 47 -90 141c0 59 13 135 29 208c7 37 12 59 13 66c60 -9 77 -27 77 -64c0 -9 -6 -37 -18 -83
c-12 -47 -18 -88 -18 -124c0 -41 12 -62 37 -62s47 32 65 95s29 137 34 221l-1 8c63 -1 83 -14 95 -61c18 -79 29 -124 33 -137c33 42 67 89 102 142c35 52 54 83 56 94c2 -1 27 -23 27 -52c0 -21 -26 -63 -63 -108c-12 -16 -36 -45 -49 -61s-41 -49 -54 -65
c20 -44 47 -66 82 -66c86 0 116 104 121 128l1 5c9 -1 13 -7 13 -19c0 -48 -27 -119 -86 -174c-29 -28 -62 -42 -97 -42c-36 0 -69 30 -99 89zM173 546c-15 -69 -41 -109 -48 -109h-5c-19 0 -64 6 -64 94c0 43 9 66 28 69c2 1 5 1 10 1c18 0 36 -6 53 -17
c17 -12 26 -25 26 -38z" />
    <glyph glyph-name="i_z" unicode="i&#x7a;" horiz-adv-x="575" 
d="M267 44c-11 -12 -36 -38 -45 -49c-9 0 -23 26 -23 42c0 41 38 76 82 76c16 16 45 44 87 84c41 39 71 69 90 88c-87 -13 -151 -8 -192 15c-41 -203 -104 -315 -175 -315c-61 0 -92 47 -92 142c0 59 13 135 29 208c7 37 12 59 13 66c60 -9 77 -27 77 -64
c0 -9 -6 -37 -18 -83c-12 -47 -18 -88 -18 -124c0 -42 12 -63 37 -63c46 0 87 84 124 252c-9 11 -13 23 -13 37c0 31 25 60 50 60c3 0 7 -1 12 -2c-1 -11 -3 -24 -4 -39c33 -9 85 -14 154 -14c40 0 70 2 90 6c2 -7 3 -14 3 -22c0 -29 -5 -44 -16 -47l-197 -198
c73 -32 127 -48 162 -48c25 0 42 9 52 28c4 -3 6 -10 6 -21c0 -21 -6 -42 -19 -64c-13 -21 -30 -31 -52 -31c-29 0 -69 13 -119 39c-50 25 -78 39 -85 41zM173 550v-4c-15 -69 -41 -109 -48 -109h-5c-19 0 -64 6 -64 94c0 43 9 66 28 69c2 1 5 1 10 1c17 0 34 -5 52 -16
s27 -22 27 -35z" />
    <glyph glyph-name="j_f" unicode="jf" horiz-adv-x="437" 
d="M186 321c-29 9 -44 22 -44 38c0 2 1 4 4 5c15 4 33 8 54 13c39 143 74 242 106 298c13 23 34 35 62 35c9 0 20 -2 31 -7c-29 -34 -65 -138 -107 -313c5 0 20 1 27 1c109 0 118 -60 118 -76c0 -7 -40 -10 -120 -10c-17 0 -29 0 -37 1c28 -35 49 -80 63 -136
c13 -56 20 -110 20 -162c0 -79 -13 -146 -40 -200c-27 -53 -55 -80 -84 -80c-25 0 -51 19 -76 56c-25 38 -38 80 -38 127c0 111 20 247 61 410zM25 420c58 0 87 -24 87 -71c0 -21 -6 -43 -17 -67c-8 -37 -16 -91 -25 -161c-9 -71 -17 -134 -25 -191
c-9 -56 -20 -113 -33 -170c-27 -114 -75 -181 -140 -181c-45 0 -119 35 -173 103c-27 35 -40 71 -40 108c0 49 21 89 63 121c43 33 88 49 136 49c55 0 80 -19 80 -42c0 -5 -1 -9 -3 -13c-14 3 -30 4 -47 4c-53 0 -98 -15 -133 -45s-53 -65 -53 -105c0 -55 40 -102 93 -102
c51 0 93 44 134 154s75 318 96 609zM267 278c-32 -153 -48 -272 -48 -355c0 -61 10 -92 30 -92c36 0 69 70 69 186c0 108 -17 195 -51 261zM158 571v-5c-15 -69 -40 -109 -47 -109h-5c-20 0 -65 5 -65 96c0 41 9 64 28 67c2 1 5 1 10 1c17 0 34 -5 52 -15
c18 -11 27 -22 27 -35z" />
    <glyph glyph-name="j_g" unicode="jg" horiz-adv-x="501" 
d="M355 128l-2 1c-31 -95 -67 -143 -110 -143c-63 0 -94 59 -94 143c0 63 15 122 44 178s65 84 107 84c36 0 62 -12 79 -35l4 44c51 0 77 -24 77 -71c0 -21 -6 -43 -17 -67c-7 -33 -17 -100 -29 -199c-13 -99 -23 -173 -32 -220c153 3 255 30 306 83c2 -9 3 -23 3 -42
c0 -109 -73 -163 -219 -163c-38 0 -78 2 -119 5c-29 -92 -68 -138 -116 -138c-40 0 -67 32 -67 65c0 3 1 8 2 13c1 0 5 -1 6 -1c28 0 54 24 78 71c-19 3 -104 17 -255 43c-55 -145 -159 -232 -351 -232c-85 0 -153 17 -204 51c-51 35 -76 75 -76 121c0 49 30 92 91 127
c61 36 149 54 264 54c64 0 137 -6 218 -17c18 49 27 93 37 152c9 47 12 58 18 110c3 25 5 43 7 55c1 12 3 31 6 58c2 27 4 45 5 54s2 27 5 56c2 29 3 46 4 52c58 0 87 -24 87 -71c0 -21 -6 -43 -17 -67c-9 -38 -20 -105 -33 -201c-13 -97 -24 -167 -34 -210
c106 -15 196 -24 270 -27c22 75 41 170 57 284zM-94 -206c-85 11 -169 17 -251 17c-151 0 -238 -52 -238 -112c0 -52 70 -95 187 -95c136 0 237 63 302 190zM372 276l5 48c-5 13 -19 20 -42 20c-24 0 -47 -26 -69 -78c-22 -53 -33 -101 -33 -144c0 -35 9 -53 27 -53
c21 0 42 20 63 61s38 89 49 146zM158 571v-5c-15 -69 -40 -109 -47 -109h-5c-20 0 -65 5 -65 96c0 41 9 64 28 67c2 1 5 1 10 1c17 0 34 -5 52 -15c18 -11 27 -22 27 -35z" />
    <glyph glyph-name="j_l" unicode="jl" horiz-adv-x="452" 
d="M97 -160h-2c-5 21 -25 38 -61 50c-16 -92 -33 -157 -60 -218c-27 -60 -64 -93 -111 -93c-45 0 -119 35 -173 103c-27 35 -40 71 -40 108s15 69 45 94s65 43 106 53s86 15 134 15c13 0 23 0 29 -1c27 119 47 276 61 469c67 -1 87 -28 87 -71c0 -23 -6 -46 -17 -67
c-8 -36 -18 -97 -29 -182c-12 -86 -20 -139 -23 -158c59 -13 88 -33 88 -60c0 -29 -28 -42 -34 -42zM101 66h8c17 0 35 4 53 11c-3 17 -4 37 -4 62c0 76 10 159 29 248s45 165 76 229c31 63 63 95 94 95c43 0 65 -43 65 -130c0 -76 -16 -163 -49 -260s-75 -172 -124 -225
c6 -53 25 -79 57 -79c27 0 55 18 85 55c30 36 52 82 67 139c9 0 13 -6 13 -19c0 -5 -1 -9 -2 -13c-13 -71 -39 -128 -78 -173c-39 -46 -79 -68 -120 -68c-49 0 -83 33 -102 100c-12 -4 -25 -6 -38 -6c-21 0 -32 8 -32 23c0 2 1 6 2 11zM-47 -95h-27c-79 0 -137 -15 -176 -44
c-38 -29 -57 -63 -57 -102c0 -55 40 -102 93 -102c69 0 124 83 167 248zM248 157c39 57 70 132 93 224c22 91 33 167 33 226c0 29 -3 44 -9 44c-9 0 -23 -28 -40 -83c-18 -56 -35 -124 -50 -203c-15 -80 -24 -149 -27 -208zM48 504c-7 13 -9 35 -6 66s12 47 27 50
c17 4 37 0 60 -13s32 -26 29 -41c-15 -69 -40 -109 -47 -109h-7c-16 0 -42 5 -56 47z" />
    <glyph glyph-name="j_s" unicode="js" horiz-adv-x="460" 
d="M97 -160h-2c-5 21 -25 38 -61 50c-16 -92 -33 -157 -60 -218c-27 -60 -64 -93 -111 -93c-45 0 -119 35 -173 103c-27 35 -40 71 -40 108s15 69 45 94s65 43 106 53s86 15 134 15c13 0 23 0 29 -1c27 119 47 276 61 469c67 -1 87 -28 87 -71c0 -23 -6 -46 -17 -67
c-8 -36 -18 -97 -29 -182c-12 -86 -20 -139 -23 -158c59 -13 88 -33 88 -60c0 -29 -28 -42 -34 -42zM253 256c-1 0 -1 0 -2 -1c-19 -71 -41 -137 -80 -196c-19 -30 -38 -45 -57 -45c-20 0 -33 9 -40 26c20 5 47 33 81 84c33 50 60 108 80 174c-27 67 -25 107 -3 151
c11 21 21 37 32 47l17 15c54 -19 53 -64 43 -94c-4 -16 -27 -65 -31 -75c13 -33 31 -72 54 -116s37 -74 43 -89c45 42 78 92 99 150c8 0 12 -5 12 -15c0 -17 -10 -44 -30 -80s-44 -69 -71 -98c1 -3 1 -7 1 -12c0 -37 -13 -65 -38 -86c-26 -21 -55 -31 -87 -31
c-47 0 -82 23 -82 63c0 12 3 24 8 35c3 -1 8 -1 15 -1c33 0 65 7 96 22c-2 17 -7 40 -11 57c-3 10 -11 30 -14 38c-4 8 -14 34 -17 39s-17 34 -18 38zM-47 -95h-27c-79 0 -137 -15 -176 -44c-38 -29 -57 -63 -57 -102c0 -55 40 -102 93 -102c69 0 124 83 167 248zM158 571
v-5c-15 -69 -40 -109 -47 -109h-5c-20 0 -65 5 -65 96c0 41 9 64 28 67c2 1 5 1 10 1c17 0 34 -5 52 -15c18 -11 27 -22 27 -35z" />
    <glyph glyph-name="j_y" unicode="jy" horiz-adv-x="502" 
d="M365 200h-3c-46 -129 -93 -193 -142 -193c-47 0 -70 36 -70 107c0 43 7 96 22 158c14 62 27 106 39 132c9 0 23 -5 41 -16c17 -11 26 -25 26 -42c0 -3 -1 -11 -1 -12c-28 -84 -42 -153 -42 -206c0 -30 7 -45 21 -45c15 0 36 29 63 88c26 58 47 126 63 204c0 6 1 14 2 25
c51 0 77 -24 77 -71c0 -21 -6 -43 -17 -67c-7 -33 -17 -100 -29 -199c-13 -99 -23 -173 -32 -220c153 3 254 30 305 83c2 -9 3 -23 3 -42c0 -109 -73 -163 -219 -163c-37 0 -77 2 -118 5c-29 -92 -68 -138 -116 -138c-40 0 -67 32 -67 65c0 3 1 8 2 13c1 0 5 -1 6 -1
c28 0 54 24 78 71c-9 1 -95 16 -258 44c-57 -147 -160 -233 -349 -233c-85 0 -153 17 -204 51c-51 35 -76 75 -76 121c0 49 30 92 91 127c61 36 149 54 264 54c63 0 135 -6 216 -17c16 46 30 101 41 165c11 63 19 117 24 160s10 102 16 176c1 16 2 28 3 36
c58 0 87 -24 87 -71c0 -21 -6 -43 -17 -67c-9 -39 -20 -105 -32 -199c-13 -95 -25 -165 -36 -212c107 -15 198 -24 272 -27c27 91 49 210 66 356zM-96 -206c-85 11 -168 17 -249 17c-151 0 -238 -52 -238 -112c0 -52 70 -95 187 -95c133 0 233 63 300 190zM158 571v-5
c-15 -69 -40 -109 -47 -109h-5c-20 0 -65 5 -65 96c0 41 9 64 28 67c2 1 5 1 10 1c17 0 34 -5 52 -15c18 -11 27 -22 27 -35z" />
    <glyph glyph-name="k_l" unicode="kl" horiz-adv-x="597" 
d="M345 77v25c-35 -74 -81 -111 -137 -111c-34 0 -62 17 -84 52c-23 34 -36 73 -39 118c-19 -61 -29 -130 -29 -207c-59 -7 -69 43 -67 102c0 35 5 84 15 146s19 114 28 155s23 103 42 185c19 81 29 125 30 132c53 -1 78 -33 78 -81c4 -56 -51 -175 -50 -178
c-14 -59 -25 -110 -33 -152l3 -1c39 97 87 146 142 146c48 0 72 -21 72 -62c0 -69 -71 -130 -162 -165c9 -64 46 -107 89 -107c36 0 73 32 98 93c-4 5 -6 10 -6 15c0 9 6 17 17 24c9 82 25 163 46 242s46 145 75 199c29 53 57 80 85 81c42 -1 63 -41 63 -121
c0 -81 -18 -168 -53 -261c-35 -94 -77 -155 -125 -183c-1 -17 -2 -40 -2 -71c0 -103 35 -174 95 -175c-3 -16 -13 -32 -31 -48s-36 -24 -54 -24c-69 0 -106 95 -106 232zM448 215c36 37 66 103 91 197c24 94 36 168 36 222c0 22 -3 33 -10 33c-15 1 -35 -49 -61 -149
c-27 -101 -45 -202 -56 -303zM94 190c37 7 71 23 101 47c29 24 44 46 44 67c0 13 -14 21 -25 21c-33 0 -85 -43 -120 -135z" />
    <glyph glyph-name="k_k" unicode="kk" horiz-adv-x="696" 
d="M454 192h1c35 9 66 26 93 49s40 44 40 63c0 13 -14 21 -25 21c-19 0 -43 -14 -71 -46s-57 -96 -73 -177c-9 -60 -14 -109 -14 -148c-7 -1 -12 -2 -15 -2c-35 0 -47 33 -50 67c-2 20 -2 55 -1 71c-29 -57 -76 -99 -131 -99c-34 0 -62 17 -84 52c-23 34 -36 73 -39 118
c-9 -28 -16 -61 -21 -99c-5 -43 -8 -79 -8 -108c-7 -1 -12 -2 -15 -2c-23 0 -37 12 -44 35s-8 40 -8 69c0 35 5 84 15 146s19 113 28 153c8 40 22 102 41 186c19 83 30 128 31 133c52 -2 78 -29 78 -80c4 -60 -51 -177 -50 -179c-9 -37 -21 -88 -34 -151l4 -2
c41 97 88 146 142 146c48 0 72 -21 72 -62c0 -69 -71 -130 -162 -165c18 -135 153 -154 198 18c7 40 16 87 27 141s20 100 29 138c9 37 20 84 33 140s21 91 24 104c52 -2 78 -29 78 -80c4 -60 -51 -177 -50 -179c-17 -74 -32 -141 -44 -200l2 -1c41 97 88 146 142 146
c48 0 72 -21 72 -62c0 -35 -16 -66 -47 -95c-32 -29 -70 -53 -115 -70c9 -65 46 -107 89 -107c44 0 89 46 113 137c9 -2 13 -7 13 -16c0 -48 -24 -115 -75 -166c-26 -25 -55 -38 -86 -38c-32 0 -58 16 -77 47s-29 68 -29 112c0 14 1 28 3 42zM94 189c37 8 71 24 101 48
c29 24 44 46 44 67c0 13 -14 21 -25 21c-33 0 -85 -44 -120 -136z" />
    <glyph glyph-name="k_m" unicode="km" horiz-adv-x="958" 
d="M784 323l-1 1c-17 -5 -43 -45 -79 -119c-37 -74 -55 -133 -55 -176c0 -5 -5 -7 -16 -7c-51 0 -76 27 -76 81c0 28 4 60 13 107c4 23 7 41 10 54c3 12 7 32 14 60c6 27 9 42 10 45l-2 1c-9 -8 -47 -50 -86 -138c-25 -55 -55 -148 -75 -249c-6 -3 -13 -5 -21 -5
c-28 0 -50 24 -50 68c3 24 7 58 14 102c6 44 10 76 13 95l-3 1c-37 -160 -107 -253 -186 -253c-34 0 -62 17 -84 52c-23 34 -36 73 -39 118c-19 -61 -29 -130 -29 -207c-8 -1 -13 -2 -15 -2c-35 0 -52 35 -52 104c0 35 5 84 15 146s19 114 28 155s23 103 42 185
c19 81 29 125 30 132c53 -1 78 -33 78 -81c4 -56 -51 -175 -50 -178c-14 -59 -25 -110 -33 -152l3 -1c39 97 87 146 142 146c48 0 72 -21 72 -62c0 -69 -71 -130 -162 -165c9 -61 42 -107 82 -107c63 0 134 111 165 347c8 1 17 2 27 2c39 0 59 -27 59 -81
c0 -34 -4 -74 -11 -119h1c25 60 52 110 81 151c29 40 53 60 74 60c28 0 48 -25 48 -66c0 -5 -1 -14 -2 -29c-4 -24 -10 -56 -18 -95s-13 -67 -16 -83c3 0 5 0 6 -1c17 54 42 104 75 151c32 47 58 70 78 70c10 0 22 -7 36 -22s21 -27 21 -38c0 -2 -4 -26 -13 -72
c-9 -47 -14 -84 -14 -111c0 -49 12 -74 37 -74c17 0 34 10 49 31c15 20 26 40 33 61l11 31c9 0 13 -4 13 -13c0 -31 -13 -71 -40 -119c-27 -49 -57 -73 -91 -73c-65 0 -98 49 -98 146c0 35 4 72 12 110c8 37 16 66 25 85zM94 190c37 7 71 23 101 47c29 24 44 46 44 67
c0 13 -14 21 -25 21c-33 0 -85 -43 -120 -135z" />
    <glyph glyph-name="k_n" unicode="kn" horiz-adv-x="769" 
d="M600 339l-2 1c-19 -8 -49 -58 -92 -150s-64 -161 -65 -207c-6 -3 -13 -5 -21 -5c-28 0 -50 21 -50 68c0 15 6 56 16 122c5 33 8 62 11 87c-37 -168 -108 -264 -189 -264c-34 0 -62 17 -84 52c-23 34 -36 73 -39 118c-19 -61 -29 -130 -29 -207c-8 -1 -13 -2 -15 -2
c-35 0 -52 35 -52 104c0 35 5 84 15 146s19 114 28 155s23 103 42 185c19 81 29 125 30 132c53 -1 78 -33 78 -81c4 -56 -51 -175 -50 -178c-14 -59 -25 -110 -33 -152l3 -1c39 97 87 146 142 146c48 0 72 -21 72 -62c0 -69 -71 -130 -162 -165c9 -61 42 -107 82 -107
c63 0 128 105 168 348c8 1 14 2 19 2c43 0 66 -30 66 -78c0 -28 -8 -82 -24 -162h2c1 -1 2 -1 3 -1c23 57 49 107 79 150s53 64 69 64c11 0 23 -7 38 -22s22 -27 22 -38l-4 -14c-10 -36 -34 -125 -34 -190c0 -46 12 -69 37 -69c17 0 34 10 49 31c15 20 27 40 34 61l10 31
c9 0 13 -4 13 -13c0 -31 -13 -71 -40 -119c-27 -49 -57 -73 -91 -73c-65 0 -98 49 -98 146c0 35 5 73 16 116c10 42 20 74 30 95zM94 190c37 7 71 23 101 47c29 24 44 46 44 67c0 13 -14 21 -25 21c-33 0 -85 -43 -120 -135z" />
    <glyph glyph-name="k_r" unicode="kr" horiz-adv-x="693" 
d="M431 359h-1c-17 -127 -46 -224 -87 -289s-85 -98 -130 -98c-65 0 -119 72 -128 189c-19 -61 -29 -130 -29 -207c-8 -1 -13 -2 -15 -2c-35 0 -52 35 -52 104c0 35 5 84 15 146s19 114 28 155s23 103 42 185c19 81 29 125 30 132c53 -1 78 -33 78 -81
c4 -56 -51 -175 -50 -178c-14 -59 -25 -110 -33 -152l3 -1c39 97 87 146 142 146c48 0 72 -21 72 -62c0 -69 -71 -130 -162 -165c11 -68 43 -114 83 -114c59 0 121 97 158 308c-28 20 -42 44 -42 72c0 43 26 83 59 83c15 0 30 -6 47 -18l-22 -118c21 -7 66 -18 90 -25
c11 -3 23 -7 36 -12c25 -9 38 -19 38 -31c0 -3 -33 -114 -33 -194c0 -47 11 -70 34 -70c17 0 34 10 50 31s28 42 36 63l11 31c9 0 13 -4 13 -13c0 -31 -14 -72 -42 -121s-59 -74 -94 -74c-65 0 -98 48 -98 144c0 74 13 142 39 205c-22 9 -51 19 -86 31zM94 190
c37 7 71 23 101 47c29 24 44 46 44 67c0 13 -14 21 -25 21c-33 0 -85 -43 -120 -135z" />
    <glyph glyph-name="l_h" unicode="lh" horiz-adv-x="675" 
d="M281 59v23c-49 -89 -110 -144 -166 -144c-65 0 -113 68 -113 201c0 76 10 159 29 248s45 165 77 229c31 63 63 95 94 95c43 0 64 -42 64 -125c0 -51 -8 -109 -23 -174c-16 -65 -35 -121 -57 -167c-23 -47 -43 -70 -61 -70c-6 0 -11 2 -15 7c27 39 53 108 76 205
s34 173 34 226c0 25 -3 38 -10 38c-10 0 -24 -28 -42 -85c-19 -57 -35 -127 -50 -208s-23 -151 -23 -209c0 -88 18 -132 55 -132c21 0 45 15 72 44s49 65 68 109c5 39 14 87 25 142s21 102 30 143c9 40 21 88 34 145c13 56 21 92 25 109c57 -15 85 -41 85 -79
c0 -6 0 -11 -1 -14c-7 -35 -24 -93 -49 -175c-25 -83 -45 -160 -59 -233l3 -1c23 61 50 113 81 156c30 43 53 64 69 64c10 0 22 -7 37 -21c15 -15 22 -27 22 -38l-4 -14c-10 -35 -33 -127 -33 -191c0 -46 12 -69 36 -69c17 0 34 10 50 31c15 20 26 40 33 61l11 31
c9 0 13 -4 13 -13c0 -36 -21 -101 -64 -153c-21 -26 -44 -39 -68 -39c-65 0 -97 49 -97 146c0 35 5 74 16 117s21 76 30 97c-14 0 -44 -49 -89 -147s-71 -176 -77 -234c-1 -4 -1 -16 -1 -37c-7 -1 -12 -2 -15 -2c-23 0 -38 12 -44 36s-8 42 -8 71z" />
    <glyph glyph-name="l_k" unicode="lk" horiz-adv-x="639" 
d="M281 59v23c-49 -89 -110 -144 -166 -144c-65 0 -113 68 -113 201c0 76 10 159 29 248s45 165 77 229c31 63 63 95 94 95c43 0 64 -42 64 -125c0 -51 -8 -109 -23 -174c-16 -65 -35 -121 -57 -167c-23 -47 -43 -70 -61 -70c-6 0 -11 2 -15 7c27 39 53 108 76 205
s34 173 34 226c0 25 -3 38 -10 38c-10 0 -24 -28 -42 -85c-19 -57 -35 -127 -50 -208s-23 -151 -23 -209c0 -88 18 -132 55 -132c21 0 45 15 72 44s49 65 68 109c5 39 14 87 25 142s21 102 30 143c9 40 21 88 34 145c13 56 21 92 25 109c49 -8 85 -46 85 -75v-3v-3
c0 -3 -1 -10 -1 -11c-2 -14 -6 -31 -11 -51c-17 -75 -41 -154 -72 -237l-14 -66l3 -1c39 97 87 146 142 146c48 0 72 -21 72 -62c0 -69 -71 -130 -162 -165c9 -65 46 -107 89 -107c44 0 89 46 113 137c9 -2 13 -7 13 -16c0 -48 -24 -115 -75 -166c-26 -25 -55 -38 -86 -38
c-34 0 -62 17 -84 52c-23 34 -36 73 -39 118c-9 -29 -15 -57 -19 -82c-7 -52 -10 -94 -10 -125c-7 -1 -12 -2 -15 -2c-23 0 -38 12 -44 36s-8 42 -8 71zM386 189c37 8 71 24 101 48c29 24 44 46 44 67c0 13 -14 21 -25 21c-33 0 -85 -44 -120 -136z" />
    <glyph glyph-name="l_l" unicode="ll" horiz-adv-x="540" 
d="M288 77v18c-51 -97 -116 -157 -173 -157c-65 0 -113 68 -113 201c0 76 10 159 29 248s45 165 77 229c31 63 63 95 94 95c43 0 64 -42 64 -125c0 -51 -8 -109 -23 -174c-16 -65 -35 -121 -57 -167c-23 -47 -43 -70 -61 -70c-6 0 -11 2 -15 7c27 39 53 108 76 205
s34 173 34 226c0 25 -3 38 -10 38c-10 0 -24 -28 -42 -85c-19 -57 -35 -127 -50 -208s-23 -151 -23 -209c0 -88 18 -132 55 -132c20 0 43 14 70 42c27 27 49 62 68 105c-7 5 -10 11 -10 18c0 9 6 17 17 24c9 82 25 163 46 242s46 145 75 199c29 53 57 80 85 81
c42 -1 63 -41 63 -121c0 -81 -18 -168 -53 -261c-35 -94 -77 -155 -125 -183c-1 -17 -2 -40 -2 -71c0 -103 35 -174 95 -175c-3 -16 -13 -32 -31 -48s-36 -24 -54 -24c-69 0 -106 95 -106 232zM391 215c36 37 66 103 91 197c24 94 36 168 36 222c0 22 -3 33 -10 33
c-15 1 -35 -49 -61 -149c-27 -101 -45 -202 -56 -303z" />
    <glyph glyph-name="lslash_lslash" unicode="&#x142;&#x142;" horiz-adv-x="540" 
d="M288 77v18c-51 -97 -116 -157 -173 -157c-65 0 -113 68 -113 201c0 76 10 159 29 248s45 165 77 229c31 63 63 95 94 95c43 0 64 -42 64 -125c0 -51 -8 -109 -23 -174c-16 -65 -35 -121 -57 -167c-23 -47 -43 -70 -61 -70c-6 0 -11 2 -15 7c27 39 53 108 76 205
s34 173 34 226c0 25 -3 38 -10 38c-10 0 -24 -28 -42 -85c-19 -57 -35 -127 -50 -208s-23 -151 -23 -209c0 -88 18 -132 55 -132c20 0 43 14 70 42c27 27 49 62 68 105c-7 5 -10 11 -10 18c0 9 6 17 17 24c9 82 25 163 46 242s46 145 75 199c29 53 57 80 85 81
c42 -1 63 -41 63 -121c0 -81 -18 -168 -53 -261c-35 -94 -77 -155 -125 -183c-1 -17 -2 -40 -2 -71c0 -103 35 -174 95 -175c-3 -16 -13 -32 -31 -48s-36 -24 -54 -24c-69 0 -106 95 -106 232zM621 824c1 -2 1 -5 1 -10c0 -121 -537 -11 -537 -163c0 -9 2 -19 6 -30
c-5 -2 -10 -3 -15 -3c-25 0 -43 26 -43 58c-4 110 171 122 325 120c52 -1 103 1 154 4c50 3 86 11 109 24zM391 215c36 37 66 103 91 197c24 94 36 168 36 222c0 22 -3 33 -10 33c-15 1 -35 -49 -61 -149c-27 -101 -45 -202 -56 -303z" />
    <glyph glyph-name="l_m" unicode="lm" horiz-adv-x="887" 
d="M573 161h4c18 53 44 103 77 150s59 70 78 70c10 0 22 -7 36 -22s21 -27 21 -38c0 -2 -4 -26 -13 -72c-9 -47 -14 -84 -14 -111c0 -49 12 -74 37 -74c17 0 34 10 49 31c15 20 27 40 34 61l10 31c9 0 13 -4 13 -13c0 -31 -13 -71 -40 -119c-27 -49 -57 -73 -91 -73
c-65 0 -98 49 -98 146c0 35 4 72 12 110s16 67 25 86l-2 1c-17 -4 -43 -44 -79 -119c-36 -76 -54 -135 -54 -177c0 -5 -5 -7 -16 -7c-51 0 -76 27 -76 81c0 28 4 60 13 107c4 23 7 41 10 54c3 12 7 32 14 60c6 27 9 42 10 45l-2 1c-11 -7 -46 -50 -85 -136
c-25 -54 -55 -147 -76 -248v-3c-6 -3 -13 -5 -21 -5c-28 0 -50 24 -50 68c3 23 7 57 14 101c6 43 10 75 13 95h-3c-23 -109 -53 -195 -111 -258c-29 -31 -62 -46 -97 -46c-65 0 -113 68 -113 201c0 76 10 159 29 248s45 165 77 229c31 63 63 95 94 95c43 0 64 -42 64 -125
c0 -51 -8 -109 -23 -174c-16 -65 -35 -121 -57 -167c-23 -47 -43 -70 -61 -70c-6 0 -11 2 -15 7c27 39 53 108 76 205s34 173 34 226c0 25 -3 38 -10 38c-9 0 -23 -28 -41 -85c-19 -57 -36 -127 -51 -208c-15 -82 -23 -152 -23 -210c0 -87 18 -131 55 -131
c38 0 75 42 112 126c36 83 60 176 71 279c4 1 12 1 24 1c39 0 59 -27 59 -81c0 -40 -4 -80 -13 -119h3c25 60 52 110 81 151c29 40 53 60 74 60c28 0 48 -25 48 -66c0 -5 -1 -14 -2 -29c-4 -24 -10 -56 -18 -95s-13 -67 -16 -83z" />
    <glyph glyph-name="l_n" unicode="ln" horiz-adv-x="694" 
d="M366 -12v-5c-6 -3 -13 -5 -21 -5c-28 0 -50 21 -50 70c0 15 5 49 16 113c5 31 10 58 13 80h-3c-23 -109 -53 -194 -110 -257c-29 -31 -61 -46 -96 -46c-65 0 -113 68 -113 201c0 76 10 159 29 248s45 165 77 229c31 63 63 95 94 95c43 0 64 -42 64 -125
c0 -51 -8 -109 -23 -174c-16 -65 -35 -121 -57 -167c-23 -47 -43 -70 -61 -70c-6 0 -11 2 -15 7c27 39 53 108 76 205s34 173 34 226c0 25 -3 38 -10 38c-9 0 -23 -28 -41 -85c-19 -57 -36 -127 -51 -208c-15 -82 -23 -152 -23 -210c0 -87 18 -131 55 -131s74 40 109 121
s60 175 75 284c9 1 16 2 19 2c41 0 61 -28 61 -84c0 -27 -6 -77 -19 -152h2c23 56 49 105 79 147c29 41 52 62 67 62c11 0 23 -7 38 -22s22 -27 22 -38l-4 -14c-10 -36 -34 -125 -34 -190c0 -46 12 -69 37 -69c17 0 34 10 49 31c15 20 26 40 33 61l11 31c9 0 13 -4 13 -13
c0 -31 -13 -71 -40 -119c-27 -49 -57 -73 -91 -73c-65 0 -98 49 -98 146c0 35 5 73 16 116c10 42 20 74 30 95l-2 1c-18 -7 -48 -56 -91 -146c-43 -91 -64 -158 -64 -202c0 -1 -1 -3 -2 -4z" />
    <glyph glyph-name="l_p" unicode="lp" horiz-adv-x="632" 
d="M385 281l3 -1c27 63 59 95 96 95c13 0 30 -9 51 -28c20 -19 33 -39 38 -60c3 -13 5 -31 5 -52c3 -109 -62 -258 -152 -256c-33 0 -60 14 -83 42c-8 -72 -12 -134 -12 -187s4 -96 12 -127c-6 -2 -13 -3 -21 -3c-45 0 -88 28 -88 116c0 51 12 134 35 247
c-50 -86 -101 -129 -154 -129c-65 0 -113 68 -113 201c0 76 10 159 29 248s45 165 77 229c31 63 63 95 94 95c43 0 64 -42 64 -125c0 -51 -8 -109 -23 -174c-16 -65 -35 -121 -57 -167c-23 -47 -43 -70 -61 -70c-6 0 -11 2 -15 7c27 39 53 108 76 205s34 173 34 226
c0 25 -3 38 -10 38c-10 0 -24 -28 -42 -85c-19 -57 -35 -127 -50 -208s-23 -151 -23 -209c0 -88 18 -132 55 -132c21 0 46 15 74 46c27 30 50 67 68 112c27 134 44 235 51 303c0 1 2 2 5 2c13 0 28 -6 44 -17c16 -12 24 -30 24 -53c0 -17 -6 -36 -17 -59
c-5 -23 -9 -47 -14 -70zM348 57c13 -16 27 -24 43 -24c21 0 40 14 57 42c17 27 29 59 37 96c8 36 12 70 12 103c0 40 -7 60 -21 60c-17 0 -37 -18 -59 -55s-41 -81 -56 -131c-3 -19 -8 -50 -13 -91z" />
    <glyph glyph-name="l_r" unicode="lr" horiz-adv-x="655" 
d="M421 512l-21 -118c20 -7 66 -18 89 -25c11 -4 24 -8 37 -13c26 -9 37 -19 37 -30c0 -3 -33 -114 -33 -194c0 -47 11 -70 34 -70c17 0 34 10 50 31s28 42 36 63l11 31c9 0 13 -4 13 -13c0 -31 -14 -72 -42 -121s-59 -74 -94 -74c-65 0 -98 48 -98 144c0 74 13 142 39 205
c-22 9 -51 19 -86 31c-17 -84 -47 -174 -92 -265c-45 -92 -113 -156 -185 -156c-65 0 -114 68 -114 201c0 76 10 159 29 248s45 165 77 229c31 63 63 95 94 95c43 0 64 -42 64 -125c0 -51 -8 -109 -23 -174c-16 -65 -35 -121 -57 -167c-23 -47 -43 -70 -61 -70
c-6 0 -11 2 -15 7c27 39 53 108 76 205s34 173 34 226c0 25 -3 38 -10 38c-10 0 -24 -28 -42 -85c-19 -57 -35 -127 -50 -208s-23 -151 -23 -209c0 -88 19 -132 56 -132c26 0 54 20 85 60c30 39 56 85 78 138s39 104 51 155c-29 19 -50 50 -50 77c0 43 26 83 59 83
c15 0 30 -6 47 -18z" />
    <glyph glyph-name="l_s" unicode="ls" horiz-adv-x="572" 
d="M355 281c-1 0 -1 -1 -2 -1c-16 -67 -34 -122 -62 -185c-15 -31 -30 -58 -46 -80c-33 -45 -80 -77 -129 -77c-65 0 -114 68 -114 201c0 76 10 159 29 248s45 165 77 229c31 63 63 95 94 95c43 0 64 -42 64 -125c0 -51 -8 -109 -23 -174c-16 -65 -35 -121 -57 -167
c-23 -47 -43 -70 -61 -70c-6 0 -11 2 -15 7c27 39 53 108 76 205s34 173 34 226c0 25 -3 38 -10 38c-10 0 -24 -28 -42 -85c-19 -57 -35 -127 -50 -208s-23 -151 -23 -209c0 -88 19 -132 56 -132c24 0 49 17 74 51s46 73 64 118c17 45 33 93 47 144c-6 18 -9 35 -9 52
c0 45 28 94 49 114l17 15c33 -14 49 -35 49 -62c3 -24 -28 -82 -37 -107c13 -33 31 -72 54 -116s37 -74 43 -89c45 42 78 92 99 150c8 0 12 -5 12 -15c0 -17 -10 -44 -30 -80s-44 -69 -71 -98c1 -3 1 -7 1 -12c0 -37 -13 -65 -38 -86c-26 -21 -55 -31 -87 -31
c-47 0 -82 23 -82 63c0 12 3 24 8 35c3 -1 8 -1 15 -1c33 0 65 7 96 22c-1 29 -15 72 -26 98c-5 13 -13 30 -23 52s-17 38 -21 47z" />
    <glyph glyph-name="l_t" unicode="lt" horiz-adv-x="540" 
d="M561 198v-3c-7 -51 -26 -101 -56 -149c-31 -48 -67 -72 -109 -72c-59 0 -89 48 -89 145v18c-51 -133 -114 -199 -191 -199c-65 0 -114 68 -114 201c0 76 10 159 29 248s45 165 77 229c31 63 63 95 94 95c43 0 64 -42 64 -125c0 -51 -8 -109 -23 -174
c-16 -65 -35 -121 -57 -167c-23 -47 -43 -70 -61 -70c-6 0 -11 2 -15 7c27 39 53 108 76 205s34 173 34 226c0 25 -3 38 -10 38c-10 0 -24 -28 -42 -85c-19 -57 -35 -127 -50 -208s-23 -151 -23 -209c0 -88 19 -132 56 -132c29 0 59 23 89 69c30 45 57 102 81 169
c7 41 18 85 31 131c-7 -1 -18 -1 -31 -1c-24 0 -36 10 -36 30c0 7 2 17 6 29c24 9 52 17 85 22c21 65 37 107 49 128c34 -7 51 -26 51 -57c0 -19 -5 -42 -16 -67c62 -5 93 -27 93 -66c0 -4 -1 -11 -2 -20c-60 2 -100 3 -121 4c-24 -90 -36 -171 -36 -242
c0 -59 14 -89 41 -89c22 0 44 15 66 46c21 31 37 67 48 108c8 0 12 -4 12 -13z" />
    <glyph glyph-name="l_x" unicode="lx" horiz-adv-x="671" 
d="M408 65c-57 -74 -89 -128 -94 -162l-2 1c-9 3 -35 20 -35 50c0 28 36 82 109 163c-18 51 -34 116 -48 195c-12 -95 -34 -179 -69 -253c-36 -75 -91 -121 -154 -121c-65 0 -113 68 -113 201c0 76 10 159 29 248s45 165 77 229c31 63 63 95 94 95c43 0 64 -42 64 -125
c0 -51 -8 -109 -23 -174c-16 -65 -35 -121 -57 -167c-23 -47 -43 -70 -61 -70c-6 0 -11 2 -15 7c27 39 53 108 76 205s34 173 34 226c0 25 -3 38 -10 38c-9 0 -23 -28 -41 -85c-19 -57 -36 -127 -51 -208c-15 -82 -23 -152 -23 -210c0 -87 18 -131 55 -131
c35 0 71 38 107 115c35 77 58 163 69 260c63 -1 83 -14 95 -61c19 -81 30 -127 33 -137c33 42 67 89 102 142c35 52 54 83 56 94c2 -1 27 -23 27 -52c0 -13 -10 -34 -24 -57c-9 -13 -28 -37 -39 -52c-12 -15 -37 -45 -49 -60c-11 -12 -45 -53 -55 -64c22 -45 50 -67 83 -67
c86 0 116 104 121 128l1 5c9 -1 13 -7 13 -19c0 -48 -27 -119 -86 -174c-29 -28 -62 -42 -97 -42c-37 0 -70 30 -99 89z" />
    <glyph glyph-name="l_z" unicode="l&#x7a;" horiz-adv-x="668" 
d="M379 414l-6 -35c29 -11 85 -16 170 -16c43 0 71 1 82 4c2 -7 3 -14 3 -22c0 -29 -5 -44 -16 -47l-197 -198c73 -32 127 -48 162 -48c25 0 42 9 52 28c4 -3 6 -10 6 -21c0 -21 -6 -42 -19 -64c-13 -21 -30 -31 -52 -31c-29 0 -69 13 -119 39c-50 25 -78 39 -85 41
c-11 -12 -36 -38 -45 -49c-9 0 -23 26 -23 42c0 41 38 76 82 76c16 16 45 44 87 84c41 39 71 69 90 88c-14 0 -70 -5 -104 -5c-39 0 -70 5 -93 16c-21 -91 -47 -166 -86 -239s-92 -119 -152 -119c-65 0 -114 68 -114 201c0 76 10 159 29 248s45 165 77 229
c31 63 63 95 94 95c43 0 64 -42 64 -125c0 -51 -8 -109 -23 -174c-16 -65 -35 -121 -57 -167c-23 -47 -43 -70 -61 -70c-6 0 -11 2 -15 7c27 39 53 108 76 205s34 173 34 226c0 25 -3 38 -10 38c-10 0 -24 -28 -42 -85c-19 -57 -35 -127 -50 -208s-23 -151 -23 -209
c0 -88 19 -132 56 -132c22 0 45 16 68 47s44 69 62 113c17 43 33 91 46 142c-7 9 -11 21 -11 34c0 32 24 62 48 62c7 0 12 0 14 -1v-1c0 1 0 1 1 1z" />
    <glyph glyph-name="m_e" unicode="me" horiz-adv-x="827" 
d="M253 161h4c19 54 46 109 83 166c36 56 63 84 81 84c10 0 22 -8 36 -23s21 -29 21 -40c-28 -96 -47 -205 -33 -289c7 -42 23 -63 50 -63c5 0 8 0 10 1c-3 -15 -13 -31 -31 -48s-36 -25 -55 -25c-28 0 -47 18 -58 53c-11 36 -13 79 -8 129c10 99 29 195 49 248l-2 1
c-31 -44 -63 -99 -94 -166c-32 -67 -48 -120 -48 -160c0 -5 -5 -7 -16 -7c-51 0 -76 27 -76 81c0 28 4 60 13 107c4 23 7 41 10 54c3 12 7 32 14 60c6 27 9 42 10 45l-2 1c-10 -8 -48 -51 -87 -139c-25 -56 -55 -148 -74 -248c-6 -3 -13 -5 -21 -5c-28 0 -50 24 -50 68
c0 23 11 86 32 201c11 57 18 95 21 113c43 -8 68 -24 68 -64c0 -10 -3 -29 -10 -57h3c24 56 50 103 78 140c27 37 51 55 70 55c36 0 55 -47 46 -95c-15 -75 -27 -134 -34 -178zM523 139c-1 1 -7 4 -17 11c-3 1 -5 5 -5 11c0 10 4 16 11 19c7 -5 10 -8 11 -8
c2 58 18 112 48 163c29 51 62 76 98 76c21 0 61 -27 64 -27c33 -1 50 -30 50 -73c0 -45 -15 -88 -46 -131s-70 -66 -118 -67c11 -43 35 -64 72 -64c55 0 115 59 142 162c10 0 14 -5 13 -16c-7 -64 -29 -114 -66 -151s-78 -56 -122 -56c-72 0 -128 52 -135 151zM614 158v-4
c32 9 58 33 77 71c19 37 28 73 28 107c0 25 -6 38 -17 38c-16 0 -35 -24 -56 -73s-32 -95 -32 -139z" />
    <glyph glyph-name="m_l" unicode="ml" horiz-adv-x="802" 
d="M553 160v1c-9 6 -13 13 -13 21c0 9 6 17 17 24c9 82 25 163 46 242s46 145 75 199c29 53 57 80 85 81c42 -1 63 -41 63 -121c0 -81 -18 -168 -53 -261c-35 -94 -77 -155 -125 -183c-1 -17 -2 -40 -2 -71c0 -103 35 -174 95 -175c-3 -16 -13 -32 -31 -48s-36 -24 -54 -24
c-69 0 -106 93 -106 228c-25 -61 -57 -91 -96 -91c-65 0 -98 49 -98 146c0 35 4 72 12 110s17 67 26 86l-3 1c-11 -3 -26 -23 -47 -59s-41 -77 -59 -124s-27 -85 -27 -113c0 -5 -5 -7 -16 -7c-51 0 -76 27 -76 81c0 44 16 133 48 266l-3 1c-13 -12 -34 -39 -66 -96
s-70 -163 -95 -286v-5c-6 -3 -13 -5 -21 -5c-28 0 -50 24 -50 68c0 23 11 86 32 201c11 57 18 95 21 113c43 -8 68 -24 68 -64c0 -10 -3 -29 -10 -57h3c24 56 50 103 78 140c27 37 51 55 70 55c28 0 48 -25 48 -66c0 -5 -1 -14 -2 -29c-4 -24 -10 -56 -18 -95
s-13 -67 -16 -83h4c18 53 44 103 77 150s59 70 78 70c10 0 22 -7 36 -22s21 -27 21 -38c0 -2 -4 -26 -13 -72c-9 -47 -14 -84 -14 -111c0 -50 12 -75 37 -75c30 0 55 32 74 97zM653 215c36 37 66 103 91 197c24 94 36 168 36 222c0 22 -3 33 -10 33c-15 1 -35 -49 -61 -149
c-27 -101 -45 -202 -56 -303z" />
    <glyph glyph-name="m_m" unicode="mm" horiz-adv-x="1138" 
d="M821 120h6c18 63 44 126 78 187s61 91 82 91c10 0 22 -7 36 -22s21 -27 21 -38c0 -2 -5 -29 -15 -81c-11 -52 -16 -92 -16 -119c0 -49 12 -74 37 -74c17 0 34 10 49 31c15 20 26 40 33 61l11 31c9 0 13 -4 13 -13c0 -31 -13 -71 -40 -119c-27 -49 -57 -73 -91 -73
c-65 0 -98 49 -98 146c0 35 5 75 14 118s18 75 27 94l-1 1c-17 -7 -44 -54 -81 -143c-38 -89 -57 -156 -57 -200c0 -4 -5 -6 -15 -6c-51 0 -76 23 -76 80s14 148 42 274l-5 3c-24 -29 -54 -72 -98 -175c-22 -51 -39 -103 -51 -156v-3c-6 -3 -13 -5 -21 -5
c-28 0 -50 24 -50 68c0 13 8 53 20 114c6 31 11 58 14 83h-2c-17 -82 -40 -150 -70 -205s-58 -83 -84 -83c-47 0 -77 48 -77 139c0 35 4 72 12 111c8 38 16 67 25 86l-1 1c-18 -7 -44 -47 -79 -118c-35 -72 -54 -132 -55 -179c-1 -3 -6 -5 -16 -5c-51 0 -76 27 -76 81
c0 28 4 60 13 107c4 23 7 41 10 54c3 12 7 32 14 60c6 27 9 42 10 45l-2 1c-11 -7 -46 -50 -85 -136c-25 -54 -55 -147 -76 -248v-3c-6 -3 -13 -5 -21 -5c-28 0 -50 24 -50 68c0 23 11 86 32 201c11 57 18 95 21 113c43 -8 68 -24 68 -64c0 -6 -4 -25 -11 -57h4
c24 56 50 103 78 140c27 37 51 55 70 55c28 0 48 -25 48 -66c0 -5 -1 -14 -2 -29c-4 -24 -10 -58 -19 -102s-15 -75 -18 -94h3c16 57 41 111 76 162s62 76 83 76c10 0 22 -7 36 -22s21 -27 21 -38c0 -1 -27 -129 -27 -187c0 -48 6 -72 18 -72c15 0 38 40 69 119
s53 160 68 241c8 1 14 2 18 2c40 0 60 -26 60 -78c0 -24 -5 -52 -16 -103c-5 -25 -10 -48 -13 -69c21 60 48 113 79 160s58 70 81 70c31 0 48 -33 48 -74c0 -5 -1 -12 -2 -21c-3 -15 -8 -46 -15 -91c-8 -46 -13 -79 -16 -98z" />
    <glyph glyph-name="m_n" unicode="mn" horiz-adv-x="957" 
d="M657 188h3c23 56 49 105 79 147c29 41 52 62 67 62c11 0 23 -7 38 -22s22 -27 22 -38l-4 -14c-10 -36 -34 -125 -34 -190c0 -46 12 -69 37 -69c17 0 34 10 49 31c15 20 27 40 34 61l10 31c9 0 13 -4 13 -13c0 -31 -13 -71 -40 -119c-27 -49 -57 -73 -91 -73
c-65 0 -98 49 -98 146c0 35 5 74 16 117c10 43 20 74 30 95h-2c-19 -9 -49 -59 -92 -151s-64 -161 -65 -206c-6 -3 -13 -5 -21 -5c-28 0 -50 24 -50 68c0 13 7 58 19 126c5 34 10 65 13 92h-2l-2 1c-15 -82 -38 -149 -67 -200c-30 -52 -58 -78 -85 -78c-45 0 -78 50 -78 141
c0 35 4 72 12 110c8 37 16 66 25 85l-1 1c-17 -5 -43 -45 -79 -119c-37 -74 -55 -133 -55 -176c0 -5 -5 -7 -16 -7c-51 0 -76 27 -76 81c0 28 4 60 13 107c4 23 7 41 10 54c3 12 7 32 14 60c6 27 9 42 10 45l-2 1c-11 -7 -46 -50 -85 -136c-25 -54 -55 -147 -76 -248v-3
c-6 -3 -13 -5 -21 -5c-28 0 -50 24 -50 68c0 23 11 86 32 201c11 57 18 95 21 113c43 -8 68 -24 68 -64c0 -6 -4 -25 -11 -57h4c24 56 50 103 78 140c27 37 51 55 70 55c28 0 48 -25 48 -66c0 -5 -1 -14 -2 -29c-4 -24 -10 -56 -18 -95s-13 -67 -16 -83c3 0 5 0 6 -1
c17 54 42 104 75 151c32 47 58 70 78 70c10 0 22 -7 36 -22s21 -27 21 -38c0 -2 -4 -26 -13 -72c-9 -47 -14 -84 -14 -111c0 -49 6 -73 18 -73c17 0 40 39 70 116c29 77 52 158 68 241h1c4 1 10 1 17 1c40 0 60 -26 60 -77c0 -43 -6 -96 -19 -158z" />
    <glyph glyph-name="m_p" unicode="mp" horiz-adv-x="877" 
d="M495 -4h6c5 30 15 79 30 147c14 68 26 130 36 185s17 105 21 150c0 1 2 2 5 2c13 0 28 -6 44 -17c16 -12 24 -30 24 -53c0 -17 -6 -36 -17 -59c-5 -23 -9 -47 -14 -70l3 -1c27 63 59 95 96 95c13 0 30 -9 51 -28c20 -19 33 -39 38 -60c3 -13 5 -31 5 -52
c3 -109 -62 -258 -152 -256c-33 0 -60 14 -83 42c-8 -72 -12 -134 -12 -187s4 -96 12 -127c-6 -2 -13 -3 -21 -3c-45 0 -88 28 -88 116c0 39 6 91 18 158c-16 -28 -49 -54 -78 -54c-28 0 -47 18 -58 53c-11 36 -13 79 -8 129c10 99 29 195 49 248l-2 1
c-31 -44 -63 -99 -94 -166c-32 -67 -48 -120 -48 -160c0 -5 -5 -7 -16 -7c-51 0 -76 27 -76 81c0 28 4 60 13 107c4 23 7 41 10 54c3 12 7 32 14 60c6 27 9 42 10 45l-2 1c-10 -8 -48 -51 -87 -139c-25 -56 -55 -148 -74 -248c-6 -3 -13 -5 -21 -5c-28 0 -50 24 -50 68
c0 23 11 86 32 201c11 57 18 95 21 113c43 -8 68 -24 68 -64c0 -10 -3 -29 -10 -57h3c24 56 50 103 78 140c27 37 51 55 70 55c36 0 55 -47 46 -95c-15 -75 -27 -134 -34 -178h4c19 54 46 109 83 166c36 56 63 84 81 84c10 0 22 -8 36 -23s21 -29 21 -40
c-28 -96 -47 -205 -33 -289c7 -42 23 -63 50 -63zM593 57c13 -16 27 -24 43 -24c21 0 40 14 57 42c17 27 29 59 37 96c8 36 12 70 12 103c0 40 -7 60 -21 60c-17 0 -37 -18 -59 -55s-41 -81 -56 -131c-3 -19 -8 -50 -13 -91z" />
    <glyph glyph-name="m_r" unicode="mr" horiz-adv-x="893" 
d="M630 359h-1c-25 -133 -54 -229 -88 -286c-35 -57 -70 -86 -107 -86c-45 0 -78 50 -78 141c0 35 4 72 12 110c8 37 16 66 25 85l-1 1c-17 -5 -43 -45 -79 -119c-37 -74 -55 -133 -55 -176c0 -5 -5 -7 -16 -7c-51 0 -76 27 -76 81c0 28 4 60 13 107c4 23 7 41 10 54
c3 12 7 32 14 60c6 27 9 42 10 45l-2 1c-11 -7 -46 -50 -85 -136c-25 -54 -55 -147 -76 -248v-3c-6 -3 -13 -5 -21 -5c-28 0 -50 24 -50 68c0 23 11 86 32 201c11 57 18 95 21 113c43 -8 68 -24 68 -64c0 -6 -4 -25 -11 -57h4c24 56 50 103 78 140c27 37 51 55 70 55
c28 0 48 -25 48 -66c0 -5 -1 -14 -2 -29c-4 -24 -10 -56 -18 -95s-13 -67 -16 -83c3 0 5 0 6 -1c17 54 42 104 75 151c32 47 58 70 78 70c10 0 22 -7 36 -22s21 -27 21 -38c0 -2 -4 -26 -13 -72c-9 -47 -14 -84 -14 -111c0 -46 7 -69 21 -69c16 0 37 29 64 87
c26 58 49 131 69 218c-25 17 -44 48 -44 73c0 43 26 83 59 83c15 0 30 -6 47 -18l-22 -118c21 -7 66 -18 90 -25c11 -3 23 -7 36 -12c25 -9 38 -19 38 -31c0 -3 -33 -114 -33 -194c0 -47 11 -70 34 -70c17 0 34 10 50 31s28 42 35 63l12 31c9 0 13 -4 13 -13
c0 -31 -14 -72 -42 -121s-59 -74 -94 -74c-65 0 -98 48 -98 144c0 74 13 142 39 205c-22 9 -51 19 -86 31z" />
    <glyph glyph-name="n_e" unicode="ne" horiz-adv-x="639" 
d="M335 139c-1 1 -7 4 -17 11c-3 1 -5 5 -5 11c0 10 4 16 11 19c7 -5 10 -8 11 -8c2 58 18 112 48 163c29 51 62 76 98 76c21 0 61 -27 64 -27c33 -1 50 -30 50 -73c0 -45 -15 -88 -46 -131s-70 -66 -118 -67c11 -43 35 -64 72 -64c55 0 115 59 142 162c10 0 14 -5 13 -16
c-7 -64 -29 -114 -66 -151s-78 -56 -122 -56c-72 0 -128 52 -135 151zM77 188h4c23 56 49 105 79 147c29 41 52 62 67 62c11 0 23 -7 38 -22s22 -27 22 -38c-28 -95 -46 -200 -31 -280c7 -41 24 -61 51 -61c5 0 8 0 10 1c-3 -15 -13 -31 -31 -48s-36 -25 -55 -25
c-28 0 -47 17 -58 50s-15 74 -10 122c8 95 26 187 46 243l-2 1c-19 -8 -49 -58 -92 -150s-64 -161 -65 -207c-6 -3 -13 -5 -21 -5c-28 0 -50 24 -50 68c0 23 11 86 32 201c11 57 18 95 21 113c43 -8 68 -24 68 -64c0 -4 -8 -40 -23 -108zM426 158v-4c32 9 58 33 77 71
c19 37 28 73 28 107c0 25 -6 38 -17 38c-16 0 -35 -24 -56 -73s-32 -95 -32 -139z" />
    <glyph glyph-name="n_h" unicode="nh" horiz-adv-x="765" 
d="M469 208l4 -1c23 61 50 113 81 156c30 43 53 64 69 64c10 0 22 -7 37 -21c15 -15 22 -27 22 -38l-4 -14c-10 -35 -33 -127 -33 -191c0 -46 12 -69 36 -69c17 0 34 10 50 31c15 20 26 40 33 61l11 31c9 0 13 -4 13 -13c0 -36 -21 -101 -64 -153c-21 -26 -44 -39 -68 -39
c-65 0 -97 49 -97 146c0 35 5 74 16 117s21 76 30 97c-9 0 -25 -22 -50 -66s-49 -97 -72 -160s-37 -116 -41 -158c-29 -5 -49 4 -57 28c-8 23 -10 42 -10 74c0 15 0 27 1 35c-87 -208 -216 -162 -213 3c1 35 6 74 17 117c10 43 20 74 29 95h-2c-17 -8 -47 -57 -90 -147
c-43 -91 -65 -158 -65 -201c0 -1 -1 -3 -2 -4v-5c-6 -3 -13 -5 -21 -5c-28 0 -50 24 -50 68c0 23 11 86 32 201c11 57 18 95 21 113c43 -8 68 -24 68 -64c0 -11 -4 -27 -12 -62c-4 -17 -7 -33 -10 -46h3c23 56 49 105 79 147c29 41 52 62 67 62c11 0 23 -7 38 -22
s22 -27 22 -38l-4 -14c-10 -36 -34 -125 -34 -190c0 -45 10 -67 30 -67c21 0 44 25 69 74c17 35 33 78 46 127c10 57 32 151 44 204c6 27 14 61 24 101s17 67 20 82c51 -1 77 -28 77 -81c0 -41 -21 -113 -40 -167c-10 -27 -15 -42 -15 -43c-15 -63 -27 -115 -35 -155z" />
    <glyph glyph-name="n_l" unicode="nl" horiz-adv-x="613" 
d="M77 188h4c23 56 49 105 79 147c29 41 52 62 67 62c11 0 23 -7 38 -22s22 -27 22 -38l-4 -14c-10 -36 -34 -125 -34 -190c0 -46 12 -69 37 -69c29 0 54 29 77 87c0 3 1 9 1 10c-9 6 -13 13 -13 21c0 9 6 17 17 24c9 82 25 163 46 242s46 145 75 199c29 53 57 80 85 81
c42 -1 63 -41 63 -121c0 -81 -18 -168 -53 -261c-35 -94 -77 -155 -125 -183c-1 -17 -2 -40 -2 -71c0 -103 35 -174 95 -175c-3 -16 -13 -32 -31 -48s-36 -24 -54 -24c-69 0 -105 92 -106 225c-27 -59 -60 -88 -100 -88c-65 0 -98 49 -98 146c0 35 5 73 16 116
c10 42 20 74 30 95l-2 1c-19 -8 -49 -58 -92 -150s-64 -161 -65 -207c-6 -3 -13 -5 -21 -5c-28 0 -50 24 -50 68c0 23 11 86 32 201c11 57 18 95 21 113c43 -8 68 -24 68 -64c0 -4 -8 -40 -23 -108zM464 215c36 37 66 103 91 197c24 94 36 168 36 222c0 22 -3 33 -10 33
c-15 1 -35 -49 -61 -149c-27 -101 -45 -202 -56 -303z" />
    <glyph glyph-name="n_m" unicode="nm" horiz-adv-x="953" 
d="M639 161h4c18 53 44 103 77 150s59 70 78 70c10 0 22 -7 36 -22s21 -27 21 -38c0 -2 -4 -26 -13 -72c-9 -47 -14 -84 -14 -111c0 -49 12 -74 37 -74c17 0 34 10 49 31c15 20 27 40 34 61l10 31c9 0 13 -4 13 -13c0 -31 -13 -71 -40 -119c-27 -49 -57 -73 -91 -73
c-65 0 -98 49 -98 146c0 35 4 72 12 110s16 67 25 86l-2 1c-17 -4 -43 -44 -79 -119c-36 -76 -54 -135 -54 -177c0 -5 -5 -7 -16 -7c-51 0 -76 27 -76 81c0 28 4 60 13 107c4 23 7 41 10 54c3 12 7 32 14 60c6 27 9 42 10 45l-2 1c-20 -13 -62 -75 -110 -198
c-24 -62 -41 -125 -51 -189c-6 -3 -13 -5 -21 -5c-28 0 -50 24 -50 68c0 13 8 60 20 132c5 36 10 68 13 97h-3c-17 -82 -40 -150 -69 -205c-30 -55 -58 -83 -84 -83c-47 0 -79 49 -79 140c0 35 5 74 16 117c10 43 20 74 29 95l-1 1c-10 -5 -27 -30 -52 -74s-49 -94 -71 -151
c-23 -57 -34 -101 -34 -132c-6 -3 -13 -5 -21 -5c-28 0 -50 24 -50 68c0 23 11 86 32 201c11 57 18 95 21 113c43 -8 68 -24 68 -64c0 -5 -4 -22 -12 -61c-4 -19 -7 -36 -10 -50c21 51 47 100 78 145s55 67 71 67c10 0 23 -7 38 -22s22 -27 22 -38c0 -1 -38 -127 -38 -202
c0 -48 6 -72 18 -72c17 0 41 38 71 115c29 77 52 158 68 244h1c52 8 77 -21 77 -76c0 -5 -3 -27 -10 -74c-4 -23 -7 -44 -10 -61h3c25 62 52 115 83 158c30 43 56 65 77 65c28 0 48 -25 48 -66c0 -5 -1 -14 -2 -29c-5 -24 -11 -56 -18 -95c-8 -39 -13 -67 -16 -83z" />
    <glyph glyph-name="n_n" unicode="nn" horiz-adv-x="765" 
d="M465 188h3c23 56 49 105 79 147c29 41 52 62 67 62c11 0 23 -7 38 -22s22 -27 22 -38l-4 -15c-13 -41 -38 -142 -38 -207c0 -46 12 -69 37 -69c17 0 34 12 50 35s28 47 35 71l12 35c9 0 13 -4 13 -13c0 -36 -23 -108 -67 -166c-22 -30 -45 -44 -68 -44
c-65 0 -98 49 -98 146c0 35 6 77 18 126c11 49 22 83 32 104h-2c-19 -9 -49 -53 -90 -134s-61 -144 -61 -191c-6 -3 -13 -5 -21 -5c-28 0 -50 24 -50 68c0 13 6 50 15 108c5 29 8 55 11 78h-1c-1 1 -1 1 -2 1c-15 -79 -38 -145 -68 -198c-31 -53 -59 -80 -85 -80
c-47 0 -79 49 -79 140c0 35 5 74 16 117c10 43 20 74 29 95l-1 1c-10 -5 -27 -30 -52 -74s-49 -94 -71 -151c-23 -57 -34 -101 -34 -132c-6 -3 -13 -5 -21 -5c-28 0 -50 24 -50 68c0 23 11 86 32 201c11 57 18 95 21 113c43 -8 68 -24 68 -64c0 -5 -4 -22 -12 -61
c-4 -19 -7 -36 -10 -50c21 51 47 100 78 145s55 67 71 67c10 0 23 -7 38 -22s22 -27 22 -38c0 -1 -38 -127 -38 -202c0 -48 6 -72 17 -72c21 0 56 60 91 173c17 56 32 118 44 186c53 9 83 -21 83 -76c0 -43 -6 -96 -19 -158z" />
    <glyph glyph-name="n_p" unicode="np" horiz-adv-x="688" 
d="M307 -4h5c5 30 15 79 30 147c14 68 26 130 36 185s17 105 21 150c0 1 2 2 5 2c13 0 28 -6 44 -17c16 -12 24 -30 24 -53c0 -17 -6 -36 -17 -59c-5 -23 -9 -47 -14 -70l3 -1c27 63 59 95 96 95c13 0 30 -9 51 -28c20 -19 33 -39 38 -60c3 -13 5 -31 5 -52
c3 -109 -62 -258 -152 -256c-33 0 -60 14 -83 42c-8 -72 -12 -134 -12 -187s4 -96 12 -127c-6 -2 -13 -3 -21 -3c-45 0 -88 28 -88 116c0 39 6 91 18 156c-17 -28 -49 -52 -77 -52s-47 17 -58 50s-15 74 -10 122c8 95 26 187 46 243l-2 1c-19 -8 -49 -58 -92 -150
s-64 -161 -65 -207c-6 -3 -13 -5 -21 -5c-28 0 -50 24 -50 68c0 23 11 86 32 201c11 57 18 95 21 113c43 -8 68 -24 68 -64c0 -4 -8 -40 -23 -108h4c23 56 49 105 79 147c29 41 52 62 67 62c11 0 23 -7 38 -22s22 -27 22 -38c-28 -95 -46 -200 -31 -280c7 -41 24 -61 51 -61
zM404 57c13 -16 27 -24 43 -24c21 0 40 14 57 42c17 27 29 59 37 96c8 36 12 70 12 103c0 40 -7 60 -21 60c-17 0 -37 -18 -59 -55s-41 -81 -56 -131c-3 -19 -8 -50 -13 -91z" />
    <glyph glyph-name="n_r" unicode="nr" horiz-adv-x="697" 
d="M445 412v-1l-3 -17c20 -7 66 -18 89 -25c11 -4 24 -8 37 -13c26 -9 37 -19 37 -30c0 -3 -33 -114 -33 -194c0 -47 11 -70 34 -70c17 0 34 10 50 31s28 42 36 63l11 31c9 0 13 -4 13 -13c0 -31 -14 -72 -42 -121s-59 -74 -94 -74c-65 0 -98 48 -98 144c0 74 13 142 39 205
c-23 9 -51 19 -84 30c-41 -245 -124 -375 -196 -375c-47 0 -78 54 -78 145c0 35 5 73 16 116c10 42 20 74 30 95l-2 1c-19 -8 -49 -58 -92 -150s-64 -161 -65 -207c-6 -3 -13 -5 -21 -5c-28 0 -50 24 -50 68c0 23 11 86 32 201c11 57 18 95 21 113c43 -8 68 -24 68 -64
c0 -4 -8 -40 -23 -108h4c23 56 49 105 79 147c29 41 52 62 67 62c11 0 23 -7 38 -22s22 -27 22 -38l-4 -14c-10 -36 -33 -125 -33 -190c0 -43 7 -65 21 -65c39 0 91 103 135 302c-28 19 -49 50 -49 77c0 43 26 83 59 83c15 0 30 -6 47 -18c-8 -42 -14 -75 -18 -100z" />
    <glyph glyph-name="o_h" unicode="oh" horiz-adv-x="751" 
d="M455 208l4 -1c23 61 50 113 81 156c30 43 53 64 69 64c10 0 22 -7 37 -21c15 -15 22 -27 22 -38l-4 -14c-10 -35 -33 -127 -33 -191c0 -46 12 -69 36 -69c17 0 34 10 50 31c15 20 26 40 33 61l11 31c9 0 13 -4 13 -13c0 -36 -21 -101 -64 -153c-21 -26 -44 -39 -68 -39
c-65 0 -97 49 -97 146c0 35 5 74 16 117s21 76 30 97c-9 0 -27 -24 -53 -72c-26 -49 -51 -107 -75 -176c-25 -69 -38 -125 -39 -170c-7 -1 -12 -2 -15 -2c-23 0 -37 12 -44 35s-8 40 -8 69c0 49 9 122 26 218c-25 -22 -55 -39 -89 -51c-7 -75 -33 -151 -88 -206
c-28 -27 -59 -41 -93 -41c-80 0 -120 66 -120 158c-3 118 74 284 179 282c63 0 91 -42 98 -87c13 -10 21 -30 24 -59c31 4 65 24 100 60c7 33 31 141 74 324c55 -3 82 -33 82 -88c0 -41 -20 -109 -60 -203c-16 -66 -28 -118 -35 -155zM258 215h-9c-42 0 -63 21 -63 62
c0 16 4 37 8 46l2 7c15 5 28 8 39 9c-5 22 -15 33 -30 33c-58 4 -124 -146 -121 -236c0 -56 19 -93 55 -93c25 0 51 18 76 54c25 35 39 75 43 118z" />
    <glyph glyph-name="o_l" unicode="ol" horiz-adv-x="620" 
d="M462 124v-32c0 -103 35 -174 95 -175c-3 -16 -13 -32 -31 -48s-36 -24 -54 -24c-69 0 -106 95 -106 232v7c-16 -5 -32 -7 -48 -7c-23 0 -43 5 -60 14c-35 -77 -83 -115 -145 -115c-80 0 -120 66 -120 158c-3 118 74 284 179 282c53 0 85 -26 97 -78c8 -1 14 -3 19 -4
c5 -21 7 -44 7 -71c0 -45 -7 -88 -21 -130c13 -9 29 -13 50 -13c15 0 29 2 43 6c4 86 17 176 38 269s47 171 79 236s64 97 95 97c42 0 63 -42 63 -127c0 -76 -17 -162 -50 -258c-34 -96 -77 -169 -130 -219zM228 119c-20 26 -30 62 -30 109c0 52 13 86 39 103
c-5 27 -15 41 -32 41c-58 4 -124 -146 -121 -236c0 -56 19 -93 55 -93c33 0 62 25 89 76zM596 628c0 26 -3 39 -10 39c-15 0 -37 -53 -64 -160s-46 -211 -55 -314c69 97 112 242 129 435z" />
    <glyph glyph-name="o_m" unicode="om" horiz-adv-x="955" 
d="M639 120h1c15 59 41 118 76 175s63 86 84 86c10 0 22 -7 36 -22s21 -27 21 -38c0 -2 -4 -26 -13 -72c-9 -47 -14 -84 -14 -111c0 -49 12 -74 37 -74c17 0 34 10 49 31c15 20 27 40 34 61l10 31c9 0 13 -4 13 -13c0 -31 -13 -71 -40 -119c-27 -49 -57 -73 -91 -73
c-65 0 -98 49 -98 146c0 35 4 72 12 110c8 37 16 66 25 85l-1 1c-17 -6 -44 -49 -80 -130s-54 -145 -54 -193c0 -8 -2 -9 -15 -9c-51 0 -76 23 -76 80c0 63 16 165 48 304l-5 2c-14 -19 -29 -42 -46 -70c-17 -29 -38 -71 -61 -128s-39 -112 -48 -165c-6 -3 -13 -5 -21 -5
c-28 0 -50 24 -50 68c0 12 6 48 17 104c5 28 10 54 13 77h-2c-31 -105 -81 -159 -132 -159h-7c-37 -83 -86 -124 -148 -124c-80 0 -120 66 -120 158c-3 118 74 284 179 282c49 0 85 -28 96 -77l20 -5c5 -19 7 -44 7 -73c0 -36 -4 -70 -13 -103h3l2 -1c27 0 51 26 74 77
c22 51 40 113 53 188c8 1 14 2 18 2c40 0 60 -25 60 -75c0 -23 -5 -63 -15 -118l2 -1c23 57 49 105 77 145c28 39 52 59 73 59c32 0 48 -25 48 -74c0 -5 -1 -12 -2 -21c-24 -145 -36 -218 -36 -219zM226 117c-23 17 -35 49 -35 97c0 51 17 98 46 117c-4 27 -16 40 -35 40
c-54 5 -121 -144 -118 -235c0 -56 19 -93 55 -93c33 0 62 25 87 74z" />
    <glyph glyph-name="o_n" unicode="on" horiz-adv-x="764" 
d="M462 188h5c23 56 49 105 79 147c29 41 52 62 67 62c11 0 23 -7 38 -22s22 -27 22 -38l-4 -14c-10 -36 -34 -125 -34 -190c0 -46 12 -69 37 -69c17 0 34 10 49 31c15 20 26 40 33 61l11 31c9 0 13 -4 13 -13c0 -31 -13 -71 -40 -119c-27 -49 -57 -73 -91 -73
c-65 0 -98 49 -98 146c0 35 5 73 16 116c10 42 20 74 30 95l-2 1c-19 -8 -49 -58 -92 -150s-64 -161 -65 -207c-6 -3 -13 -5 -21 -5c-28 0 -50 24 -50 68c0 5 12 79 36 222h-3c-27 -112 -81 -169 -129 -169c-1 0 -6 1 -7 1c-37 -83 -86 -124 -148 -124
c-80 0 -120 66 -120 158c0 83 28 174 84 236c28 31 59 46 93 46c54 0 87 -26 98 -77l20 -5c5 -20 7 -45 7 -74c0 -36 -4 -70 -13 -102c3 -1 5 -2 7 -2c19 0 39 24 62 72c23 47 40 112 53 194c4 1 10 1 18 1c43 0 60 -22 60 -89c0 -29 -7 -77 -21 -146zM227 117
c-23 15 -35 48 -35 97s16 97 44 116c-4 27 -14 41 -29 41c-62 3 -125 -139 -122 -235c0 -56 19 -93 55 -93c33 0 62 25 87 74z" />
    <glyph glyph-name="oacute_n" unicode="&#xf3;n" horiz-adv-x="764" 
d="M462 188h5c23 56 49 105 79 147c29 41 52 62 67 62c11 0 23 -7 38 -22s22 -27 22 -38l-4 -14c-10 -36 -34 -125 -34 -190c0 -46 12 -69 37 -69c17 0 34 10 49 31c15 20 26 40 33 61l11 31c9 0 13 -4 13 -13c0 -31 -13 -71 -40 -119c-27 -49 -57 -73 -91 -73
c-65 0 -98 49 -98 146c0 35 5 73 16 116c10 42 20 74 30 95l-2 1c-19 -8 -49 -58 -92 -150s-64 -161 -65 -207c-6 -3 -13 -5 -21 -5c-28 0 -50 24 -50 68c0 5 12 79 36 222h-3c-27 -112 -81 -169 -129 -169c-1 0 -6 1 -7 1c-37 -83 -86 -124 -148 -124
c-80 0 -120 66 -120 158c0 83 28 174 84 236c28 31 59 46 93 46c54 0 87 -26 98 -77l20 -5c5 -20 7 -45 7 -74c0 -36 -4 -70 -13 -102c3 -1 5 -2 7 -2c19 0 39 24 62 72c23 47 40 112 53 194c4 1 10 1 18 1c43 0 60 -22 60 -89c0 -29 -7 -77 -21 -146zM227 117
c-23 15 -35 48 -35 97s16 97 44 116c-4 27 -14 41 -29 41c-62 3 -125 -139 -122 -235c0 -56 19 -93 55 -93c33 0 62 25 87 74zM167 453c3 21 17 49 41 84c23 35 45 52 65 52c15 0 31 -9 50 -28c-63 -76 -109 -114 -138 -114c-7 0 -13 2 -18 6z" />
    <glyph glyph-name="o_ntilde" unicode="o&#xf1;" horiz-adv-x="764" 
d="M462 188h5c23 56 49 105 79 147c29 41 52 62 67 62c11 0 23 -7 38 -22s22 -27 22 -38l-4 -14c-10 -36 -34 -125 -34 -190c0 -46 12 -69 37 -69c17 0 34 10 49 31c15 20 26 40 33 61l11 31c9 0 13 -4 13 -13c0 -31 -13 -71 -40 -119c-27 -49 -57 -73 -91 -73
c-65 0 -98 49 -98 146c0 35 5 73 16 116c10 42 20 74 30 95l-2 1c-19 -8 -49 -58 -92 -150s-64 -161 -65 -207c-6 -3 -13 -5 -21 -5c-28 0 -50 24 -50 68c0 5 12 79 36 222h-3c-27 -112 -81 -169 -129 -169c-1 0 -6 1 -7 1c-37 -83 -86 -124 -148 -124
c-80 0 -120 66 -120 158c0 83 28 174 84 236c28 31 59 46 93 46c54 0 87 -26 98 -77l20 -5c5 -20 7 -45 7 -74c0 -36 -4 -70 -13 -102c3 -1 5 -2 7 -2c19 0 39 24 62 72c23 47 40 112 53 194c4 1 10 1 18 1c43 0 60 -22 60 -89c0 -29 -7 -77 -21 -146zM227 117
c-23 15 -35 48 -35 97s16 97 44 116c-4 27 -14 41 -29 41c-62 3 -125 -139 -122 -235c0 -56 19 -93 55 -93c33 0 62 25 87 74zM669 534c7 0 14 -16 14 -35c0 -28 -19 -52 -66 -52c-12 0 -32 2 -59 7s-47 7 -58 7c-21 0 -37 -6 -46 -17c-8 0 -15 16 -15 35c0 28 19 52 66 52
c11 0 31 -2 58 -7s47 -7 59 -7c23 0 38 6 47 17z" />
    <glyph glyph-name="o_o" unicode="oo" horiz-adv-x="718" 
d="M627 114h-11c-33 -81 -87 -138 -155 -138c-80 0 -120 65 -120 160c0 76 20 148 61 215c-42 -3 -81 -5 -116 -5c7 -24 11 -49 11 -75c4 -129 -80 -298 -188 -295c-80 0 -120 66 -120 158c0 51 9 98 28 140c19 41 43 62 74 62c16 0 33 -7 41 -12l5 -4
c-38 -53 -57 -115 -57 -184c0 -56 20 -93 56 -93c32 0 59 22 82 66s34 92 34 145c0 37 -5 68 -14 92c-69 1 -120 6 -154 14v2c0 13 16 74 100 74c35 0 64 -17 85 -52c9 -1 22 -1 41 -1c39 0 79 3 120 8c37 43 76 64 117 64c37 0 57 -18 61 -54c-22 -16 -62 -29 -119 -39
c-33 -61 -58 -153 -58 -222c0 -65 19 -97 56 -97c35 0 66 28 93 85c-28 18 -42 50 -42 95c0 61 24 114 60 114c30 0 45 -29 45 -88c0 -26 -4 -56 -13 -89c3 -1 7 -2 12 -2c19 0 38 10 57 31c18 20 31 40 40 61l13 30c5 0 7 -3 7 -10c-15 -105 -72 -156 -132 -156z" />
    <glyph glyph-name="o_r" unicode="or" horiz-adv-x="682" 
d="M268 100h-7c-32 -73 -85 -124 -148 -124c-80 0 -120 66 -120 158c-3 118 74 284 179 282c52 0 84 -26 96 -77l20 -5c5 -21 7 -46 7 -76c0 -35 -4 -69 -13 -100c1 -1 3 -1 6 -1c33 0 71 79 99 216c-27 19 -45 49 -45 74c0 43 26 83 59 83c15 0 30 -6 47 -18l-21 -118
c20 -7 66 -18 89 -25c11 -4 24 -8 37 -13c26 -9 37 -19 37 -30c0 -3 -33 -114 -33 -194c0 -47 11 -70 34 -70c17 0 34 10 50 31s28 42 35 63l12 31c9 0 13 -4 13 -13c0 -31 -14 -72 -42 -121s-59 -74 -94 -74c-65 0 -98 48 -98 144c0 74 13 142 39 205c-22 9 -51 19 -86 31
h-1c-33 -173 -84 -259 -151 -259zM226 117c-24 17 -36 49 -36 96c0 51 18 99 47 118c-4 27 -15 41 -34 41c-29 0 -56 -27 -81 -82s-38 -107 -38 -154c0 -56 19 -93 55 -93c32 0 61 25 87 74z" />
    <glyph glyph-name="o_s" unicode="os" horiz-adv-x="634" 
d="M268 99h-6c-32 -75 -84 -123 -149 -123c-80 0 -120 66 -120 158c-3 118 74 284 179 282c53 0 85 -26 97 -78c8 -1 14 -3 19 -4c5 -21 7 -44 7 -71c0 -32 -4 -66 -13 -103c1 -1 3 -1 6 -1c32 0 89 56 118 149c-11 28 -16 53 -16 74c0 45 27 94 50 114l16 15
c33 -14 49 -35 49 -62c3 -24 -28 -82 -37 -107c13 -33 31 -72 54 -116s37 -74 43 -89c45 42 78 92 99 150c8 0 12 -5 12 -15c0 -17 -10 -44 -30 -80s-44 -69 -71 -98c1 -3 1 -7 1 -12c0 -37 -13 -65 -38 -86c-26 -21 -55 -31 -87 -31c-47 0 -82 23 -82 63c0 12 3 24 8 35
c3 -1 8 -1 15 -1c33 0 65 7 96 22c-4 34 -8 53 -23 90c-6 14 -10 24 -12 29s-7 15 -14 32c-8 16 -13 25 -14 28h-2c-40 -108 -106 -164 -155 -164zM227 118c-19 22 -29 57 -29 104c0 45 15 89 39 108c-3 28 -14 42 -32 42c-58 4 -124 -146 -121 -236c0 -56 19 -93 55 -93
c34 0 63 25 88 75z" />
    <glyph glyph-name="o_t" unicode="ot" horiz-adv-x="600" 
d="M621 198v-3c-7 -51 -26 -101 -56 -149c-31 -48 -67 -72 -109 -72c-59 0 -89 48 -89 145c0 43 5 92 16 147c-25 -34 -55 -57 -89 -70c-13 -61 -35 -112 -68 -155c-33 -44 -72 -65 -115 -65c-80 0 -120 66 -120 158c0 61 14 117 42 168s65 79 112 85c15 34 37 51 68 51
c49 0 91 -54 91 -151c0 -15 -1 -30 -3 -45c40 16 81 57 101 109c3 13 7 25 10 35c-7 -1 -18 -1 -31 -1c-24 0 -36 10 -36 30c0 7 2 17 6 29c24 9 52 17 85 22c21 65 37 107 49 128c34 -7 51 -26 51 -57c0 -19 -5 -42 -16 -67c62 -5 93 -27 93 -66c0 -4 -1 -11 -2 -20
c-60 2 -100 3 -121 4c-24 -90 -36 -171 -36 -242c0 -59 14 -89 41 -89c22 0 44 15 66 46c21 31 37 67 48 108c8 0 12 -4 12 -13zM244 188c-33 1 -58 15 -77 44c-19 28 -30 60 -31 96c-33 -45 -54 -125 -54 -192c0 -56 19 -93 55 -93c45 0 86 64 107 145zM254 237
c3 21 5 39 5 54c0 49 -17 79 -34 79c-15 0 -27 -21 -27 -54c0 -36 20 -71 56 -79z" />
    <glyph glyph-name="o_v" unicode="ov" horiz-adv-x="701" 
d="M609 150c-37 -95 -92 -166 -143 -166c-69 0 -103 52 -103 157c0 40 4 84 11 131s11 74 11 81c0 22 -10 33 -30 33c-26 0 -52 -15 -77 -46c11 -27 17 -57 17 -92c0 -66 -17 -128 -52 -185c-35 -58 -79 -87 -130 -87c-80 0 -120 66 -120 158c-3 118 74 284 179 282
c33 0 61 -13 84 -39c36 35 73 52 112 52c59 0 96 -23 96 -102c0 -25 -2 -61 -6 -108c-5 -47 -7 -79 -7 -96c0 -51 11 -76 34 -76c29 0 65 50 92 123c-19 22 -29 58 -29 107c0 45 8 86 23 124c13 5 23 8 31 8c31 0 46 -27 46 -81c0 -32 -7 -72 -20 -121c5 -10 13 -15 23 -15
c14 0 30 9 47 28s28 39 35 60c5 0 7 -3 7 -8c0 -28 -10 -56 -29 -83c-19 -28 -46 -42 -79 -42c-8 0 -16 1 -23 3zM232 128c-31 7 -46 33 -46 79c0 48 20 108 47 144c-9 14 -18 21 -28 21c-58 4 -124 -146 -121 -236c0 -56 19 -93 55 -93c35 0 66 28 93 85z" />
    <glyph glyph-name="o_w" unicode="ow" horiz-adv-x="904" 
d="M556 113c-44 -76 -95 -126 -132 -126c-41 0 -61 50 -61 151c0 37 3 80 10 127s10 76 10 85c0 25 -9 37 -28 37c-26 0 -52 -15 -77 -46c11 -24 16 -54 16 -90c0 -84 -27 -172 -84 -231c-29 -29 -61 -44 -97 -44c-80 0 -120 66 -120 158c-3 118 74 284 179 282
c33 0 61 -13 84 -39c36 35 75 52 117 52c61 0 91 -30 91 -118c0 -15 -2 -41 -6 -79c-5 -39 -7 -67 -8 -84c0 -47 8 -70 24 -70c23 0 49 30 79 91c0 132 38 211 77 211c26 0 39 -17 39 -51c0 -31 -12 -78 -23 -105l-8 -19c-3 -17 -4 -36 -4 -57c0 -79 16 -119 48 -119
c35 0 74 60 94 144c-18 21 -27 56 -27 104c0 24 3 51 12 84s29 58 57 58c17 0 33 0 33 -35c0 -53 -8 -110 -23 -173c6 -13 17 -19 32 -19c36 0 68 65 72 84l2 4c5 0 7 -3 7 -8c0 -28 -10 -56 -29 -83c-19 -28 -46 -42 -79 -42c-9 0 -16 1 -23 3c-33 -101 -84 -170 -144 -170
c-63 0 -99 44 -110 133zM232 128c-31 9 -46 36 -46 79c0 48 22 109 46 144c-7 14 -16 21 -27 21c-58 4 -124 -146 -121 -236c0 -56 19 -93 55 -93c35 0 66 28 93 85z" />
    <glyph glyph-name="o_z" unicode="o&#x7a;" horiz-adv-x="719" 
d="M279 114h-11c-33 -81 -87 -138 -155 -138c-80 0 -120 66 -120 158c-3 118 74 284 179 282c63 0 91 -41 98 -86c17 -13 25 -40 25 -81c0 -26 -4 -56 -13 -89c3 -1 7 -2 12 -2c25 0 46 16 65 47c18 31 31 64 38 97c-12 9 -18 22 -18 38c0 17 6 86 64 74
c-1 -11 -3 -24 -4 -39c40 -9 92 -13 157 -13l80 5c2 -7 3 -14 3 -22c0 -29 -5 -44 -16 -47l-197 -198c73 -32 127 -48 162 -48c25 0 42 9 52 28c4 -3 6 -10 6 -21c0 -21 -6 -42 -19 -64c-13 -21 -30 -31 -52 -31c-29 0 -69 13 -119 39c-50 25 -78 39 -85 41
c-11 -12 -36 -38 -45 -49c-9 0 -23 26 -23 42c0 41 38 76 82 76c16 16 45 44 87 84c41 39 71 69 90 88c-11 0 -61 -5 -92 -5c-38 0 -67 3 -87 9c-10 -56 -29 -99 -58 -129c-29 -31 -57 -46 -86 -46zM232 128c-28 18 -42 50 -42 95c0 52 18 99 46 111c-5 25 -15 38 -31 38
c-58 4 -124 -146 -121 -236c0 -56 19 -93 55 -93c35 0 66 28 93 85z" />
    <glyph glyph-name="p_j" unicode="pj" horiz-adv-x="496" 
d="M92 281l3 -1c27 63 59 95 96 95c13 0 30 -9 51 -28c20 -19 33 -39 38 -60c3 -13 5 -31 5 -52c3 -109 -62 -258 -152 -256c-33 0 -60 14 -83 42c-8 -72 -12 -134 -12 -187s4 -96 12 -127c-6 -2 -13 -3 -21 -3c-45 0 -88 28 -88 116c0 51 16 155 49 314
c34 158 53 273 60 344c0 1 2 2 5 2c13 0 28 -6 44 -17c16 -12 24 -30 24 -53c2 -27 -14 -34 -31 -129zM55 57c13 -16 27 -24 43 -24c21 0 40 14 57 42c17 27 29 59 37 96c8 36 12 70 12 103c0 40 -7 60 -21 60c-17 0 -37 -18 -59 -55s-41 -81 -56 -131
c-3 -19 -8 -50 -13 -91zM461 457h-5c-20 0 -64 5 -64 95c0 42 9 65 27 68c2 1 5 1 10 1c17 0 34 -5 53 -16c18 -11 27 -22 27 -35l-1 -2v-2c-15 -69 -40 -109 -47 -109zM195 -224c1 0 7 -1 8 -1c54 0 87 68 116 181c18 73 32 182 42 286c5 52 9 111 14 178
c56 0 87 -31 87 -71c0 -21 -6 -43 -17 -67c-7 -30 -13 -73 -19 -130c-7 -57 -13 -110 -19 -158c-6 -47 -14 -95 -24 -142c-21 -95 -63 -154 -123 -154c-40 0 -67 32 -67 65c0 3 1 8 2 13z" />
    <glyph glyph-name="p_l" unicode="pl" horiz-adv-x="585" 
d="M451 147v-27c0 -135 31 -203 94 -203c-3 -16 -13 -32 -31 -48s-36 -24 -54 -24c-65 0 -102 83 -106 206c-47 -49 -116 -81 -176 -81c-47 0 -92 24 -92 61c0 16 10 34 18 42l5 6c9 -14 20 -25 34 -32c17 23 31 58 43 105s18 88 18 122c0 40 -7 60 -22 60
c-17 0 -37 -18 -58 -53s-40 -78 -55 -127c-21 -129 -31 -236 -31 -320c0 -53 4 -96 12 -127c-6 -2 -13 -3 -21 -3c-45 0 -88 28 -88 116c0 51 16 155 49 314c34 158 53 273 60 344c0 1 2 2 5 2c13 0 28 -6 44 -17c16 -12 24 -30 24 -53c0 -17 -6 -36 -17 -59l-2 -9
c-3 -11 -8 -37 -13 -61l4 -1c29 63 62 95 97 95c13 0 30 -10 51 -29s33 -39 37 -60c3 -15 5 -34 5 -56c0 -73 -26 -151 -67 -195c48 7 93 29 136 68c2 87 13 179 32 276c19 96 44 178 75 247c31 68 62 102 94 102c40 0 60 -35 60 -106c0 -66 -15 -144 -44 -235
c-30 -91 -70 -171 -120 -240zM455 219c36 67 64 143 85 226c20 83 30 147 30 192c0 20 -3 30 -8 30c-15 0 -34 -49 -58 -148c-25 -99 -41 -199 -49 -300z" />
    <glyph glyph-name="p_p" unicode="pp" horiz-adv-x="697" 
d="M449 281l3 -1c29 63 62 95 97 95c13 0 30 -9 51 -28c20 -19 33 -39 38 -60c3 -13 5 -31 5 -52c3 -109 -62 -258 -152 -256c-33 0 -60 15 -83 44c-8 -70 -12 -130 -12 -180c0 -53 4 -96 12 -127c-6 -2 -13 -3 -21 -3c-45 0 -88 28 -88 116c0 49 11 126 33 229
c-41 -63 -101 -97 -156 -97c-47 0 -92 24 -92 61c0 16 10 34 18 42l5 6c9 -14 20 -24 32 -31c18 23 33 60 46 109s19 92 19 129c0 38 -7 57 -21 57c-17 0 -36 -18 -58 -55s-41 -81 -57 -131c-20 -132 -30 -237 -30 -314c0 -53 4 -96 12 -127c-6 -2 -13 -3 -21 -3
c-45 0 -88 28 -88 116c0 51 16 155 49 314c34 158 53 273 60 344c0 1 2 2 5 2c13 0 28 -6 44 -17c16 -12 24 -30 24 -53c0 -17 -6 -36 -17 -59l-2 -9c-3 -11 -8 -37 -13 -61l3 -1c29 63 62 95 97 95c13 0 30 -10 51 -29c21 -20 33 -40 38 -61c3 -13 5 -31 5 -52
c0 -75 -26 -158 -69 -206c56 13 111 64 140 148c28 129 45 230 52 303c0 1 2 2 5 2c13 0 28 -6 44 -17c16 -12 24 -30 24 -53c0 -17 -6 -36 -17 -59l-2 -9c-3 -11 -8 -37 -13 -61zM424 143l-12 -85c14 -17 29 -25 44 -25c21 0 40 14 57 42c17 27 29 59 37 96
c8 36 12 70 12 103c0 40 -7 60 -21 60c-17 0 -37 -19 -60 -57c-23 -39 -42 -83 -57 -134z" />
    <glyph glyph-name="p_r" unicode="pr" horiz-adv-x="698" 
d="M436 359h-1c-19 -88 -30 -136 -61 -214c-15 -37 -31 -68 -48 -91c-34 -48 -87 -84 -148 -84c-47 0 -92 24 -92 61c0 16 10 34 18 42l5 6c8 -12 19 -22 32 -31c19 23 34 57 46 102c11 45 17 86 17 123c0 41 -7 61 -21 61c-17 0 -37 -18 -58 -54c-22 -36 -41 -79 -56 -128
c-21 -128 -31 -234 -31 -318c0 -53 4 -96 12 -127c-6 -2 -13 -3 -21 -3c-45 0 -88 28 -88 116c0 51 16 155 49 314c34 158 53 273 60 344c0 1 2 2 5 2c13 0 28 -6 44 -17c16 -12 24 -30 24 -53c0 -17 -6 -36 -17 -59l-2 -9c-3 -11 -8 -37 -13 -61l3 -1c28 63 60 95 97 95
c13 0 31 -10 52 -29s33 -39 37 -60c3 -17 5 -34 5 -51c0 -72 -22 -151 -62 -196c41 14 76 53 107 117c30 63 53 136 70 219c-28 20 -42 44 -42 72c0 43 26 83 59 83c15 0 30 -6 47 -18l-21 -118c20 -7 66 -18 89 -25c11 -4 24 -8 37 -13c26 -9 37 -19 37 -30
c0 -3 -33 -114 -33 -194c0 -47 11 -70 34 -70c17 0 34 10 50 31s28 42 35 63l12 31c9 0 13 -4 13 -13c0 -31 -14 -72 -42 -121s-59 -74 -94 -74c-65 0 -98 48 -98 144c0 74 13 142 39 205c-22 9 -51 19 -86 31z" />
    <glyph glyph-name="p_s" unicode="ps" horiz-adv-x="632" 
d="M415 279h-2c-16 -80 -41 -149 -79 -210s-93 -99 -156 -99c-47 0 -92 24 -92 61c0 16 10 34 18 42l5 6c10 -13 22 -24 35 -33c17 22 31 56 43 103c11 47 17 88 17 125c0 40 -7 60 -21 60c-17 0 -37 -18 -58 -54c-22 -36 -41 -79 -56 -128c-21 -128 -31 -234 -31 -318
c0 -53 4 -96 12 -127c-6 -2 -13 -3 -21 -3c-45 0 -88 28 -88 116c0 51 16 155 49 314c34 158 53 273 60 344c0 1 2 2 5 2c13 0 28 -6 44 -17c16 -12 24 -30 24 -53c0 -17 -6 -36 -17 -59l-2 -9c-3 -11 -8 -37 -13 -61l3 -1c29 63 62 95 99 95c12 0 28 -10 49 -29
c21 -20 33 -40 38 -60c3 -13 5 -31 5 -52c0 -75 -23 -151 -63 -196c40 11 73 40 94 71c10 15 20 37 31 66c11 28 19 52 25 72c5 19 13 48 23 85c-5 18 -8 35 -8 50c0 45 28 94 49 114l17 15c33 -14 49 -35 49 -62c3 -24 -28 -82 -37 -107c13 -33 31 -72 54 -116
s37 -74 43 -89c45 42 78 92 99 150c8 0 12 -5 12 -15c0 -17 -10 -44 -30 -80s-44 -69 -71 -98c1 -3 1 -7 1 -12c0 -37 -13 -65 -38 -86c-26 -21 -55 -31 -87 -31c-47 0 -82 23 -82 63c0 12 3 24 8 35c3 -1 8 -1 15 -1c33 0 65 7 96 22c-1 29 -16 74 -24 95
c-5 11 -13 29 -24 54c-12 25 -19 41 -22 46z" />
    <glyph glyph-name="q_l" unicode="ql" horiz-adv-x="646" 
d="M295 66h8c17 0 35 4 53 11c-3 17 -4 37 -4 62c0 76 10 159 29 248s45 165 76 229c31 63 63 95 94 95c43 0 65 -43 65 -130c0 -76 -16 -163 -49 -260s-75 -172 -124 -225c6 -53 25 -79 57 -79c27 0 55 18 85 55c30 36 52 82 67 139c9 0 13 -6 13 -19c0 -5 -1 -9 -2 -13
c-13 -71 -39 -128 -78 -173c-39 -46 -79 -68 -120 -68c-49 0 -83 33 -102 100c-12 -4 -25 -6 -38 -6c-21 0 -32 8 -32 23c0 2 1 6 2 11zM181 105l-3 1c-27 -80 -56 -120 -87 -120c-63 0 -94 59 -94 143c0 63 15 122 44 178s65 84 107 84c37 0 64 -12 81 -36l3 29
c0 1 2 1 5 1c13 0 28 -6 44 -17s24 -29 24 -52c0 -17 -6 -37 -17 -59l-4 -14c-11 -53 -56 -247 -56 -408c0 -53 4 -96 13 -128c-6 -2 -13 -3 -21 -3c-45 0 -89 28 -89 116c0 24 1 45 6 76c4 31 6 40 15 80c4 20 7 33 8 40c1 6 5 21 11 46c5 25 9 39 10 43zM220 290l5 33
c-4 14 -18 21 -42 21s-47 -26 -69 -78c-22 -53 -33 -101 -33 -144c0 -35 9 -53 27 -53c22 0 44 22 65 66s36 96 47 155zM442 157c39 57 70 132 93 224c22 91 33 167 33 226c0 29 -3 44 -9 44c-9 0 -23 -28 -40 -83c-18 -56 -35 -124 -50 -203c-15 -80 -24 -149 -27 -208z
" />
    <glyph glyph-name="q_s" unicode="qs" horiz-adv-x="646" 
d="M181 105l-3 1c-27 -80 -56 -120 -87 -120c-63 0 -94 59 -94 143c0 63 15 122 44 178s65 84 107 84c37 0 64 -12 81 -36l3 29c0 1 2 1 5 1c13 0 28 -6 44 -17s24 -29 24 -52c0 -17 -6 -37 -17 -59l-4 -14c-11 -53 -56 -247 -56 -408c0 -53 4 -96 13 -128
c-6 -2 -13 -3 -21 -3c-45 0 -89 28 -89 116c0 24 1 45 6 76c4 31 6 40 15 80c4 20 7 33 8 40c1 6 5 21 11 46c5 25 9 39 10 43zM439 256c-1 0 -1 0 -2 -1c-19 -71 -41 -137 -80 -196c-19 -30 -38 -45 -57 -45c-20 0 -33 9 -40 26c20 5 47 33 81 84c33 50 60 108 80 174
c-27 67 -25 107 -3 151c11 21 21 37 32 47l17 15c54 -19 53 -64 43 -94c-4 -16 -27 -65 -31 -75c13 -33 31 -72 54 -116s37 -74 43 -89c45 42 78 92 99 150c8 0 12 -5 12 -15c0 -17 -10 -44 -30 -80s-44 -69 -71 -98c1 -3 1 -7 1 -12c0 -37 -13 -65 -38 -86
c-26 -21 -55 -31 -87 -31c-47 0 -82 23 -82 63c0 12 3 24 8 35c3 -1 8 -1 15 -1c33 0 65 7 96 22c-2 17 -7 40 -11 57c-3 10 -11 30 -14 38c-4 8 -14 34 -17 39s-17 34 -18 38zM220 290l5 33c-4 14 -18 21 -42 21s-47 -26 -69 -78c-22 -53 -33 -101 -33 -144
c0 -35 9 -53 27 -53c22 0 44 22 65 66s36 96 47 155z" />
    <glyph glyph-name="r_l" unicode="rl" horiz-adv-x="603" 
d="M351 77v15c-28 -63 -69 -113 -114 -113c-65 0 -98 48 -98 144c0 74 13 142 39 205c-22 9 -51 19 -86 31c-11 -51 -24 -121 -39 -210c-16 -89 -22 -139 -19 -151c-2 0 -48 13 -57 45c-2 5 -3 13 -3 25c4 46 31 149 80 309c-27 21 -40 45 -40 70c0 43 26 83 59 83
c15 0 30 -6 47 -18l-21 -118c21 -7 70 -19 94 -26c11 -4 23 -8 36 -13c25 -10 36 -21 32 -33c-5 -16 -17 -67 -28 -134c-11 -68 -3 -126 30 -126s62 34 88 101c-7 5 -10 11 -10 19c0 9 6 17 17 24c9 82 25 163 46 242s46 145 75 199c29 53 57 80 85 81c42 -1 63 -41 63 -121
c0 -81 -18 -168 -53 -261c-35 -94 -77 -155 -125 -183c-1 -17 -2 -40 -2 -71c0 -103 35 -174 95 -175c-3 -16 -13 -32 -31 -48s-36 -24 -54 -24c-69 0 -106 95 -106 232zM454 215c36 37 66 103 91 197c24 94 36 168 36 222c0 22 -3 33 -10 33c-15 1 -35 -49 -61 -149
c-27 -101 -45 -202 -56 -303z" />
    <glyph glyph-name="r_m" unicode="rm" horiz-adv-x="941" 
d="M627 161h4c18 53 44 103 77 150s59 70 78 70c10 0 22 -7 36 -22s21 -27 21 -38c0 -2 -4 -26 -13 -72c-9 -47 -14 -84 -14 -111c0 -49 12 -74 37 -74c17 0 34 10 49 31c15 20 27 40 34 61l10 31c9 0 13 -4 13 -13c0 -31 -13 -71 -40 -119c-27 -49 -57 -73 -91 -73
c-65 0 -98 49 -98 146c0 35 4 72 12 110s16 67 25 86l-2 1c-17 -4 -43 -44 -79 -119c-36 -76 -54 -135 -54 -177c0 -5 -5 -7 -16 -7c-51 0 -76 27 -76 81c0 28 4 60 13 107c4 23 7 41 10 54c3 12 7 32 14 60c6 27 9 42 10 45l-2 1c-11 -7 -46 -50 -85 -136
c-25 -54 -55 -147 -76 -248v-3c-6 -3 -13 -5 -21 -5c-28 0 -50 21 -50 68c0 9 7 56 21 143l-2 1c-31 -136 -80 -211 -135 -211c-65 0 -98 48 -98 144c0 74 13 142 39 205c-22 9 -51 19 -86 31c-39 -186 -59 -303 -59 -352c0 -5 0 -8 1 -9c-9 0 -22 6 -37 18s-23 29 -23 52
c4 46 31 149 80 309c-27 21 -40 45 -40 70c0 43 26 83 59 83c15 0 30 -6 47 -18l-21 -118c21 -7 65 -18 89 -25c11 -3 23 -7 36 -12c25 -9 38 -19 38 -31c0 -3 -33 -114 -33 -194c0 -47 11 -70 34 -70c24 0 50 44 79 132c28 88 45 164 52 228c8 1 14 2 18 2
c40 0 60 -26 60 -78c0 -28 -16 -97 -20 -135h3c25 62 52 115 83 158c30 43 56 65 77 65c28 0 48 -25 48 -66c0 -5 -1 -14 -2 -29c-5 -24 -11 -56 -18 -95c-8 -39 -13 -67 -16 -83z" />
    <glyph glyph-name="r_n" unicode="rn" horiz-adv-x="752" 
d="M424 -12v-5c-6 -3 -13 -5 -21 -5c-28 0 -50 21 -50 68c0 11 5 40 14 93c4 27 7 50 10 70h-3c-35 -153 -81 -230 -137 -230c-65 0 -98 48 -98 144c0 74 13 142 39 205c-22 9 -51 19 -86 31c-39 -201 -59 -318 -59 -352c0 -5 0 -8 1 -9c-9 0 -22 6 -37 18s-23 29 -23 52
c4 46 31 149 80 309c-27 21 -40 45 -40 70c0 43 26 83 59 83c15 0 30 -6 47 -18l-21 -118c20 -7 66 -18 89 -25c11 -4 24 -8 37 -13c26 -9 37 -19 37 -30c0 -3 -33 -114 -33 -194c0 -47 11 -70 34 -70c24 0 51 43 80 130c29 86 46 163 51 230c8 1 14 2 18 2
c40 0 60 -26 60 -78c0 -27 -6 -79 -19 -158h2c23 56 49 105 79 147c29 41 52 62 67 62c11 0 23 -7 38 -22s22 -27 22 -38l-4 -14c-10 -36 -34 -125 -34 -190c0 -46 12 -69 37 -69c17 0 34 10 49 31c15 20 26 40 33 61l11 31c9 0 13 -4 13 -13c0 -31 -13 -71 -40 -119
c-27 -49 -57 -73 -91 -73c-65 0 -98 49 -98 146c0 35 5 73 16 116c10 42 20 74 30 95l-2 1c-18 -7 -48 -56 -91 -146c-43 -91 -64 -158 -64 -202c0 -1 -1 -3 -2 -4z" />
    <glyph glyph-name="r_r" unicode="rr" horiz-adv-x="675" 
d="M441 512l-21 -118c21 -7 70 -19 94 -26c11 -4 23 -8 36 -13c25 -10 36 -21 32 -33c-5 -16 -17 -67 -28 -134c-11 -68 -3 -126 30 -126c17 0 34 10 50 31s28 42 36 63l11 31c9 0 13 -4 13 -13c0 -31 -14 -72 -42 -121s-59 -74 -94 -74c-65 0 -98 48 -98 144
c0 74 13 142 39 205c-24 9 -52 19 -85 30c-39 -253 -98 -379 -177 -379c-65 0 -98 48 -98 144c0 74 13 142 39 205c-22 9 -51 19 -86 31c-39 -201 -59 -318 -59 -352c0 -5 0 -8 1 -9c-9 0 -22 6 -37 18s-23 29 -23 52c4 46 31 149 80 309c-27 21 -40 45 -40 70
c0 43 26 83 59 83c15 0 30 -6 47 -18l-21 -118c20 -7 66 -18 89 -25c11 -4 24 -8 37 -13c26 -9 37 -19 37 -30c0 -3 -33 -114 -33 -194c0 -47 11 -70 34 -70c22 0 44 34 66 103s38 139 49 210c-29 21 -43 45 -43 72c0 43 26 83 59 83c15 0 30 -6 47 -18z" />
    <glyph glyph-name="r_z" unicode="r&#x7a;" horiz-adv-x="735" 
d="M121 512l-21 -118c20 -7 66 -18 89 -25c11 -4 24 -8 37 -13c26 -9 37 -19 37 -30c0 -3 -33 -114 -33 -194c0 -47 11 -70 34 -70c20 0 40 26 61 78c21 51 37 110 49 177c-34 29 -5 100 35 99c3 0 7 -1 12 -2c-1 -11 -3 -24 -4 -39c33 -9 95 -14 185 -14c40 0 70 2 90 6
c2 -7 3 -14 3 -22c0 -29 -5 -44 -16 -47l-197 -198c73 -32 127 -48 162 -48c25 0 42 9 52 28c4 -3 6 -10 6 -21c0 -21 -6 -42 -19 -64c-13 -21 -30 -31 -52 -31c-29 0 -69 13 -119 39c-50 25 -78 39 -85 41c-11 -12 -36 -38 -45 -49c-9 0 -23 26 -23 42c0 41 38 76 82 76
c16 16 45 44 87 84c41 39 71 69 90 88c-60 -4 -93 -6 -98 -6c-51 0 -89 6 -115 17c-39 -211 -95 -317 -167 -317c-65 0 -98 48 -98 144c0 74 13 142 39 205c-48 16 -77 27 -86 32c-39 -205 -59 -323 -59 -353c0 -5 0 -8 1 -9c-9 0 -22 6 -37 18s-23 29 -23 52
c2 26 13 75 33 147c19 72 35 126 47 162c-27 21 -40 45 -40 70c0 43 26 83 59 83c15 0 30 -6 47 -18z" />
    <glyph glyph-name="s_l" unicode="sl" horiz-adv-x="503" 
d="M369 147v-27c0 -135 31 -203 94 -203c-3 -16 -13 -32 -31 -48s-36 -24 -54 -24c-69 0 -106 93 -106 228c-24 -15 -45 -27 -62 -34c-19 -47 -68 -74 -117 -74c-47 0 -82 23 -82 63c0 12 3 24 8 35c35 -9 72 -10 111 -3v13c0 31 -14 77 -22 99c-5 11 -13 30 -25 57
c-13 27 -20 42 -22 47h-1c-29 -129 -77 -230 -128 -250c-3 -1 -6 -2 -10 -2c-11 0 -17 9 -17 26c53 13 89 94 137 277c-7 21 -10 40 -10 55c0 45 27 94 50 114l16 15c54 -19 53 -64 43 -94c-4 -16 -27 -65 -31 -75c13 -31 28 -65 47 -100c19 -36 33 -65 43 -88
s16 -45 17 -64c19 9 37 20 56 34c3 87 15 176 34 269s43 172 74 237c30 65 61 98 92 98c40 0 60 -35 60 -106c0 -66 -15 -144 -44 -235c-30 -91 -70 -171 -120 -240zM373 219c36 67 64 143 85 226c20 83 30 147 30 192c0 20 -3 30 -8 30c-15 0 -34 -49 -58 -148
c-25 -99 -41 -199 -49 -300z" />
    <glyph glyph-name="s_m" unicode="sm" horiz-adv-x="856" 
d="M542 161h4c18 53 44 103 77 150s59 70 78 70c10 0 22 -7 36 -22s21 -27 21 -38c0 -2 -4 -26 -13 -72c-9 -47 -14 -84 -14 -111c0 -49 12 -74 37 -74c17 0 34 10 49 31c15 20 26 40 33 61l11 31c9 0 13 -4 13 -13c0 -31 -13 -71 -40 -119c-27 -49 -57 -73 -91 -73
c-65 0 -98 49 -98 146c0 35 4 72 12 110s16 67 25 86l-2 1c-17 -4 -43 -44 -79 -119c-36 -76 -54 -135 -54 -177c0 -5 -5 -7 -16 -7c-51 0 -76 27 -76 81c0 28 4 60 13 107c4 23 7 41 10 54c3 12 7 32 14 60c6 27 9 42 10 45l-2 1c-11 -7 -46 -50 -85 -136
c-25 -54 -55 -147 -76 -248v-3c-6 -3 -13 -5 -21 -5c-28 0 -50 21 -50 68c0 12 6 49 16 110c5 31 9 58 12 81l-3 1c-19 -55 -44 -103 -76 -142c0 -4 1 -11 1 -14c0 -37 -13 -65 -38 -86c-26 -21 -55 -31 -87 -31c-47 0 -82 23 -82 63c0 12 3 24 8 35c3 -1 8 -1 14 -1
c33 0 65 9 96 26c-3 39 -15 76 -41 139c-13 31 -22 51 -25 60c-1 0 -2 0 -3 -1c-14 -67 -32 -124 -55 -172s-47 -77 -73 -88c-3 -1 -6 -2 -10 -2c-11 0 -17 9 -17 26c27 7 50 31 69 73s41 112 66 209c-5 11 -8 26 -8 45c0 52 27 110 66 134c33 -17 49 -37 49 -61
c0 -19 -6 -38 -21 -71c-7 -17 -13 -29 -16 -37c13 -32 30 -70 53 -113c22 -43 35 -70 40 -81c58 65 93 156 106 274c8 1 14 2 18 2c40 0 60 -26 60 -78c0 -15 -7 -60 -20 -135h3c25 62 52 115 83 158c30 43 56 65 77 65c28 0 48 -25 48 -66c0 -5 -1 -14 -2 -29
c-5 -24 -11 -56 -18 -95c-8 -39 -13 -67 -16 -83z" />
    <glyph glyph-name="s_n" unicode="sn" horiz-adv-x="674" 
d="M346 -12v-5c-6 -3 -13 -5 -21 -5c-28 0 -50 24 -50 68c0 13 7 62 18 134c5 35 9 68 12 97c-19 -72 -48 -132 -88 -181c0 -4 1 -11 1 -14c0 -37 -13 -65 -38 -86c-26 -21 -55 -31 -87 -31c-47 0 -82 23 -82 63c0 12 3 24 8 35c3 -1 8 -1 14 -1c33 0 65 9 96 26
c-3 39 -15 76 -41 139c-13 31 -22 51 -25 60c-1 0 -2 0 -3 -1c-15 -70 -35 -131 -61 -183c-25 -53 -51 -79 -77 -79c-11 0 -17 8 -17 23v3c27 7 50 31 69 73s41 112 66 209c-5 16 -8 32 -8 47c0 54 22 98 66 132c33 -15 50 -36 50 -62c3 -22 -27 -80 -38 -107
c13 -32 30 -70 53 -113c22 -43 35 -70 40 -81c28 31 53 72 74 123s32 101 32 151c8 1 14 2 19 2c41 0 65 -30 65 -78c0 -43 -6 -96 -19 -158h3c23 56 49 105 79 147c29 41 52 62 67 62c11 0 23 -7 38 -22s22 -27 22 -38l-4 -14c-10 -36 -34 -125 -34 -190
c0 -46 12 -69 37 -69c17 0 34 10 49 31c15 20 26 40 33 61l11 31c9 0 13 -4 13 -13c0 -31 -13 -71 -40 -119c-27 -49 -57 -73 -91 -73c-65 0 -98 49 -98 146c0 35 5 74 16 117c10 43 20 74 30 95h-2c-17 -8 -47 -57 -90 -147c-43 -91 -65 -158 -65 -201c0 -1 -1 -3 -2 -4z
" />
    <glyph glyph-name="s_r" unicode="sr" horiz-adv-x="601" 
d="M339 359h-3c-17 -113 -62 -218 -118 -282c-3 -71 -62 -112 -125 -112c-47 0 -82 23 -82 63c0 12 3 24 8 35c3 -1 9 -1 17 -1c33 0 64 7 94 22c-3 40 -13 75 -42 143c-15 34 -23 54 -25 60c-1 0 -2 0 -3 -1c-14 -67 -32 -124 -55 -172s-47 -77 -73 -88c-3 -1 -6 -2 -10 -2
c-11 0 -17 8 -17 23v3c27 7 50 31 69 73c19 41 41 111 66 208c-5 16 -8 33 -8 50c0 47 22 90 66 130c32 -14 48 -34 48 -61c0 -20 -7 -42 -21 -73c-7 -15 -12 -27 -15 -35c13 -33 31 -71 54 -115c23 -45 36 -73 41 -85c48 54 81 131 100 232c-25 17 -44 48 -44 73
c0 43 26 83 59 83c15 0 30 -6 47 -18l-21 -118c20 -7 66 -18 89 -25c11 -4 24 -8 37 -13c26 -9 37 -19 37 -30c0 -3 -33 -114 -33 -194c0 -47 11 -70 34 -70c17 0 34 10 50 31s28 42 36 63l11 31c9 0 13 -4 13 -13c0 -31 -14 -72 -42 -121s-59 -74 -94 -74
c-65 0 -98 48 -98 144c0 74 13 142 39 205c-22 9 -51 19 -86 31z" />
    <glyph glyph-name="s_s" unicode="ss" horiz-adv-x="554" 
d="M583 287c8 0 12 -5 12 -15c0 -17 -10 -44 -30 -80s-44 -69 -71 -98c1 -3 1 -7 1 -12c0 -37 -13 -65 -38 -86c-26 -21 -55 -31 -87 -31c-47 0 -82 23 -82 63c0 12 3 24 8 35c3 -1 8 -1 15 -1c33 0 65 7 96 22c-3 40 -15 75 -46 143c-15 33 -24 53 -27 60
c-1 -1 -2 -1 -3 -1c-27 -68 -65 -133 -114 -194c0 -3 1 -9 1 -10c0 -37 -13 -65 -38 -86c-26 -21 -55 -31 -87 -31c-47 0 -82 23 -82 63c0 12 3 24 8 35c8 -2 16 -3 24 -3c29 0 58 8 87 24c-3 40 -13 75 -42 143c-15 34 -23 54 -25 60c-1 0 -2 0 -3 -1
c-14 -67 -32 -124 -55 -172s-47 -77 -73 -88c-3 -1 -6 -2 -10 -2c-11 0 -17 9 -17 26c27 7 51 33 71 79c20 45 43 117 68 216c-3 11 -4 24 -4 37c0 45 27 94 50 114l16 15c32 -14 48 -34 48 -61c0 -16 -6 -38 -12 -53s-22 -48 -27 -60c13 -33 29 -69 50 -110s34 -68 39 -81
c44 47 82 109 113 186c-5 19 -8 36 -8 50c0 45 28 94 49 114l17 15c33 -14 49 -35 49 -62c3 -24 -28 -82 -37 -107c13 -33 31 -72 54 -116s37 -74 43 -89c45 42 78 92 99 150z" />
    <glyph glyph-name="t_f" unicode="tf" horiz-adv-x="486" 
d="M190 95c-32 -77 -75 -122 -111 -122c-51 0 -88 51 -88 146c0 56 10 124 29 203c-34 9 -52 24 -54 45c0 1 23 6 69 14c30 109 55 180 74 213c34 -7 51 -26 51 -57c0 -23 -11 -61 -34 -113c-5 -11 -8 -21 -10 -30c47 7 95 11 142 14c35 127 68 216 97 267
c13 23 34 35 62 35c9 0 19 -2 31 -7c-27 -33 -61 -130 -102 -291c29 -1 59 -12 90 -33c30 -21 45 -37 45 -47c0 -6 -52 -13 -157 -20c30 -34 52 -80 67 -137c14 -57 21 -113 21 -167c0 -79 -13 -146 -40 -200c-27 -53 -55 -80 -84 -80c-25 0 -51 19 -76 56
c-25 38 -38 80 -38 127c0 52 5 113 16 184zM316 278c-32 -153 -48 -272 -48 -355c0 -61 10 -92 30 -92c36 0 69 70 69 186c0 108 -17 195 -51 261zM231 307c-13 -1 -31 -1 -55 -1c-28 0 -55 1 -80 3c-12 -63 -18 -118 -18 -163c0 -63 10 -95 30 -95c17 0 37 26 62 77
s45 111 61 179z" />
    <glyph glyph-name="t_h" unicode="th" horiz-adv-x="611" 
d="M284 -23v-23c-29 -5 -49 4 -57 27c-8 24 -10 43 -10 75c0 20 1 35 2 46c-31 -73 -80 -128 -139 -128s-89 48 -89 145c0 79 19 182 57 309c-121 -3 -176 8 -196 63c0 3 75 11 225 25c15 41 25 67 32 78c34 -7 51 -26 51 -57c0 -4 -1 -10 -1 -14c47 4 94 7 140 9l29 122
c51 -1 77 -28 77 -81c0 -11 -2 -25 -5 -43c37 -8 69 -26 96 -55c14 -16 17 -24 9 -25c-33 -2 -76 -4 -128 -7c-11 -35 -27 -78 -27 -80c-15 -63 -27 -115 -35 -155l4 -1c23 61 50 113 81 156c30 43 53 64 69 64c10 0 22 -7 37 -21c15 -15 22 -27 22 -38l-4 -14
c-10 -35 -33 -126 -33 -191c0 -46 12 -69 36 -69c17 0 34 10 50 31c15 20 26 40 33 61l11 31c9 0 13 -4 13 -13c0 -36 -21 -101 -64 -153c-21 -26 -44 -39 -68 -39c-65 0 -97 49 -97 146c0 35 5 74 16 117s21 76 30 97c-9 0 -26 -24 -52 -72c-27 -49 -52 -105 -76 -170
c-25 -65 -38 -116 -39 -153zM277 438l-148 -6l-3 -8c-9 -22 -20 -63 -31 -122c-11 -60 -17 -112 -17 -156c0 -59 14 -89 41 -89c22 0 44 15 65 44s36 63 47 104c9 57 25 135 46 233z" />
    <glyph glyph-name="t_i" unicode="ti" horiz-adv-x="435" 
d="M129 431l-3 -7c-9 -22 -20 -63 -31 -122c-11 -60 -17 -112 -17 -156c0 -59 14 -89 41 -89c22 0 44 15 66 46c21 31 37 67 48 108c4 30 11 68 21 114c9 46 14 71 15 76c60 -9 77 -27 77 -64c0 -9 -6 -37 -18 -83c-12 -47 -18 -88 -18 -124c0 -41 12 -62 37 -62
c17 0 34 12 50 36c15 24 26 48 33 72l11 35c9 0 13 -4 13 -13c-1 -37 -25 -109 -69 -168c-22 -29 -45 -44 -68 -44c-60 0 -90 46 -90 137c-31 -84 -83 -149 -147 -149c-59 0 -89 48 -89 145c0 79 19 182 57 309h-19c-7 0 -20 -1 -25 -1c-96 0 -133 20 -152 64
c0 1 42 9 117 18c37 4 74 8 110 11c13 39 23 63 30 74c34 -7 51 -26 51 -57c0 -5 0 -9 -1 -11c37 1 64 2 80 2c30 0 60 -11 91 -32s46 -37 46 -48c0 -2 -1 -3 -3 -4c-14 -3 -95 -7 -244 -13zM418 638c-15 -69 -41 -109 -48 -109h-6c-17 0 -63 6 -63 94c0 43 9 66 28 69
c2 1 5 1 10 1c18 0 36 -6 53 -17c17 -12 26 -25 26 -38z" />
    <glyph glyph-name="t_j" unicode="tj" horiz-adv-x="379" 
d="M325 -160h-2c-5 21 -25 37 -60 49c-21 -124 -43 -205 -90 -265c-23 -30 -51 -45 -82 -45c-45 0 -119 35 -173 103c-27 35 -40 71 -40 108s15 69 45 94s65 43 107 53c41 10 85 15 133 15c13 0 23 0 30 -1c9 41 19 94 28 157c-32 -77 -81 -134 -141 -134
c-59 0 -89 48 -89 145c0 79 19 182 57 309h-19c-115 -4 -157 16 -177 63c0 1 42 9 117 18c37 4 74 8 110 11c13 39 23 63 30 74c34 -7 51 -26 51 -57c0 -5 0 -9 -1 -11c37 1 64 2 80 2c39 0 76 -17 113 -50c20 -17 28 -28 23 -33c-1 -1 -3 -1 -4 -1c-47 -4 -128 -8 -242 -13
l-3 -7c-9 -22 -20 -63 -31 -122c-11 -60 -17 -112 -17 -156c0 -59 14 -89 41 -89c22 0 44 15 66 46c21 31 37 67 48 108h1c7 67 13 130 17 189c67 -1 87 -28 87 -71c0 -23 -6 -46 -17 -67c-11 -53 -21 -118 -34 -213c-7 -47 -12 -83 -15 -107c58 -13 87 -33 87 -60
c0 -29 -28 -42 -34 -42zM183 -96c-7 1 -16 1 -29 1c-79 0 -137 -15 -176 -44c-38 -29 -57 -63 -57 -102c0 -55 40 -102 93 -102c71 0 128 82 169 247zM418 638c-15 -69 -41 -109 -48 -109h-6c-17 0 -63 6 -63 94c0 43 9 66 28 69c2 1 5 1 10 1c18 0 36 -6 53 -17
c17 -12 26 -25 26 -38z" />
    <glyph glyph-name="t_l" unicode="tl" horiz-adv-x="475" 
d="M414 -83c-3 -16 -13 -32 -31 -48s-36 -24 -54 -24c-69 0 -106 95 -106 232c0 17 0 29 1 38c-31 -80 -81 -141 -144 -141c-59 0 -89 48 -89 145c0 73 15 162 45 267c-7 -1 -18 -1 -31 -1c-24 0 -36 10 -36 30c0 7 2 17 6 29c24 9 52 17 85 22c21 65 37 107 49 128
c34 -7 51 -26 51 -57c0 -19 -5 -42 -16 -67c62 -5 93 -27 93 -66c0 -4 -1 -11 -2 -20c-60 2 -100 3 -121 4c-24 -90 -36 -171 -36 -242c0 -59 14 -89 41 -89c36 0 75 46 100 110c-4 5 -6 10 -6 15c0 9 6 17 17 24c9 82 25 163 46 242s46 145 75 199c29 53 57 80 85 81
c42 -1 63 -41 63 -121c0 -81 -18 -168 -53 -261c-35 -94 -77 -155 -125 -183c-1 -17 -2 -40 -2 -71c0 -103 35 -174 95 -175zM326 215c36 37 66 103 91 197c24 94 36 168 36 222c0 22 -3 33 -10 33c-15 1 -35 -49 -61 -149c-27 -101 -45 -202 -56 -303z" />
    <glyph glyph-name="t_m" unicode="tm" horiz-adv-x="838" 
d="M524 161h4c18 53 44 103 77 150s59 70 78 70c10 0 22 -7 36 -22s21 -27 21 -38c0 -2 -4 -26 -13 -72c-9 -47 -14 -84 -14 -111c0 -49 12 -74 37 -74c17 0 34 10 49 31c15 20 26 40 33 61l11 31c9 0 13 -4 13 -13c0 -31 -13 -71 -40 -119c-27 -49 -57 -73 -91 -73
c-65 0 -98 49 -98 146c0 35 4 72 12 110s16 67 25 86l-2 1c-17 -4 -43 -44 -79 -119c-36 -76 -54 -135 -54 -177c0 -5 -5 -7 -16 -7c-51 0 -76 27 -76 81c0 28 4 60 13 107c4 23 7 41 10 54c3 12 7 32 14 60c6 27 9 42 10 45l-2 1c-9 -8 -22 -24 -38 -47
c-17 -24 -38 -67 -63 -130s-45 -133 -60 -210c-6 -3 -13 -5 -21 -5c-28 0 -50 24 -50 68c0 11 5 40 14 92c4 26 7 49 10 68h-3c-19 -72 -46 -129 -83 -170s-73 -62 -108 -62c-59 0 -89 48 -89 145c0 73 15 162 45 267c-7 -1 -18 -1 -31 -1c-24 0 -36 10 -36 30
c0 7 2 17 6 29c24 9 52 17 85 22c21 65 37 107 49 128c34 -7 51 -26 51 -57c0 -19 -5 -42 -16 -67c62 -5 93 -27 93 -66c0 -4 -1 -11 -2 -20c-60 2 -100 3 -121 4c-24 -90 -36 -171 -36 -242c0 -59 14 -89 41 -89c24 0 56 29 89 85c32 56 64 159 83 280c52 9 78 -16 78 -76
c0 -5 -3 -27 -10 -74c-4 -23 -7 -44 -10 -61h3c25 62 52 115 83 158c30 43 56 65 77 65c28 0 48 -25 48 -66c0 -5 -1 -14 -2 -29c-4 -25 -10 -56 -18 -95s-13 -67 -16 -83z" />
    <glyph glyph-name="t_n" unicode="tn" horiz-adv-x="650" 
d="M481 339l-2 1c-19 -8 -49 -58 -92 -150s-64 -161 -65 -207c-6 -3 -13 -5 -21 -5c-28 0 -50 21 -50 68c0 13 6 49 16 109c5 29 9 55 12 77l-3 1c-40 -167 -123 -259 -196 -259c-59 0 -89 48 -89 145c0 73 15 162 45 267c-7 -1 -18 -1 -31 -1c-24 0 -36 10 -36 30
c0 7 2 17 6 29c24 9 52 17 85 22c21 65 37 107 49 128c34 -7 51 -26 51 -57c0 -19 -5 -42 -16 -67c62 -5 93 -27 93 -66c0 -4 -1 -11 -2 -20c-60 2 -100 3 -121 4c-24 -90 -36 -171 -36 -242c0 -59 14 -89 41 -89c24 0 55 31 87 88c32 56 65 157 85 277c8 1 14 2 18 2
c41 0 61 -26 61 -78c0 -21 -8 -75 -24 -162h2c1 -1 2 -1 3 -1c23 57 49 107 79 150s53 64 69 64c11 0 23 -7 38 -22s22 -27 22 -38l-4 -14c-10 -36 -34 -125 -34 -190c0 -46 12 -69 37 -69c17 0 34 10 49 31c15 20 26 40 33 61l11 31c9 0 13 -4 13 -13
c0 -31 -13 -71 -40 -119c-27 -49 -57 -73 -91 -73c-65 0 -98 49 -98 146c0 35 5 73 16 116c10 42 20 74 30 95z" />
    <glyph glyph-name="t_r" unicode="tr" horiz-adv-x="587" 
d="M325 359h-2c-22 -129 -56 -226 -102 -289c-46 -64 -93 -96 -141 -96c-59 0 -89 48 -89 145c0 73 15 162 45 267c-7 -1 -18 -1 -31 -1c-24 0 -36 10 -36 30c0 7 2 17 6 29c24 9 52 17 85 22c21 65 37 107 49 128c34 -7 51 -26 51 -57c0 -19 -5 -42 -16 -67
c62 -5 93 -27 93 -66c0 -4 -1 -11 -2 -20c-60 2 -100 3 -121 4c-24 -90 -36 -171 -36 -242c0 -59 14 -89 41 -89c57 0 120 114 169 319c-27 21 -41 45 -41 71c0 43 26 83 59 83c15 0 30 -6 47 -18l-22 -118c21 -7 66 -18 90 -25c11 -3 23 -7 36 -12c25 -9 38 -19 38 -31
c0 -3 -33 -114 -33 -194c0 -47 11 -70 34 -70c17 0 34 10 50 31s28 42 36 63l11 31c9 0 13 -4 13 -13c0 -31 -14 -72 -42 -121s-59 -74 -94 -74c-65 0 -98 48 -98 144c0 74 13 142 39 205c-22 9 -51 19 -86 31z" />
    <glyph glyph-name="t_s" unicode="ts" horiz-adv-x="505" 
d="M289 278c-1 0 -2 0 -3 -1c-12 -48 -20 -78 -37 -130c-9 -26 -18 -48 -29 -66c-34 -59 -74 -107 -140 -107c-59 0 -89 48 -89 145c0 73 15 162 45 267c-7 -1 -18 -1 -31 -1c-24 0 -36 10 -36 30c0 7 2 17 6 29c24 9 52 17 85 22c21 65 37 107 49 128c34 -7 51 -26 51 -57
c0 -19 -5 -42 -16 -67c62 -5 93 -27 93 -66c0 -4 -1 -11 -2 -20c-60 2 -100 3 -121 4c-24 -90 -36 -171 -36 -242c0 -59 14 -89 41 -89c51 0 105 82 150 273c-6 18 -9 35 -9 52c0 45 27 94 50 114l16 15c54 -19 53 -64 43 -94c-4 -16 -27 -65 -31 -75c13 -33 31 -72 54 -116
s37 -74 43 -89c45 42 78 92 99 150c8 0 12 -5 12 -15c0 -17 -10 -44 -30 -80s-44 -69 -71 -98c1 -3 1 -7 1 -12c0 -37 -13 -65 -38 -86c-26 -21 -55 -31 -87 -31c-47 0 -82 23 -82 63c0 12 3 24 8 35c3 -1 8 -1 15 -1c33 0 65 7 96 22c-1 29 -16 72 -25 96
c-5 11 -12 29 -23 53c-11 23 -18 38 -21 45z" />
    <glyph glyph-name="t_t" unicode="tt" horiz-adv-x="452" 
d="M219 103c-31 -75 -80 -129 -139 -129s-89 48 -89 145c0 57 10 128 31 212c-32 11 -49 26 -51 45c0 1 22 6 67 15c29 104 53 172 71 203c34 -7 51 -26 51 -57c0 -29 -12 -73 -36 -133c44 7 94 12 150 15c27 92 48 150 63 175c34 -7 51 -26 51 -57c0 -23 -11 -61 -34 -113
c-1 -3 -2 -4 -2 -5c27 -4 54 -16 81 -35c26 -20 39 -34 39 -43c0 -6 -48 -13 -145 -20c-14 -65 -21 -124 -21 -175c0 -59 14 -89 41 -89c22 0 44 15 66 46c21 31 37 67 48 108c8 0 12 -4 12 -13c-6 -51 -24 -101 -55 -150c-31 -50 -67 -74 -110 -74c-56 0 -86 43 -89 129z
M222 176c5 47 13 94 24 140c-17 -1 -41 -1 -72 -1c-27 0 -52 1 -76 3c-13 -62 -20 -119 -20 -172c0 -59 14 -89 41 -89c37 0 79 51 103 119z" />
    <glyph glyph-name="t_z" unicode="t&#x7a;" horiz-adv-x="595" 
d="M287 44c-11 -12 -36 -38 -45 -49c-9 0 -23 26 -23 42c0 41 38 76 82 76c16 16 45 44 87 84c41 39 71 69 90 88c-85 -12 -147 -8 -187 13c-47 -219 -127 -324 -211 -324c-59 0 -89 48 -89 145c0 73 15 162 45 267c-7 -1 -18 -1 -31 -1c-24 0 -36 10 -36 30c0 7 2 17 6 29
c24 9 52 17 85 22c21 65 37 107 49 128c34 -7 51 -26 51 -57c0 -19 -5 -42 -16 -67c62 -5 93 -27 93 -66c0 -4 -1 -11 -2 -20c-60 2 -100 3 -121 4c-24 -90 -36 -171 -36 -242c0 -59 14 -89 41 -89c52 0 105 90 144 262c-9 11 -13 23 -13 37c0 31 25 60 50 60
c3 0 7 -1 12 -2c-1 -11 -3 -24 -4 -39c33 -9 85 -14 154 -14c40 0 70 2 90 6c2 -7 3 -14 3 -22c0 -29 -5 -44 -16 -47l-197 -198c73 -32 127 -48 162 -48c25 0 42 9 52 28c4 -3 6 -10 6 -21c0 -21 -6 -42 -19 -64c-13 -21 -30 -31 -52 -31c-29 0 -69 13 -119 39
c-50 25 -78 39 -85 41z" />
    <glyph glyph-name="u_m" unicode="um" horiz-adv-x="974" 
d="M660 161h4c18 53 44 103 77 150s59 70 78 70c10 0 22 -7 36 -22s21 -27 21 -38c0 -2 -4 -26 -13 -72c-9 -47 -14 -84 -14 -111c0 -49 12 -74 37 -74c17 0 34 10 49 31c15 20 26 40 33 61l11 31c9 0 13 -4 13 -13c0 -31 -13 -71 -40 -119c-27 -49 -57 -73 -91 -73
c-65 0 -98 49 -98 146c0 35 4 72 12 110s16 67 25 86l-2 1c-17 -4 -43 -44 -79 -119c-36 -76 -54 -135 -54 -177c0 -5 -5 -7 -16 -7c-51 0 -76 27 -76 81c0 28 4 60 13 107c4 23 7 41 10 54c3 12 7 32 14 60c6 27 9 42 10 45l-2 1c-34 -33 -66 -88 -97 -166
s-53 -152 -64 -221c-6 -3 -13 -5 -21 -5c-28 0 -50 21 -50 68c0 15 6 50 16 109c5 29 9 54 12 75l-3 1c-33 -148 -93 -229 -146 -229c-59 0 -86 52 -80 157h-2c-38 -101 -77 -152 -118 -152c-47 0 -70 36 -70 107c0 43 7 94 21 151c13 57 26 100 38 127h1c9 0 23 -5 41 -16
c17 -11 26 -25 26 -42c0 -3 -1 -7 -2 -12c-27 -88 -41 -153 -41 -194c0 -30 7 -45 21 -45c13 0 29 22 50 67c21 44 40 99 58 165c3 15 10 42 20 79c44 -3 67 -22 68 -53c0 -32 -4 -50 -16 -83c-11 -43 -16 -81 -16 -114c0 -47 8 -69 25 -66c21 3 44 38 71 104
c27 68 48 148 63 240c53 9 82 -21 82 -76c0 -23 -3 -42 -10 -81c-4 -19 -7 -37 -10 -54h3c25 62 52 115 83 158c30 43 56 65 77 65c28 0 48 -25 48 -66c0 -5 -1 -14 -2 -29c-4 -24 -10 -56 -18 -95s-13 -67 -16 -83z" />
    <glyph glyph-name="u_n" unicode="un" horiz-adv-x="785" 
d="M616 339l-2 1c-26 -24 -58 -76 -95 -156c-38 -81 -59 -148 -62 -201c-6 -3 -13 -5 -21 -5c-28 0 -50 21 -50 68c0 15 6 48 15 108c5 29 9 55 12 76l-2 1c-33 -148 -93 -229 -146 -229c-59 0 -86 52 -80 157h-2c-38 -101 -77 -152 -118 -152c-47 0 -70 36 -70 107
c0 43 7 94 21 151c13 57 26 100 38 127h1c9 0 23 -5 41 -16c17 -11 26 -25 26 -42c0 -3 -1 -7 -2 -12c-27 -88 -41 -153 -41 -194c0 -30 7 -45 21 -45c13 0 29 22 50 67c21 44 40 99 58 165c3 15 10 42 20 79c44 -3 67 -22 68 -53c0 -32 -4 -50 -16 -83
c-11 -43 -16 -81 -16 -114c0 -49 9 -71 27 -68c20 3 43 36 69 99c29 69 50 151 63 246c53 9 82 -20 82 -75c0 -3 -8 -57 -24 -162h2c1 -1 2 -1 3 -1c23 57 49 107 79 150s53 64 69 64c11 0 23 -7 38 -22s22 -27 22 -38l-4 -14c-10 -36 -34 -125 -34 -190
c0 -46 12 -69 37 -69c17 0 34 10 49 31c15 20 27 40 34 61l10 31c9 0 13 -4 13 -13c0 -31 -13 -71 -40 -119c-27 -49 -57 -73 -91 -73c-65 0 -98 49 -98 146c0 35 5 73 16 116c10 42 20 74 30 95z" />
    <glyph glyph-name="uacute_n" unicode="&#xfa;n" horiz-adv-x="785" 
d="M152 453c3 21 17 49 41 84c23 35 45 52 65 52c15 0 31 -9 50 -28c-63 -76 -109 -114 -138 -114c-7 0 -13 2 -18 6zM616 339l-2 1c-26 -24 -58 -76 -95 -156c-38 -81 -59 -148 -62 -201c-6 -3 -13 -5 -21 -5c-28 0 -50 21 -50 68c0 15 6 48 15 108c5 29 9 55 12 76l-2 1
c-33 -148 -93 -229 -146 -229c-59 0 -86 52 -80 157h-2c-38 -101 -77 -152 -118 -152c-47 0 -70 36 -70 107c0 43 7 94 21 151c13 57 26 100 38 127h1c9 0 23 -5 41 -16c17 -11 26 -25 26 -42c0 -3 -1 -7 -2 -12c-27 -88 -41 -153 -41 -194c0 -30 7 -45 21 -45
c13 0 29 22 50 67c21 44 40 99 58 165c3 15 10 42 20 79c44 -3 67 -22 68 -53c0 -32 -4 -50 -16 -83c-11 -43 -16 -81 -16 -114c0 -49 9 -71 27 -68c20 3 43 36 69 99c29 69 50 151 63 246c53 9 82 -20 82 -75c0 -3 -8 -57 -24 -162h2c1 -1 2 -1 3 -1c23 57 49 107 79 150
s53 64 69 64c11 0 23 -7 38 -22s22 -27 22 -38l-4 -14c-10 -36 -34 -125 -34 -190c0 -46 12 -69 37 -69c17 0 34 10 49 31c15 20 27 40 34 61l10 31c9 0 13 -4 13 -13c0 -31 -13 -71 -40 -119c-27 -49 -57 -73 -91 -73c-65 0 -98 49 -98 146c0 35 5 73 16 116
c10 42 20 74 30 95z" />
    <glyph glyph-name="u_ntilde" unicode="u&#xf1;" horiz-adv-x="785" 
d="M616 339l-2 1c-26 -24 -58 -76 -95 -156c-38 -81 -59 -148 -62 -201c-6 -3 -13 -5 -21 -5c-28 0 -50 21 -50 68c0 15 6 48 15 108c5 29 9 55 12 76l-2 1c-33 -148 -93 -229 -146 -229c-59 0 -86 52 -80 157h-2c-38 -101 -77 -152 -118 -152c-47 0 -70 36 -70 107
c0 43 7 94 21 151c13 57 26 100 38 127h1c9 0 23 -5 41 -16c17 -11 26 -25 26 -42c0 -3 -1 -7 -2 -12c-27 -88 -41 -153 -41 -194c0 -30 7 -45 21 -45c13 0 29 22 50 67c21 44 40 99 58 165c3 15 10 42 20 79c44 -3 67 -22 68 -53c0 -32 -4 -50 -16 -83
c-11 -43 -16 -81 -16 -114c0 -48 9 -70 27 -67c20 3 43 36 69 97c29 70 50 152 63 247c53 9 82 -20 82 -75c0 -3 -8 -57 -24 -162h2c1 -1 2 -1 3 -1c23 57 49 107 79 150s53 64 69 64c11 0 23 -7 38 -22s22 -27 22 -38l-4 -14c-10 -36 -34 -125 -34 -190
c0 -46 12 -69 37 -69c17 0 34 10 49 31c15 20 27 40 34 61l10 31c9 0 13 -4 13 -13c0 -31 -13 -71 -40 -119c-27 -49 -57 -73 -91 -73c-65 0 -98 49 -98 146c0 35 5 73 16 116c10 42 20 74 30 95zM690 534c7 0 14 -16 14 -35c0 -28 -18 -52 -66 -52c-12 0 -32 2 -59 7
s-47 7 -58 7c-21 0 -37 -6 -46 -17c-8 0 -15 16 -15 35c0 28 19 52 66 52c11 0 31 -2 58 -7s47 -7 59 -7c23 0 38 6 47 17z" />
    <glyph glyph-name="u_l" unicode="ul" horiz-adv-x="630" 
d="M378 77v28c-29 -69 -67 -103 -114 -103c-53 0 -80 43 -80 130c0 5 1 20 1 27l-3 1c-37 -102 -76 -153 -117 -153c-47 0 -70 36 -70 107c0 43 7 94 21 151c13 57 26 100 38 127h1c9 0 23 -5 41 -16c17 -11 26 -25 26 -42c0 -3 -1 -7 -2 -12c-27 -88 -41 -153 -41 -194
c0 -30 7 -45 21 -45c33 0 75 104 128 311c51 -5 69 -26 69 -63c0 -17 -6 -41 -17 -73c-11 -44 -16 -82 -16 -113c0 -42 11 -63 34 -63c29 0 65 34 81 81c-7 5 -11 12 -11 19c0 9 6 17 17 24c9 82 25 163 46 242s46 145 75 199c29 53 57 80 85 81c42 -1 63 -41 63 -121
c0 -81 -18 -168 -53 -261c-35 -94 -77 -155 -125 -183c-1 -17 -2 -40 -2 -71c0 -103 35 -174 95 -175c-3 -16 -13 -32 -31 -48s-36 -24 -54 -24c-69 0 -106 95 -106 232zM481 215c36 37 66 103 91 197c24 94 36 168 36 222c0 22 -3 33 -10 33c-15 1 -35 -49 -61 -149
c-27 -101 -45 -202 -56 -303z" />
    <glyph glyph-name="u_r" unicode="ur" horiz-adv-x="709" 
d="M184 134v25h-1c-38 -101 -77 -152 -118 -152c-47 0 -70 36 -70 107c0 43 7 94 21 153c14 58 27 100 39 125c9 0 23 -5 41 -16c17 -11 26 -25 26 -42c0 -3 -1 -7 -2 -12c-27 -88 -41 -153 -41 -194c0 -30 7 -45 21 -45c13 0 29 22 50 67c21 44 40 99 58 164
c2 9 9 36 20 80c45 -3 68 -24 68 -63c0 -17 -5 -41 -16 -73c-11 -43 -16 -81 -16 -114c0 -43 7 -64 22 -64c17 0 38 27 63 81c25 53 47 124 66 212c-31 21 -46 45 -46 74c0 43 26 83 59 83c15 0 30 -6 47 -18l-21 -118c20 -7 66 -18 89 -25c11 -4 24 -8 37 -13
c26 -9 37 -19 37 -30c0 -3 -33 -114 -33 -194c0 -47 11 -70 34 -70c17 0 34 10 50 31s28 42 36 63l11 31c9 0 13 -4 13 -13c0 -31 -14 -72 -42 -121s-59 -74 -94 -74c-65 0 -98 48 -98 144c0 74 13 142 39 205c-4 1 -32 11 -85 30c-21 -127 -47 -218 -80 -273
s-68 -83 -103 -83c-54 0 -81 44 -81 132z" />
    <glyph glyph-name="u_x" unicode="ux" horiz-adv-x="735" 
d="M184 134v25h-1c-38 -101 -77 -152 -118 -152c-47 0 -70 36 -70 107c0 43 7 94 21 153c14 58 27 100 39 125c9 0 23 -5 41 -16c17 -11 26 -25 26 -42c0 -3 -1 -7 -2 -12c-27 -88 -41 -153 -41 -194c0 -30 7 -45 21 -45c13 0 29 22 50 67c21 44 40 99 58 164
c2 9 9 36 20 80c45 -3 68 -24 68 -63c0 -17 -5 -41 -16 -73c-11 -43 -16 -81 -16 -114c0 -44 7 -66 21 -66c21 0 52 51 78 151c13 49 22 104 27 163c63 -1 83 -14 95 -61c18 -79 29 -124 33 -137c33 42 67 89 102 142c35 52 54 83 56 94c2 -1 27 -23 27 -52
c0 -21 -26 -63 -63 -108c-12 -16 -36 -45 -49 -61s-41 -49 -54 -65c20 -44 47 -66 82 -66c86 0 116 104 121 128l1 5c9 -1 13 -7 13 -19c0 -48 -27 -119 -86 -174c-29 -28 -62 -42 -97 -42c-37 0 -70 30 -99 89c-57 -74 -89 -128 -94 -162l-2 1c-9 3 -35 20 -35 50
c0 24 30 69 56 101c13 15 30 36 53 61c-18 49 -34 112 -48 190c-10 -97 -30 -171 -59 -224s-59 -80 -90 -80c-40 0 -69 48 -69 132z" />
    <glyph glyph-name="u_z" unicode="u&#x7a;" horiz-adv-x="747" 
d="M184 134v25h-1c-38 -101 -77 -152 -118 -152c-47 0 -70 36 -70 107c0 43 7 94 21 153c14 58 27 100 39 125c9 0 23 -5 41 -16c17 -11 26 -25 26 -42c0 -3 -1 -7 -2 -12c-27 -88 -41 -153 -41 -194c0 -30 7 -45 21 -45c13 0 29 22 50 67c21 44 40 99 58 164
c2 9 9 36 20 80c45 -3 68 -24 68 -63c0 -17 -5 -41 -16 -73c-11 -43 -16 -81 -16 -114c0 -89 42 -90 89 1c23 45 41 104 53 176c-9 9 -13 21 -13 35c0 31 25 60 50 60c3 0 7 -1 12 -2c-1 -11 -3 -24 -4 -39c33 -9 88 -14 163 -14c40 0 70 2 90 6c2 -7 3 -14 3 -22
c0 -29 -5 -44 -16 -47l-197 -198c73 -32 127 -48 162 -48c25 0 42 9 52 28c4 -3 6 -10 6 -21c0 -21 -6 -42 -19 -64c-13 -21 -30 -31 -52 -31c-29 0 -69 13 -119 39c-50 25 -78 39 -85 41c-11 -12 -36 -38 -45 -49c-9 0 -23 26 -23 42c0 41 38 76 82 76c16 16 45 44 87 84
c41 39 71 69 90 88c-30 -4 -58 -6 -83 -6c-46 0 -83 6 -110 19c-43 -209 -108 -296 -172 -296c-54 0 -81 44 -81 132z" />
    <glyph glyph-name="v_l" unicode="vl" horiz-adv-x="598" 
d="M438 124v-32c0 -103 35 -174 95 -175c-3 -16 -13 -32 -31 -48s-36 -24 -54 -24c-69 0 -106 95 -106 232v2c-11 -3 -21 -4 -31 -4c-34 0 -61 10 -81 30c-40 -81 -81 -121 -123 -121c-69 0 -103 52 -103 157c0 27 2 68 7 125c4 57 6 95 6 115c0 7 -1 27 -1 34
c64 0 87 -29 87 -101c0 -19 -2 -52 -7 -97s-7 -77 -7 -96c0 -49 12 -74 37 -74s51 31 80 92c-29 63 -27 150 6 262c13 5 23 8 31 8c31 0 46 -27 46 -81c0 -49 -12 -106 -37 -171c11 -26 34 -39 69 -39c7 0 14 1 22 2c4 86 16 176 37 270s47 174 80 240c32 65 64 98 95 98
c42 0 63 -42 63 -127c0 -76 -17 -162 -50 -258c-34 -96 -77 -169 -130 -219zM572 628c0 26 -3 39 -10 39c-15 0 -37 -53 -64 -160s-46 -211 -55 -314c69 97 112 242 129 435z" />
    <glyph glyph-name="v_i" unicode="vi" horiz-adv-x="562" 
d="M231 285v6c-27 1 -39 20 -39 45c0 40 28 83 63 83c23 0 36 -24 37 -73c7 2 29 9 64 21s60 18 75 18c28 0 42 -16 42 -48c0 -9 -6 -37 -18 -83c-12 -47 -18 -88 -18 -124c0 -41 12 -62 37 -62c17 0 34 12 50 36c15 24 27 48 34 72l10 35c9 0 13 -4 13 -13
c-1 -37 -25 -109 -69 -168c-22 -29 -45 -44 -68 -44c-60 0 -90 47 -90 141c0 49 6 103 19 162c1 3 1 8 1 13c0 14 -7 21 -20 21c-12 0 -33 -6 -64 -18c-9 -91 -42 -194 -97 -266c-27 -37 -56 -55 -86 -55c-69 0 -103 52 -103 157c0 27 2 68 7 125c4 57 6 95 6 115
c0 7 -1 27 -1 34c64 0 87 -29 87 -101c0 -19 -2 -52 -7 -97s-7 -77 -7 -96c0 -49 12 -74 37 -74c26 0 50 23 72 70s33 103 33 168zM528 546c-15 -69 -41 -109 -48 -109h-6c-17 0 -63 6 -63 94c0 43 9 66 28 69c2 1 5 1 10 1c18 0 36 -6 53 -17c17 -12 26 -25 26 -38z" />
    <glyph glyph-name="v_r" unicode="vr" horiz-adv-x="684" 
d="M450 512l-21 -118c21 -7 70 -19 94 -26c11 -4 23 -8 36 -13c25 -10 36 -21 32 -33c-5 -16 -17 -67 -28 -134c-11 -68 -3 -126 30 -126c17 0 34 10 50 31s28 42 35 63l12 31c9 0 13 -4 13 -13c0 -31 -14 -72 -42 -121s-59 -74 -94 -74c-65 0 -98 48 -98 144
c0 74 13 142 39 205c-22 9 -51 19 -86 31c-11 -51 -24 -121 -39 -210c-16 -89 -22 -139 -19 -151c-2 0 -48 13 -57 45c-2 5 -3 13 -3 25c3 43 29 146 80 309c-27 21 -40 45 -40 70c0 43 26 83 59 83c15 0 30 -6 47 -18zM254 319c-15 -3 -32 -5 -51 -7c-7 11 -10 27 -10 48
c0 14 2 28 5 41c16 6 30 9 42 9c36 0 54 -27 54 -82c0 -41 -9 -88 -27 -141c-18 -54 -42 -101 -72 -142s-59 -61 -88 -61c-69 0 -103 52 -103 157c0 27 2 68 7 125c4 57 6 95 6 115c0 7 -1 27 -1 34c64 0 87 -29 87 -101c0 -19 -2 -52 -7 -97s-7 -77 -7 -96
c0 -49 12 -74 37 -74c23 0 50 31 80 94c30 62 46 121 48 178z" />
    <glyph glyph-name="v_s" unicode="vs" horiz-adv-x="610" 
d="M641 287c8 0 12 -5 12 -15c0 -17 -10 -44 -30 -80s-44 -69 -71 -98c1 -3 1 -7 1 -12c0 -37 -13 -65 -38 -86c-26 -21 -55 -31 -87 -31c-47 0 -82 23 -82 63c0 12 3 24 8 35c3 -1 8 -1 15 -1c33 0 65 7 96 22c-1 16 -3 31 -10 51s-7 26 -18 51c-5 13 -9 21 -10 24
s-5 12 -12 27s-10 22 -11 23c-1 0 -2 0 -3 -1c-23 -69 -68 -127 -120 -127c-13 0 -25 3 -36 8c-37 -91 -89 -156 -138 -156c-69 0 -103 52 -103 157c0 27 2 68 7 125c4 57 6 95 6 115c0 7 -1 27 -1 34c64 0 87 -29 87 -101c0 -19 -2 -52 -7 -97s-7 -77 -7 -96
c0 -49 12 -74 37 -74c29 0 63 47 90 118c-18 25 -27 63 -27 112c0 45 8 86 23 124c13 5 23 8 31 8c31 0 46 -27 46 -81c0 -37 -7 -80 -22 -128c6 -13 15 -20 27 -20c32 0 75 50 94 117c-14 33 -21 62 -21 85c0 45 28 94 49 114l17 15c33 -14 49 -35 49 -62
c3 -24 -28 -82 -37 -107c13 -33 31 -72 54 -116s37 -74 43 -89c45 42 78 92 99 150z" />
    <glyph glyph-name="v_w" unicode="vw" horiz-adv-x="881" 
d="M530 113c-44 -76 -95 -126 -132 -126c-42 0 -63 51 -63 154c-2 74 18 185 21 213c3 39 -18 51 -64 34c-1 -86 -15 -165 -42 -238c-35 -95 -91 -166 -143 -166c-69 0 -103 52 -103 157c0 27 2 68 7 125c4 57 6 95 6 115c0 7 -1 27 -1 34c64 0 87 -29 87 -101
c0 -19 -2 -52 -7 -97s-7 -77 -7 -96c0 -49 12 -74 37 -74c29 0 65 55 93 130c-82 31 -37 255 104 255c63 0 113 -42 113 -115c0 -21 -2 -51 -6 -92c-5 -41 -7 -68 -8 -79c0 -45 9 -68 26 -68c23 0 49 30 79 91c0 132 38 211 77 211c26 0 39 -17 39 -51
c0 -31 -12 -78 -23 -105l-8 -19c-3 -17 -4 -36 -4 -57c0 -79 16 -119 48 -119c35 0 74 60 94 144c-18 21 -27 56 -27 104c0 24 3 51 12 84s29 58 57 58c9 0 20 -3 32 -9c0 -5 1 -19 1 -26c0 -53 -8 -110 -23 -173c6 -13 17 -19 32 -19c36 0 68 65 72 84l2 4c5 0 7 -3 7 -8
c0 -28 -10 -56 -29 -83c-19 -28 -46 -42 -79 -42c-9 0 -16 1 -23 3c-33 -101 -84 -170 -144 -170c-63 0 -99 44 -110 133z" />
    <glyph glyph-name="w_l" unicode="wl" horiz-adv-x="844" 
d="M491 410l-1 -4c0 -5 1 -17 1 -22c0 -60 -10 -126 -30 -197c11 -16 32 -24 61 -24c7 0 16 1 28 2c3 75 15 155 38 240s51 158 84 217s65 89 96 89c43 0 65 -34 65 -103c0 -67 -19 -146 -57 -237s-83 -162 -135 -211c-1 -7 -1 -18 -1 -32c0 -73 23 -111 58 -111
c27 0 55 18 85 55c30 36 52 82 67 139c9 0 13 -6 13 -19c0 -5 -1 -9 -2 -13c-13 -71 -39 -128 -78 -173c-39 -46 -79 -68 -120 -68c-63 0 -108 61 -113 181c-7 -1 -16 -1 -25 -1c-32 0 -58 7 -79 21c-33 -95 -83 -159 -140 -159c-63 0 -99 44 -110 133
c-44 -76 -95 -126 -132 -126c-41 0 -61 51 -61 154c0 27 2 65 7 116c4 50 6 85 6 105c0 8 -1 27 -1 34c64 0 87 -29 87 -101c0 -34 -14 -116 -14 -149c0 -45 9 -68 26 -68c23 0 49 30 79 91c0 132 38 211 77 211c26 0 39 -17 39 -51c0 -31 -12 -78 -23 -105l-8 -19
c-3 -17 -4 -36 -4 -57c0 -79 16 -119 48 -119c35 0 73 59 93 142c-17 26 -25 61 -25 106c0 24 3 51 12 84s29 58 57 58c9 0 20 -3 32 -9zM647 221c41 51 74 118 100 203c25 85 38 151 38 199c0 19 -2 28 -7 28c-14 0 -36 -49 -67 -148s-53 -193 -64 -282z" />
    <glyph glyph-name="w_i" unicode="wi" horiz-adv-x="760" 
d="M429 285v6c-27 1 -39 20 -39 45c0 40 28 83 63 83c23 0 36 -24 37 -73c7 2 29 9 64 21s60 18 75 18c28 0 42 -16 42 -48c0 -9 -6 -37 -18 -83c-12 -47 -18 -88 -18 -124c0 -41 12 -62 37 -62c17 0 34 12 50 36c15 24 27 48 34 72l10 35c9 0 13 -4 13 -13
c-1 -37 -25 -109 -69 -168c-22 -29 -45 -44 -68 -44c-60 0 -90 47 -90 141c0 49 6 103 19 162c1 3 1 8 1 13c0 14 -7 21 -20 21c-12 0 -33 -6 -64 -18c-9 -92 -41 -197 -96 -270c-27 -37 -56 -55 -86 -55c-63 0 -99 44 -110 133c-44 -76 -95 -126 -132 -126
c-41 0 -61 51 -61 154c0 27 2 65 7 116c4 50 6 85 6 105c0 8 -1 27 -1 34c64 0 87 -29 87 -101c0 -34 -14 -116 -14 -149c0 -45 9 -68 26 -68c23 0 49 30 79 91c0 132 38 211 77 211c26 0 39 -17 39 -51c0 -31 -12 -78 -23 -105l-8 -19c-3 -17 -4 -36 -4 -57
c0 -79 16 -119 48 -119c25 0 50 26 73 79c23 52 34 111 34 177zM726 546c-15 -69 -41 -109 -48 -109h-6c-17 0 -63 6 -63 94c0 43 9 66 28 69c2 1 5 1 10 1c18 0 36 -6 53 -17c17 -12 26 -25 26 -38z" />
    <glyph glyph-name="w_r" unicode="wr" horiz-adv-x="864" 
d="M312 -23h-7c-61 0 -96 59 -108 138c-43 -76 -94 -128 -133 -128c-41 0 -61 51 -61 154c0 27 2 65 7 116c4 50 6 85 6 105c0 8 -1 27 -1 34c64 0 87 -29 87 -101c0 -34 -14 -116 -14 -149c0 -45 9 -68 26 -68c23 0 49 30 79 91c0 132 38 211 77 211c26 0 39 -17 39 -51
c0 -31 -12 -78 -23 -105l-8 -19c-3 -17 -4 -36 -4 -57c0 -59 16 -109 47 -109c23 0 47 31 73 94s39 123 39 182v10l-50 -11c-9 13 -14 33 -14 60c0 9 1 18 3 28c14 7 28 11 41 13c39 0 59 -33 59 -98c0 -69 -16 -142 -49 -219c-33 -78 -70 -118 -111 -121zM630 512l-21 -118
c21 -7 65 -18 89 -25c11 -3 23 -7 36 -12c25 -9 38 -19 38 -31c0 -3 -33 -114 -33 -194c0 -47 11 -70 34 -70c17 0 34 10 50 31s28 42 35 63l12 31c9 0 13 -4 13 -13c0 -31 -14 -72 -42 -121s-59 -74 -94 -74c-65 0 -98 48 -98 144c0 74 13 142 39 205c-22 9 -51 19 -86 31
c-39 -186 -59 -303 -59 -352c0 -5 0 -8 1 -9c-9 0 -22 6 -37 18s-23 29 -23 52c3 43 29 146 80 309c-27 21 -40 45 -40 70c0 43 26 83 59 83c15 0 30 -6 47 -18z" />
    <glyph glyph-name="w_s" unicode="ws" horiz-adv-x="814" 
d="M491 410l-1 -4c0 -5 1 -17 1 -22c0 -53 -8 -113 -25 -180c6 -15 16 -23 29 -23c15 0 31 14 49 41c17 27 31 56 42 88c-11 28 -16 52 -16 72c0 45 27 94 50 114l16 15c54 -19 53 -64 43 -94c-4 -16 -27 -65 -31 -75c13 -33 31 -72 54 -116s37 -74 43 -89
c45 42 78 92 99 150c8 0 12 -5 12 -15c0 -17 -10 -44 -30 -80s-44 -69 -71 -98c1 -3 1 -7 1 -12c0 -37 -13 -65 -38 -86c-26 -21 -55 -31 -87 -31c-47 0 -82 23 -82 63c0 12 3 24 8 35c3 -1 8 -1 15 -1c33 0 65 7 96 22c-1 28 -15 69 -23 90c-5 11 -12 27 -22 50
c-11 23 -17 37 -20 44c-1 0 -1 0 -2 -1c-12 -34 -30 -64 -54 -91s-50 -40 -79 -40c-8 0 -15 1 -22 3c-33 -95 -83 -159 -140 -159c-63 0 -99 44 -110 133c-44 -76 -95 -126 -132 -126c-41 0 -61 51 -61 154c0 27 2 65 7 116c4 50 6 85 6 105c0 8 -1 27 -1 34
c64 0 87 -29 87 -101c0 -34 -14 -116 -14 -149c0 -45 9 -68 26 -68c23 0 49 30 79 91c0 132 38 211 77 211c26 0 39 -17 39 -51c0 -31 -12 -78 -23 -105l-8 -19c-3 -17 -4 -36 -4 -57c0 -79 16 -119 48 -119c33 0 71 56 92 136c-16 25 -24 62 -24 112c1 43 12 177 101 133z
" />
    <glyph glyph-name="w_h" unicode="wh" horiz-adv-x="888" 
d="M603 -23v-23c-29 -5 -49 4 -57 27c-8 24 -10 43 -10 75c0 35 4 77 11 127c-21 -24 -45 -36 -74 -36c-9 0 -16 1 -23 3c-33 -101 -84 -170 -144 -170c-63 0 -99 44 -110 133c-44 -76 -95 -126 -132 -126c-41 0 -61 51 -61 154c0 27 2 65 7 116c4 50 6 85 6 105
c0 8 -1 27 -1 34c64 0 87 -29 87 -101c0 -34 -14 -116 -14 -149c0 -45 9 -68 26 -68c23 0 49 30 79 91c0 132 38 211 77 211c26 0 39 -17 39 -51c0 -31 -12 -78 -23 -105l-8 -19c-3 -17 -4 -36 -4 -57c0 -79 16 -119 48 -119c35 0 74 60 94 144c-18 21 -27 56 -27 104
c0 24 3 51 12 84s29 58 57 58c9 0 20 -3 32 -9c0 -5 1 -19 1 -26c0 -53 -8 -110 -23 -173c6 -13 17 -19 32 -19c19 0 38 16 56 49c11 67 42 204 91 413c51 -1 77 -28 77 -81c0 -41 -21 -113 -40 -167c-10 -27 -15 -42 -15 -43c-15 -63 -27 -115 -35 -155l4 -1
c23 61 50 113 81 156c30 43 53 64 69 64c10 0 22 -7 37 -21c15 -15 22 -27 22 -38c-20 -69 -36 -154 -40 -233c-5 -80 12 -139 52 -139c5 0 8 0 10 1c-3 -15 -13 -31 -31 -48s-36 -25 -55 -25c-28 0 -47 19 -57 56c-11 37 -13 82 -8 134c11 104 32 205 52 258
c-9 0 -26 -24 -52 -72c-27 -49 -52 -105 -76 -170c-25 -65 -38 -116 -39 -153z" />
    <glyph glyph-name="w_v" unicode="wv" horiz-adv-x="885" 
d="M780 150c-37 -95 -92 -166 -143 -166c-69 0 -103 52 -103 157c-2 74 18 185 21 213c3 39 -18 51 -64 34c1 -183 -87 -413 -185 -408c-63 0 -99 44 -110 133c-44 -76 -95 -126 -132 -126c-41 0 -61 51 -61 154c0 27 2 65 7 116c4 50 6 85 6 105c0 8 -1 27 -1 34
c64 0 87 -29 87 -101c0 -34 -14 -116 -14 -149c0 -45 9 -68 26 -68c23 0 49 30 79 91c0 132 38 211 77 211c26 0 39 -17 39 -51c0 -31 -12 -78 -23 -105l-8 -19c-3 -17 -4 -36 -4 -57c0 -79 16 -119 48 -119c35 0 75 63 94 148c-82 31 -36 255 106 255
c63 0 113 -42 113 -115c0 -22 -2 -55 -7 -100s-8 -76 -8 -93c0 -51 12 -77 36 -77c29 0 65 50 92 123c-19 22 -29 58 -29 107c0 45 8 86 23 124c13 5 23 8 31 8c31 0 46 -27 46 -81c0 -32 -7 -72 -20 -121c5 -10 12 -15 23 -15c14 0 30 9 47 28s28 39 35 60c5 0 7 -3 7 -8
c0 -28 -10 -56 -29 -83c-19 -28 -46 -42 -79 -42c-9 0 -16 1 -23 3z" />
    <glyph glyph-name="x_s" unicode="xs" horiz-adv-x="632" 
d="M416 277c-2 0 -3 0 -4 -1c-15 -64 -27 -104 -52 -162c-13 -29 -26 -53 -41 -72c-29 -37 -75 -66 -128 -66c-37 0 -70 30 -99 89c-57 -74 -89 -128 -94 -162l-2 1c-9 3 -35 20 -35 50c0 35 37 83 109 163c-13 35 -25 76 -35 122s-17 83 -20 111l-5 42c63 -1 83 -14 95 -61
c19 -81 30 -127 33 -137c33 42 67 89 102 142c35 52 54 83 56 94c2 -1 27 -23 27 -52c0 -13 -10 -34 -24 -57c-9 -13 -28 -37 -39 -52c-12 -15 -37 -45 -49 -60c-11 -12 -45 -53 -55 -64c22 -45 50 -67 83 -67c56 0 116 68 157 252c-6 18 -9 35 -9 52c0 45 28 94 49 114
l17 15c54 -19 53 -64 43 -94c-4 -16 -27 -65 -31 -75c13 -33 31 -72 54 -116s37 -74 43 -89c45 42 78 92 99 150c8 0 12 -5 12 -15c0 -17 -10 -44 -30 -80s-44 -69 -71 -98c1 -3 1 -7 1 -12c0 -37 -13 -65 -38 -86c-26 -21 -55 -31 -87 -31c-47 0 -82 23 -82 63
c0 12 3 24 8 35c3 -1 8 -1 15 -1c33 0 65 7 96 22c-1 29 -16 71 -25 95c-5 12 -12 30 -23 53s-18 38 -21 45z" />
    <glyph glyph-name="x_x" unicode="xx" horiz-adv-x="719" 
d="M374 392h1c61 -1 82 -14 94 -61c18 -79 29 -124 33 -137c33 42 67 89 102 142c35 52 54 83 56 94c2 -1 27 -23 27 -52c0 -21 -26 -63 -63 -108c-12 -16 -36 -45 -49 -61s-41 -49 -54 -65c20 -44 47 -66 82 -66c86 0 116 104 121 128l1 5c9 -1 13 -7 13 -19
c0 -48 -27 -119 -86 -174c-29 -28 -62 -42 -97 -42c-37 0 -70 30 -99 89c-57 -74 -89 -128 -94 -162l-2 1c-9 3 -35 20 -35 50c0 24 30 69 56 101c13 15 30 36 53 61c-19 51 -34 112 -46 182c-9 -85 -31 -160 -64 -225c-33 -66 -72 -99 -115 -99c-45 0 -83 31 -116 92
c-59 -77 -90 -131 -95 -163l-2 1c-9 3 -35 20 -35 50c0 24 30 71 55 101c13 15 31 35 54 62c-13 35 -25 76 -35 123c-10 46 -17 82 -20 107s-5 40 -5 45c64 -1 87 -14 95 -61c7 -49 18 -94 33 -136c33 41 67 88 102 141s54 84 56 94c2 -1 27 -23 27 -52
c0 -12 -10 -32 -24 -55c-8 -13 -26 -37 -37 -52c-12 -15 -37 -45 -48 -59c-10 -12 -44 -54 -54 -65c24 -45 51 -68 82 -68c28 0 55 31 81 93c25 62 42 135 51 220z" />
    <glyph glyph-name="y_f" unicode="yf" horiz-adv-x="639" 
d="M519 305h-36c27 -35 48 -80 62 -135c13 -56 20 -110 20 -162c0 -79 -13 -146 -40 -200c-27 -53 -55 -80 -84 -80c-25 0 -51 19 -76 56c-25 38 -38 80 -38 127c0 108 20 244 60 407c-27 11 -43 30 -43 41c0 2 1 4 4 5c15 4 33 8 54 13c39 143 74 242 106 298
c17 32 62 44 93 28c-29 -34 -65 -138 -107 -313c5 0 20 1 27 1c109 0 118 -60 118 -76c0 -7 -40 -10 -120 -10zM210 199l-4 1c-45 -129 -92 -193 -141 -193c-47 0 -70 36 -70 107c0 43 7 96 22 158c14 62 27 106 39 132c9 0 23 -5 41 -16c17 -11 26 -25 26 -42
c0 -3 -1 -11 -1 -12c-28 -84 -42 -153 -42 -206c0 -30 7 -45 21 -45c19 0 42 36 71 107s48 141 57 210c80 0 93 -68 60 -138c-8 -37 -16 -90 -25 -159s-17 -131 -24 -186c-8 -54 -19 -109 -32 -164c-27 -110 -74 -174 -139 -174c-45 0 -119 35 -173 103
c-27 35 -40 71 -40 108c0 49 21 89 63 121c43 33 88 49 136 49c55 0 80 -19 80 -42c0 -5 -1 -9 -3 -13c-14 3 -30 4 -47 4c-53 0 -98 -15 -133 -45s-53 -65 -53 -105c0 -55 40 -102 93 -102c105 0 177 181 218 542zM469 279c-47 -224 -71 -448 -18 -448c36 0 69 70 69 186
c0 109 -17 196 -51 262z" />
    <glyph glyph-name="y_g" unicode="yg" horiz-adv-x="693" 
d="M547 128l-2 1c-31 -95 -67 -143 -110 -143c-63 0 -94 59 -94 143c0 63 15 122 44 178s65 84 107 84c36 0 62 -12 79 -35l4 44c51 0 77 -24 77 -71c0 -21 -6 -43 -17 -67c-7 -33 -17 -98 -29 -197c-13 -100 -24 -173 -33 -222c155 3 257 30 308 83c2 -9 3 -23 3 -42
c0 -109 -73 -163 -219 -163c-38 0 -78 2 -120 5c-29 -92 -68 -138 -116 -138c-45 0 -73 42 -65 78c30 -4 58 19 84 70c-33 5 -81 12 -143 23s-96 18 -103 19c-53 -145 -159 -231 -356 -231c-85 0 -153 17 -204 51c-51 35 -76 75 -76 121c0 49 30 92 91 127
c61 36 149 54 264 54c61 0 137 -6 228 -18c25 76 44 182 59 318h-2c-45 -129 -92 -193 -141 -193c-47 0 -70 36 -70 107c0 43 7 96 21 157s27 106 39 133h1c9 0 23 -5 41 -16c17 -11 26 -25 26 -42c0 -3 -1 -11 -1 -12c-28 -84 -42 -153 -42 -206c0 -30 7 -45 21 -45
c19 0 50 49 85 150c17 50 31 106 42 167c82 0 94 -68 61 -138c-9 -39 -18 -103 -29 -192c-11 -90 -21 -157 -31 -200c115 -15 202 -24 261 -26c22 75 41 170 57 284zM112 -208c-90 13 -177 19 -261 19c-151 0 -238 -52 -238 -112c0 -52 70 -95 187 -95c143 0 247 63 312 188
zM564 276l5 48c-5 13 -19 20 -42 20c-24 0 -47 -26 -69 -78c-22 -53 -33 -101 -33 -144c0 -35 9 -53 27 -53c21 0 42 20 63 61s38 89 49 146z" />
    <glyph glyph-name="y_j" unicode="yj" horiz-adv-x="512" 
d="M229 -130l83 -11c35 136 62 323 79 561c56 0 87 -31 87 -71c0 -21 -6 -43 -17 -67c-7 -33 -17 -101 -30 -205c-13 -105 -24 -180 -33 -227c53 -5 102 -7 145 -7c173 0 285 28 338 83c2 -9 3 -23 3 -42c0 -109 -73 -163 -219 -163c-85 0 -182 9 -291 26
c-29 -106 -70 -159 -122 -159c-45 0 -73 42 -65 78c36 -4 67 30 95 97c-3 1 -14 3 -34 7s-35 7 -46 8c-53 -145 -159 -231 -356 -231c-85 0 -153 17 -204 51c-51 35 -76 75 -76 121c0 49 30 92 91 127c61 36 149 54 264 54c61 0 137 -6 228 -18c25 76 44 182 59 318h-2
c-45 -129 -92 -193 -141 -193c-47 0 -70 36 -70 107c0 43 7 96 21 157s27 106 39 133h1c9 0 23 -5 41 -16c17 -11 26 -25 26 -42c0 -3 -1 -11 -1 -12c-28 -84 -42 -153 -42 -206c0 -30 7 -45 21 -45c19 0 49 49 84 150c17 50 32 106 43 167c82 0 94 -68 61 -138
c-9 -39 -18 -103 -29 -192c-11 -90 -21 -157 -31 -200zM112 -208c-90 13 -177 19 -261 19c-151 0 -238 -52 -238 -112c0 -52 70 -95 187 -95c143 0 247 63 312 188zM476 457h-6c-18 0 -63 5 -63 95c0 42 9 65 27 68c2 1 5 1 10 1c17 0 34 -5 53 -16c18 -11 27 -22 27 -35v-2
l-1 -2c-15 -69 -40 -109 -47 -109z" />
    <glyph glyph-name="y_l" unicode="yl" horiz-adv-x="656" 
d="M302 -160h-1c-5 22 -26 39 -65 51c-15 -93 -31 -157 -56 -218s-63 -94 -111 -94c-45 0 -119 35 -173 103c-27 35 -40 71 -40 108s15 69 45 94s65 43 107 53c41 10 85 15 133 15c14 0 24 0 31 -1c15 73 28 156 38 248l-4 1c-45 -129 -92 -193 -141 -193
c-47 0 -70 36 -70 107c0 43 7 96 21 157s27 106 39 133h1c9 0 23 -5 41 -16c17 -11 26 -25 26 -42c0 -3 -1 -11 -1 -12c-28 -84 -42 -153 -42 -206c0 -30 7 -45 21 -45c19 0 44 38 75 114c31 75 48 143 53 203c80 0 93 -68 60 -138c-6 -27 -21 -134 -46 -319
c57 -11 94 -33 94 -61c0 -25 -24 -42 -35 -42zM305 66h8c17 0 35 4 53 11c-3 17 -4 37 -4 62c0 76 10 159 29 248s45 165 76 229c31 63 63 95 94 95c43 0 65 -43 65 -130c0 -76 -16 -163 -49 -260s-75 -172 -124 -225c6 -53 25 -79 57 -79c27 0 55 18 85 55
c30 36 52 82 67 139c9 0 13 -6 13 -19c0 -5 -1 -9 -2 -13c-13 -71 -39 -128 -78 -173c-39 -46 -79 -68 -120 -68c-49 0 -83 33 -102 100c-12 -4 -25 -6 -38 -6c-21 0 -32 8 -32 23c0 2 1 6 2 11zM160 -96c-6 1 -15 1 -28 1c-79 0 -137 -15 -176 -44
c-38 -29 -57 -63 -57 -102c0 -55 40 -102 93 -102c71 0 127 82 168 247zM452 157c39 57 70 132 93 224c22 91 33 167 33 226c0 29 -3 44 -9 44c-9 0 -23 -28 -40 -83c-18 -56 -35 -124 -50 -203c-15 -80 -24 -149 -27 -208z" />
    <glyph glyph-name="y_p" unicode="yp" horiz-adv-x="701" 
d="M210 199l-4 1c-45 -129 -92 -193 -141 -193c-47 0 -70 36 -70 107c0 43 7 96 22 158c14 62 27 106 39 132c9 0 23 -5 41 -16c17 -11 26 -25 26 -42c0 -3 -1 -11 -1 -12c-28 -84 -42 -153 -42 -206c0 -30 7 -45 21 -45c19 0 42 36 71 107s48 141 57 210
c80 0 93 -68 60 -138c-8 -37 -16 -90 -25 -159s-17 -131 -24 -186c-8 -54 -19 -109 -32 -164c-27 -110 -74 -174 -139 -174c-45 0 -119 35 -173 103c-27 35 -40 71 -40 108c0 49 21 89 63 121c43 33 88 49 136 49c55 0 80 -19 80 -42c0 -5 -1 -9 -3 -13c-14 3 -30 4 -47 4
c-53 0 -98 -15 -133 -45s-53 -65 -53 -105c0 -55 40 -102 93 -102c105 0 177 181 218 542zM454 281l3 -1c27 63 59 95 96 95c13 0 30 -9 51 -28c20 -19 33 -39 38 -60c3 -13 5 -31 5 -52c3 -109 -62 -258 -152 -256c-33 0 -60 14 -83 42c-8 -72 -12 -134 -12 -187
s4 -96 12 -127c-6 -2 -13 -3 -21 -3c-45 0 -88 28 -88 116c0 51 17 155 50 314c33 158 52 273 59 344c0 1 2 2 5 2c13 0 28 -6 44 -17c16 -12 24 -30 24 -53c2 -27 -14 -34 -31 -129zM417 57c13 -16 27 -24 43 -24c21 0 40 14 57 42c17 27 29 59 37 96c8 36 12 70 12 103
c0 40 -7 60 -21 60c-17 0 -37 -18 -59 -55s-41 -81 -56 -131c-3 -19 -8 -50 -13 -91z" />
    <glyph glyph-name="y_s" unicode="ys" horiz-adv-x="663" 
d="M302 -160h-1c-5 22 -26 39 -65 51c-15 -93 -31 -157 -56 -218s-63 -94 -111 -94c-45 0 -119 35 -173 103c-27 35 -40 71 -40 108s15 69 45 94s65 43 107 53c41 10 85 15 133 15c14 0 24 0 31 -1c15 73 28 156 38 248l-4 1c-45 -129 -92 -193 -141 -193
c-47 0 -70 36 -70 107c0 43 7 96 21 157s27 106 39 133h1c9 0 23 -5 41 -16c17 -11 26 -25 26 -42c0 -3 -1 -11 -1 -12c-28 -84 -42 -153 -42 -206c0 -30 7 -45 21 -45c19 0 44 38 75 114c31 75 48 143 53 203c80 0 93 -68 60 -138c-6 -27 -21 -134 -46 -319
c57 -11 94 -33 94 -61c0 -25 -24 -42 -35 -42zM456 256c-1 0 -1 0 -2 -1c-19 -71 -41 -137 -80 -196c-19 -30 -38 -45 -57 -45c-20 0 -33 9 -40 26c20 5 47 33 81 84c33 50 60 108 80 174c-27 67 -25 107 -3 151c11 21 22 37 33 47l16 15c54 -19 53 -64 43 -94
c-4 -16 -27 -65 -31 -75c13 -33 31 -72 54 -116s37 -74 43 -89c45 42 78 92 99 150c8 0 12 -5 12 -15c0 -17 -10 -44 -30 -80s-44 -69 -71 -98c1 -3 1 -7 1 -12c0 -37 -13 -65 -38 -86c-26 -21 -55 -31 -87 -31c-47 0 -82 23 -82 63c0 12 3 24 8 35c3 -1 8 -1 15 -1
c33 0 65 7 96 22c-2 17 -7 40 -11 57c-3 10 -11 30 -14 38c-4 8 -14 34 -17 39s-17 34 -18 38zM160 -96c-6 1 -15 1 -28 1c-79 0 -137 -15 -176 -44c-38 -29 -57 -63 -57 -102c0 -55 40 -102 93 -102c71 0 127 82 168 247z" />
    <glyph glyph-name="y_y" unicode="yy" horiz-adv-x="697" 
d="M560 200h-3c-46 -129 -93 -193 -142 -193c-47 0 -70 36 -70 107c0 43 7 96 21 157s27 106 39 133h1c9 0 23 -5 41 -16c17 -11 26 -25 26 -42c0 -3 -1 -11 -1 -12c-28 -84 -42 -153 -42 -206c0 -30 7 -45 21 -45c20 0 53 51 88 152c17 51 31 106 40 165
c51 0 77 -24 77 -71c0 -21 -6 -43 -17 -67c-7 -33 -17 -100 -29 -199c-13 -99 -23 -173 -32 -220c153 4 254 32 303 83c2 -9 3 -23 3 -42c0 -109 -73 -163 -219 -163c-37 0 -76 2 -116 5c-29 -92 -68 -138 -116 -138c-45 0 -73 42 -65 78c29 -4 57 19 84 69
c-34 5 -80 12 -139 23s-96 17 -111 20c-53 -145 -159 -231 -356 -231c-85 0 -153 17 -204 51c-51 35 -76 75 -76 121c0 49 30 92 91 127c61 36 149 54 264 54c61 0 137 -6 228 -18c25 76 44 182 59 318h-2c-45 -129 -92 -193 -141 -193c-47 0 -70 36 -70 107
c0 43 7 96 21 157s27 106 39 133h1c9 0 23 -5 41 -16c17 -11 26 -25 26 -42c0 -3 -1 -11 -1 -12c-28 -84 -42 -153 -42 -206c0 -30 7 -45 21 -45c19 0 51 49 86 150c17 50 31 106 41 167c82 0 94 -68 61 -138c-9 -39 -18 -103 -29 -192c-11 -90 -21 -157 -31 -200
c118 -15 206 -24 265 -26c27 91 49 210 66 356zM112 -208c-90 13 -177 19 -261 19c-151 0 -238 -52 -238 -112c0 -52 70 -95 187 -95c143 0 247 63 312 188z" />
    <glyph glyph-name="z_s" unicode="&#x7a;s" horiz-adv-x="644" 
d="M429 275c-1 -1 -2 -1 -3 -1c-29 -103 -58 -177 -87 -223c-30 -46 -68 -69 -114 -69c-42 0 -97 21 -166 62c-11 -12 -36 -38 -45 -49c-9 0 -23 26 -23 42c0 41 38 76 82 76c16 16 45 44 87 84c41 39 71 69 90 88c-11 0 -61 -5 -92 -5c-83 0 -131 13 -131 60
c0 19 5 36 15 53c9 -10 33 -18 74 -23c40 -5 83 -8 128 -8l80 5c2 -7 3 -15 3 -22c0 -29 -5 -44 -16 -47l-197 -198c50 -23 91 -34 124 -34c43 0 75 19 97 58s46 108 73 207c-6 18 -9 35 -9 51c0 45 28 94 49 114l17 15c54 -19 53 -64 43 -94c-4 -16 -27 -65 -31 -75
c13 -33 31 -72 54 -116s37 -74 43 -89c45 42 78 92 99 150c8 0 12 -5 12 -15c0 -17 -10 -44 -30 -80s-44 -69 -71 -98c1 -3 1 -7 1 -12c0 -37 -13 -65 -38 -86c-26 -21 -55 -31 -87 -31c-47 0 -82 23 -82 63c0 12 3 24 8 35c3 -1 8 -1 15 -1c33 0 65 7 96 22
c-1 29 -15 71 -24 94c-5 11 -12 29 -23 52s-18 38 -21 45z" />
    <glyph glyph-name="z_z" unicode="&#x7a;&#x7a;" horiz-adv-x="701" 
d="M393 44c-11 -12 -36 -38 -45 -49c-9 0 -23 26 -23 42c0 41 38 76 82 76c16 16 45 44 87 84c41 39 71 69 90 88c-11 0 -61 -5 -92 -5c-83 0 -131 13 -131 60c0 19 5 36 15 53c9 -10 33 -18 74 -23c40 -5 83 -8 128 -8l80 5c2 -7 3 -14 3 -22c0 -29 -5 -44 -16 -47
l-197 -198c73 -32 127 -48 162 -48c25 0 42 9 52 28c4 -3 6 -10 6 -21c0 -21 -6 -42 -19 -64c-13 -21 -30 -31 -52 -31c-29 0 -69 13 -119 39c-50 25 -78 39 -85 41zM70 110l3 3c16 16 45 44 87 84c41 39 71 69 90 88c-11 0 -61 -5 -92 -5c-83 0 -131 13 -131 60
c0 19 5 36 15 53c9 -10 33 -18 74 -23c40 -5 83 -8 128 -8l80 5c2 -7 3 -15 3 -22c0 -29 -5 -44 -16 -47l-185 -186c41 -3 79 -12 115 -28c35 -17 56 -36 62 -58c11 -35 -7 -68 -26 -81l-14 -10c-10 67 -143 120 -204 109c-11 -12 -36 -38 -45 -49c-9 0 -23 26 -23 42
c0 41 26 65 79 73z" />
    <glyph glyph-name="a_l_l" unicode="all" horiz-adv-x="935" 
d="M199 122l-4 1c-26 -91 -61 -137 -104 -137c-63 0 -94 59 -94 143c0 63 15 122 44 178s65 84 107 84c36 0 62 -11 79 -34l6 28c52 -7 70 -27 70 -64c0 -9 -5 -31 -14 -64c-10 -34 -15 -68 -15 -103c0 -45 13 -67 40 -67c32 0 60 34 84 102c5 75 17 153 37 234
c19 80 44 148 74 204s59 84 88 84c43 0 64 -42 64 -125c0 -51 -8 -109 -23 -174c-16 -65 -35 -121 -57 -167c-23 -47 -43 -70 -61 -70c-6 0 -11 2 -15 7c27 39 53 108 76 205s34 173 34 226c0 25 -3 38 -10 38c-10 0 -24 -28 -42 -85c-19 -57 -35 -127 -50 -208
s-23 -151 -23 -209c0 -88 18 -132 55 -132c20 0 43 14 70 42c27 27 49 62 68 105c-7 5 -10 11 -10 18c0 9 6 17 18 24c7 83 21 165 42 244c20 79 45 146 74 199s59 79 89 79c42 -1 63 -41 63 -121c0 -79 -17 -165 -51 -258c-35 -93 -76 -155 -123 -184c-1 -27 -2 -47 -2 -60
c0 -135 29 -203 86 -203c34 0 59 16 76 49c5 0 12 -7 12 -15c0 -3 0 -6 -1 -7c-28 -69 -84 -109 -137 -109c-45 0 -78 26 -99 78c-22 52 -33 120 -33 204c-52 -101 -117 -164 -177 -164c-61 0 -108 59 -113 178c-25 -63 -64 -111 -108 -111c-53 0 -83 39 -90 117zM222 329
c-6 10 -19 15 -39 15c-24 0 -47 -26 -69 -78c-22 -53 -33 -101 -33 -144c0 -35 9 -53 27 -53c23 0 46 26 67 78c21 51 37 112 47 182zM789 217c35 39 65 105 89 198c23 93 35 166 35 219c0 22 -3 33 -10 33c-15 0 -35 -49 -60 -148c-26 -99 -44 -199 -54 -302z" />
    <glyph glyph-name="a_l_g" unicode="alg" horiz-adv-x="1041" 
d="M993 -160h-2c-5 22 -26 39 -65 51c-15 -93 -31 -157 -56 -218s-63 -94 -111 -94c-45 0 -118 35 -172 103c-27 35 -41 71 -41 108s15 69 45 94s66 43 107 53s86 15 134 15c13 0 23 0 30 -1c11 53 21 112 30 177l-3 1c-29 -95 -66 -143 -110 -143c-56 0 -86 46 -93 115
c-19 -49 -45 -89 -78 -119c-33 -29 -66 -44 -98 -44c-61 0 -108 59 -113 178c-25 -63 -64 -111 -108 -111c-53 0 -83 39 -90 117l-4 1c-26 -91 -61 -137 -104 -137c-63 0 -94 59 -94 143c0 63 15 122 44 178s65 84 107 84c36 0 62 -11 79 -34l6 28c52 -7 70 -27 70 -64
c0 -9 -5 -31 -14 -64c-10 -34 -15 -68 -15 -103c0 -45 13 -67 40 -67c32 0 60 34 84 102c5 75 17 153 37 234c19 80 44 148 74 204s59 84 88 84c43 0 64 -42 64 -125c0 -51 -8 -109 -23 -174c-16 -65 -35 -121 -57 -167c-23 -47 -43 -70 -61 -70c-6 0 -11 2 -15 7
c27 39 53 108 76 205s34 173 34 226c0 25 -3 38 -10 38c-10 0 -24 -28 -42 -85c-19 -57 -35 -127 -50 -208s-23 -151 -23 -209c0 -88 18 -132 55 -132c24 0 50 16 78 47c27 31 49 72 66 121c9 55 27 104 54 145s58 61 93 61c36 0 62 -11 79 -34l4 43c51 0 77 -24 77 -71
c0 -21 -6 -43 -17 -67c-11 -53 -20 -120 -32 -212c-6 -47 -11 -82 -14 -107c63 -12 94 -32 94 -61s-28 -42 -34 -42zM851 -96c-7 1 -16 1 -29 1c-79 0 -137 -15 -175 -44c-39 -29 -58 -63 -58 -102c0 -56 41 -102 94 -102c71 0 127 82 168 247zM909 283l4 41
c-5 13 -19 20 -42 20c-24 0 -47 -26 -69 -78c-22 -53 -33 -101 -33 -144c0 -35 9 -53 27 -53c21 0 43 21 65 64c21 42 37 92 48 150zM222 329c-6 10 -19 15 -39 15c-24 0 -47 -26 -69 -78c-22 -53 -33 -101 -33 -144c0 -35 9 -53 27 -53c23 0 46 26 67 78
c21 51 37 112 47 182z" />
    <glyph glyph-name="a_l_r" unicode="alr" horiz-adv-x="1050" 
d="M816 512l-21 -118c20 -7 66 -18 89 -25c11 -4 24 -8 37 -13c26 -9 37 -19 37 -30c0 -3 -33 -114 -33 -194c0 -47 11 -70 34 -70c17 0 34 10 50 31s28 42 35 63l12 31c9 0 13 -4 13 -13c0 -31 -14 -72 -42 -121s-59 -74 -94 -74c-65 0 -98 48 -98 144c0 74 13 142 39 205
c-22 9 -51 19 -86 31c-17 -84 -47 -174 -92 -265c-45 -92 -113 -156 -185 -156c-61 0 -109 59 -114 178c-25 -63 -64 -111 -108 -111c-53 0 -83 39 -90 117l-4 1c-26 -91 -61 -137 -104 -137c-63 0 -94 59 -94 143c0 63 15 122 44 178s65 84 107 84c36 0 62 -11 79 -34l6 28
c52 -7 70 -27 70 -64c0 -9 -5 -31 -14 -64c-10 -34 -15 -68 -15 -103c0 -45 13 -67 40 -67c32 0 60 34 84 102c5 75 17 153 37 234c19 80 44 148 74 204s59 84 88 84c43 0 64 -42 64 -125c0 -51 -8 -109 -23 -174c-16 -65 -35 -121 -57 -167c-23 -47 -43 -70 -61 -70
c-6 0 -11 2 -15 7c27 39 53 108 76 205s34 173 34 226c0 25 -3 38 -10 38c-10 0 -24 -28 -42 -85c-19 -57 -35 -127 -50 -208s-23 -151 -23 -209c0 -88 19 -132 56 -132c26 0 54 20 85 60c30 39 56 85 78 138s39 104 51 155c-29 19 -50 50 -50 77c0 43 26 83 59 83
c15 0 30 -6 47 -18zM222 329c-6 10 -19 15 -39 15c-24 0 -47 -26 -69 -78c-22 -53 -33 -101 -33 -144c0 -35 9 -53 27 -53c23 0 46 26 67 78c21 51 37 112 47 182z" />
    <glyph glyph-name="a_l_s" unicode="als" horiz-adv-x="958" 
d="M199 122l-4 1c-26 -91 -61 -137 -104 -137c-63 0 -94 59 -94 143c0 63 15 122 44 178s65 84 107 84c36 0 62 -11 79 -34l6 28c52 -7 70 -27 70 -64c0 -9 -5 -31 -14 -64c-10 -34 -15 -68 -15 -103c0 -45 13 -67 40 -67s52 26 74 77c3 76 14 156 33 241s45 157 76 217
c31 59 61 89 91 89c43 0 64 -42 64 -125c0 -51 -8 -109 -23 -174c-16 -65 -35 -121 -57 -167c-23 -47 -43 -70 -61 -70c-6 0 -11 2 -15 7c27 39 53 108 76 205s34 173 34 226c0 25 -3 38 -10 38c-10 0 -24 -28 -42 -85c-19 -57 -35 -127 -50 -208s-23 -151 -23 -209
c0 -88 19 -132 56 -132c24 0 49 17 74 51s46 73 64 118c17 45 33 93 47 144c-6 18 -9 35 -9 52c0 45 28 94 49 114l17 15c33 -14 49 -35 49 -62c3 -24 -28 -82 -37 -107c13 -33 31 -72 54 -116s37 -74 43 -89c45 42 78 92 99 150c8 0 12 -5 12 -15c0 -17 -10 -44 -30 -80
s-44 -69 -71 -98c1 -3 1 -7 1 -12c0 -37 -13 -65 -38 -86c-26 -21 -55 -31 -87 -31c-47 0 -82 23 -82 63c0 12 3 24 8 35c3 -1 8 -1 15 -1c33 0 65 7 96 22c-1 29 -15 72 -26 98c-5 13 -13 30 -23 52s-17 38 -21 47c-1 0 -1 -1 -2 -1c-16 -67 -34 -122 -62 -185
c-15 -31 -30 -58 -46 -80c-33 -45 -80 -77 -129 -77c-59 0 -104 53 -113 160c-29 -62 -62 -93 -100 -93c-53 0 -83 39 -90 117zM222 329c-6 10 -19 15 -39 15c-24 0 -47 -26 -69 -78c-22 -53 -33 -101 -33 -144c0 -35 9 -53 27 -53c23 0 46 26 67 78c21 51 37 112 47 182z
" />
    <glyph glyph-name="a_l_t" unicode="alt" horiz-adv-x="924" 
d="M941 198v-3c-7 -51 -26 -101 -56 -149c-31 -48 -67 -72 -109 -72c-59 0 -89 48 -89 145c-51 -121 -113 -181 -185 -181c-59 0 -104 53 -113 160c-29 -62 -62 -93 -100 -93c-53 0 -83 39 -90 117l-4 1c-26 -91 -61 -137 -104 -137c-63 0 -94 59 -94 143
c0 63 15 122 44 178s65 84 107 84c36 0 62 -11 79 -34l6 28c52 -7 70 -27 70 -64c0 -9 -5 -31 -14 -64c-10 -34 -15 -68 -15 -103c0 -45 13 -67 40 -67s52 26 74 77c3 76 14 156 33 241s45 157 76 217c31 59 61 89 91 89c43 0 64 -42 64 -125c0 -51 -8 -109 -23 -174
c-16 -65 -35 -121 -57 -167c-23 -47 -43 -70 -61 -70c-6 0 -11 2 -15 7c27 39 53 108 76 205s34 173 34 226c0 25 -3 38 -10 38c-10 0 -24 -28 -42 -85c-19 -57 -35 -127 -50 -208s-23 -151 -23 -209c0 -88 19 -132 56 -132c30 0 60 24 89 71s54 106 76 175
c6 30 16 71 30 123c-7 -1 -18 -1 -31 -1c-24 0 -36 10 -36 30c0 7 2 17 6 29c24 9 52 17 85 22c21 65 37 107 49 128c34 -7 51 -26 51 -57c0 -19 -5 -42 -16 -67c62 -5 93 -27 93 -66c0 -4 -1 -11 -2 -20c-60 2 -100 3 -121 4c-24 -90 -36 -171 -36 -242
c0 -59 14 -89 41 -89c22 0 44 15 66 46c21 31 37 67 48 108c8 0 12 -4 12 -13zM222 329c-6 10 -19 15 -39 15c-24 0 -47 -26 -69 -78c-22 -53 -33 -101 -33 -144c0 -35 9 -53 27 -53c23 0 46 26 67 78c21 51 37 112 47 182z" />
    <glyph glyph-name="a_l_v" unicode="alv" horiz-adv-x="1054" 
d="M199 122l-4 1c-26 -91 -61 -137 -104 -137c-63 0 -94 59 -94 143c0 63 15 122 44 178s65 84 107 84c36 0 62 -11 79 -34l6 28c52 -7 70 -27 70 -64c0 -9 -5 -31 -14 -64c-10 -34 -15 -68 -15 -103c0 -45 13 -67 40 -67c37 0 67 51 84 102c5 75 17 153 37 234
c19 80 44 148 74 204s59 84 88 84c43 0 64 -42 64 -125c0 -51 -8 -109 -23 -174c-16 -65 -35 -121 -57 -167c-23 -47 -43 -70 -61 -70c-6 0 -11 2 -15 7c27 39 53 108 76 205s34 173 34 226c0 25 -3 38 -10 38c-10 0 -24 -28 -42 -85c-19 -57 -35 -127 -50 -208
s-23 -151 -23 -209c0 -83 16 -125 47 -128c27 -3 56 23 88 78c49 84 79 189 90 316c64 0 87 -29 87 -101c0 -19 -2 -52 -7 -97s-7 -77 -7 -96c0 -49 12 -74 37 -74c29 0 65 50 92 123c-19 22 -29 58 -29 107c0 45 8 86 23 124c13 5 23 8 31 8c31 0 46 -27 46 -81
c0 -32 -7 -72 -20 -121c5 -10 13 -15 23 -15c14 0 30 9 47 28s28 39 35 60c5 0 7 -3 7 -8c0 -28 -10 -56 -29 -83c-19 -28 -46 -42 -79 -42c-9 0 -16 1 -23 3c-37 -95 -92 -166 -143 -166c-69 0 -103 52 -103 157c0 33 1 63 4 92c-40 -197 -105 -295 -196 -295
c-61 0 -109 59 -114 178c-25 -63 -64 -111 -108 -111c-53 0 -83 39 -90 117zM222 329c-6 10 -19 15 -39 15c-24 0 -47 -26 -69 -78c-22 -53 -33 -101 -33 -144c0 -35 9 -53 27 -53c23 0 46 26 67 78c21 51 37 112 47 182z" />
    <glyph glyph-name="a_l_w" unicode="alw" horiz-adv-x="1248" 
d="M199 122l-4 1c-26 -91 -61 -137 -104 -137c-63 0 -94 59 -94 143c0 63 15 122 44 178s65 84 107 84c36 0 62 -11 79 -34l6 28c52 -7 70 -27 70 -64c0 -9 -5 -31 -14 -64c-10 -34 -15 -68 -15 -103c0 -45 13 -67 40 -67c37 0 67 51 84 102c5 75 17 153 37 234
c19 80 44 148 74 204s59 84 88 84c43 0 64 -42 64 -125c0 -51 -8 -109 -23 -174c-16 -65 -35 -121 -57 -167c-23 -47 -43 -70 -61 -70c-6 0 -11 2 -15 7c27 39 53 108 76 205s34 173 34 226c0 25 -3 38 -10 38c-10 0 -24 -28 -42 -85c-19 -57 -35 -127 -50 -208
s-23 -151 -23 -209c0 -83 16 -125 47 -128c27 -3 56 23 88 78c49 84 79 189 90 316c64 0 87 -29 87 -101c0 -19 -2 -47 -6 -84c-5 -37 -7 -65 -7 -84c0 -45 9 -68 26 -68c23 0 49 30 79 91c0 132 38 211 77 211c26 0 39 -17 39 -51c0 -31 -13 -78 -24 -105l-7 -19
c-3 -17 -4 -36 -4 -57c0 -79 16 -119 48 -119c35 0 74 60 94 144c-18 21 -27 56 -27 104c0 24 3 51 12 84s29 58 57 58c9 0 20 -3 32 -9c0 -5 1 -19 1 -26c0 -53 -8 -110 -23 -173c6 -13 17 -19 32 -19c38 0 65 65 73 84l1 4c5 0 7 -3 7 -8c0 -28 -10 -56 -29 -83
c-19 -28 -46 -42 -79 -42c-8 0 -16 1 -23 3c-33 -101 -84 -170 -144 -170c-63 0 -99 44 -110 133c-44 -76 -95 -126 -132 -126c-41 0 -61 51 -61 154c0 19 1 51 4 96c-40 -199 -106 -299 -197 -299c-61 0 -109 59 -114 178c-25 -63 -64 -111 -108 -111c-53 0 -83 39 -90 117
zM222 329c-6 10 -19 15 -39 15c-24 0 -47 -26 -69 -78c-22 -53 -33 -101 -33 -144c0 -35 9 -53 27 -53c23 0 46 26 67 78c21 51 37 112 47 182z" />
    <glyph glyph-name="a_l_x" unicode="alx" horiz-adv-x="1067" 
d="M199 122l-4 1c-26 -91 -61 -137 -104 -137c-63 0 -94 59 -94 143c0 63 15 122 44 178s65 84 107 84c36 0 62 -11 79 -34l6 28c52 -7 70 -27 70 -64c0 -9 -5 -31 -14 -64c-10 -34 -15 -68 -15 -103c0 -45 13 -67 40 -67c33 0 62 35 85 106c5 75 17 153 37 233
c19 79 44 147 74 202s59 83 88 83c43 0 64 -42 64 -125c0 -51 -8 -109 -23 -174c-16 -65 -35 -121 -57 -167c-23 -47 -43 -70 -61 -70c-6 0 -11 2 -15 7c27 39 53 108 76 205s34 173 34 226c0 25 -3 38 -10 38c-9 0 -23 -28 -41 -85c-19 -57 -36 -127 -51 -208
c-15 -82 -23 -152 -23 -210c0 -87 18 -131 55 -131c35 0 71 38 107 115c35 77 58 163 69 260c63 -1 83 -14 95 -61c19 -81 30 -127 33 -137c33 42 67 89 102 142c35 52 54 83 56 94c2 -1 27 -23 27 -52c0 -13 -10 -34 -24 -57c-9 -13 -28 -37 -39 -52
c-12 -15 -37 -45 -49 -60c-11 -12 -45 -53 -55 -64c22 -45 50 -67 83 -67c86 0 116 104 121 128l1 5c9 -1 13 -7 13 -19c0 -48 -27 -119 -86 -174c-29 -28 -62 -42 -97 -42c-37 0 -70 30 -99 89c-57 -74 -89 -128 -94 -162l-2 1c-9 3 -35 20 -35 50c0 28 36 82 109 163
c-18 51 -34 116 -48 195c-19 -137 -56 -274 -136 -342c-53 -43 -124 -47 -165 13c-21 30 -32 75 -35 135c-25 -64 -64 -113 -109 -113c-53 0 -83 39 -90 117zM222 329c-6 10 -19 15 -39 15c-24 0 -47 -26 -69 -78c-22 -53 -33 -101 -33 -144c0 -35 9 -53 27 -53
c23 0 46 26 67 78c21 51 37 112 47 182z" />
    <glyph glyph-name="a_l_z" unicode="al&#x7a;" horiz-adv-x="1063" 
d="M774 414l-6 -35c29 -11 85 -16 170 -16c43 0 71 1 82 4c2 -7 3 -14 3 -22c0 -29 -5 -44 -16 -47l-197 -198c73 -32 127 -48 162 -48c25 0 42 9 52 28c4 -3 6 -10 6 -21c0 -21 -6 -42 -19 -64c-13 -21 -30 -31 -52 -31c-29 0 -69 13 -119 39c-50 25 -78 39 -85 41
c-11 -12 -36 -38 -45 -49c-9 0 -23 26 -23 42c0 41 38 76 82 76c16 16 45 44 87 84c41 39 71 69 90 88c-14 0 -70 -5 -104 -5c-39 0 -70 5 -93 16c-21 -91 -47 -166 -86 -239s-92 -119 -152 -119c-61 0 -109 59 -114 178c-25 -63 -64 -111 -108 -111c-53 0 -83 39 -90 117
l-4 1c-26 -91 -61 -137 -104 -137c-63 0 -94 59 -94 143c0 63 15 122 44 178s65 84 107 84c36 0 62 -11 79 -34l6 28c52 -7 70 -27 70 -64c0 -9 -5 -31 -14 -64c-10 -34 -15 -68 -15 -103c0 -45 13 -67 40 -67c32 0 60 34 84 102c5 75 17 153 37 234c19 80 44 148 74 204
s59 84 88 84c43 0 64 -42 64 -125c0 -51 -8 -109 -23 -174c-16 -65 -35 -121 -57 -167c-23 -47 -43 -70 -61 -70c-6 0 -11 2 -15 7c27 39 53 108 76 205s34 173 34 226c0 25 -3 38 -10 38c-10 0 -24 -28 -42 -85c-19 -57 -35 -127 -50 -208s-23 -151 -23 -209
c0 -88 19 -132 56 -132c22 0 45 16 68 47s44 69 62 113c17 43 33 91 46 142c-7 9 -11 21 -11 34c0 32 24 62 48 62c7 0 12 0 14 -1v-1c0 1 0 1 1 1zM222 329c-6 10 -19 15 -39 15c-24 0 -47 -26 -69 -78c-22 -53 -33 -101 -33 -144c0 -35 9 -53 27 -53c23 0 46 26 67 78
c21 51 37 112 47 182z" />
    <glyph glyph-name="a_n_c" unicode="anc" horiz-adv-x="1030" 
d="M624 339l-2 1c-27 -25 -60 -80 -99 -165c-39 -86 -58 -150 -58 -192c-6 -3 -13 -5 -21 -5c-28 0 -50 21 -50 70c0 2 9 61 26 176l-2 1c-35 -141 -92 -216 -145 -216c-39 0 -69 41 -74 113l-4 1c-26 -91 -61 -137 -104 -137c-63 0 -94 59 -94 143c0 63 15 122 44 178
s65 84 107 84c36 0 63 -12 80 -35l5 29c52 -7 70 -27 70 -64c0 -9 -5 -31 -14 -64c-10 -34 -15 -68 -15 -103c0 -48 8 -72 23 -72c21 0 48 37 80 110c31 73 51 149 58 230c8 1 14 2 18 2c40 0 60 -26 60 -78c0 -11 -2 -34 -7 -68s-10 -64 -17 -89c1 -1 4 -1 7 -1
c23 56 49 105 79 147c29 41 52 62 67 62c11 0 23 -7 38 -22s22 -27 22 -38c-27 -95 -40 -171 -40 -226c0 -69 19 -115 55 -115c5 0 8 0 10 1c-3 -15 -13 -31 -31 -48s-36 -25 -55 -25c-44 0 -70 55 -70 140c0 88 18 180 53 275zM1055 211c9 0 13 -6 13 -17
c0 -5 -2 -15 -5 -30c-13 -57 -37 -102 -70 -136c-34 -35 -68 -52 -102 -52c-49 0 -86 18 -110 55c-24 36 -36 79 -36 129c0 59 15 116 45 170s64 81 101 81c19 0 38 -6 57 -18c5 25 9 43 12 54c1 1 4 1 8 1c25 0 59 -16 59 -44c-7 -11 -14 -32 -23 -63s-13 -58 -13 -80
c-6 -5 -12 -7 -17 -7c-21 0 -31 25 -31 74c0 9 1 23 2 43c-1 0 -4 1 -5 1c-23 0 -46 -24 -69 -72s-35 -96 -35 -144c0 -78 26 -117 79 -117c59 0 109 64 140 172zM210 262l12 67c-6 10 -19 15 -39 15c-24 0 -47 -26 -69 -78c-22 -53 -33 -101 -33 -144c0 -35 9 -53 27 -53
c19 0 38 19 57 56c18 37 33 82 45 137z" />
    <glyph glyph-name="a_n_d" unicode="and" horiz-adv-x="1148" 
d="M624 339l-2 1c-27 -25 -60 -80 -99 -165c-39 -86 -58 -150 -58 -192c-6 -3 -13 -5 -21 -5c-28 0 -50 21 -50 70c0 2 9 61 26 176l-2 1c-35 -141 -92 -216 -145 -216c-39 0 -69 41 -74 113l-4 1c-26 -91 -61 -137 -104 -137c-63 0 -94 59 -94 143c0 63 15 122 44 178
s65 84 107 84c36 0 63 -12 80 -35l5 29c52 -7 70 -27 70 -64c0 -9 -5 -31 -14 -64c-10 -34 -15 -68 -15 -103c0 -48 8 -72 23 -72c21 0 48 37 80 110c31 73 51 149 58 230c8 1 14 2 18 2c40 0 60 -26 60 -78c0 -11 -2 -34 -7 -68s-10 -64 -17 -89c1 -1 4 -1 7 -1
c23 56 49 105 79 147c29 41 52 62 67 62c11 0 23 -7 38 -22s22 -27 22 -38c-27 -95 -40 -171 -40 -226c0 -69 19 -115 55 -115c5 0 8 0 10 1c-3 -15 -13 -31 -31 -48s-36 -25 -55 -25c-44 0 -70 55 -70 140c0 88 18 180 53 275zM958 120h-4c-31 -101 -67 -151 -110 -151
c-65 0 -98 60 -98 145c-4 119 71 280 158 277c32 0 56 -9 73 -27c19 95 43 187 73 274c45 0 72 -34 72 -82c0 -51 -27 -128 -51 -185c-13 -29 -19 -44 -20 -46c-14 -67 -21 -118 -21 -154c0 -56 14 -84 42 -84c29 0 66 45 89 124c8 -1 12 -6 12 -17
c-5 -57 -21 -101 -48 -132c-28 -32 -56 -48 -85 -48c-47 0 -74 35 -82 106zM956 207c2 37 7 79 16 128c-9 6 -20 9 -33 9c-23 0 -46 -29 -71 -87s-37 -109 -37 -153c0 -35 10 -53 29 -53c13 0 28 15 47 46s35 67 49 110zM210 262l12 67c-6 10 -19 15 -39 15
c-24 0 -47 -26 -69 -78c-22 -53 -33 -101 -33 -144c0 -35 9 -53 27 -53c19 0 38 19 57 56c18 37 33 82 45 137z" />
    <glyph glyph-name="a_n_n" unicode="ann" horiz-adv-x="1181" 
d="M881 188h3c23 56 49 105 79 147c29 41 52 62 67 62c11 0 23 -7 38 -22s22 -27 22 -38l-4 -15c-13 -41 -38 -142 -38 -207c0 -46 12 -69 37 -69c17 0 34 12 50 35s28 47 35 71l12 35c9 0 13 -4 13 -13c0 -36 -23 -108 -67 -166c-22 -30 -45 -44 -68 -44
c-65 0 -98 49 -98 146c0 35 6 77 18 126c11 49 22 83 32 104h-2c-19 -9 -49 -53 -90 -134s-61 -144 -61 -191c-6 -3 -13 -5 -21 -5c-28 0 -50 24 -50 68c0 13 6 50 15 108c5 29 8 55 11 78h-1c-1 1 -1 1 -2 1c-15 -79 -38 -145 -68 -198c-31 -53 -59 -80 -85 -80
c-47 0 -79 49 -79 140c0 35 5 74 16 117c10 43 20 74 29 95l-2 1c-27 -25 -60 -80 -99 -165c-39 -86 -58 -150 -58 -192c-6 -3 -13 -5 -21 -5c-28 0 -50 21 -50 70c0 2 9 61 26 176l-2 1c-35 -141 -92 -216 -145 -216c-39 0 -69 41 -74 113l-4 1c-26 -91 -61 -137 -104 -137
c-63 0 -94 59 -94 143c0 63 15 122 44 178s65 84 107 84c36 0 63 -12 80 -35l5 29c52 -7 70 -27 70 -64c0 -9 -5 -31 -14 -64c-10 -34 -15 -68 -15 -103c0 -48 8 -72 23 -72c21 0 48 37 80 110c31 73 51 149 58 230c8 1 14 2 18 2c40 0 60 -26 60 -78c0 -11 -2 -34 -7 -68
s-10 -64 -17 -89c1 -1 4 -1 7 -1c23 56 49 105 79 147c29 41 52 62 67 62c11 0 23 -7 38 -22s22 -27 22 -38c0 -1 -37 -127 -37 -202c0 -48 6 -72 17 -72c17 0 39 34 66 101c26 67 49 153 69 258c53 9 83 -21 83 -76c0 -43 -6 -96 -19 -158zM210 262l12 67
c-6 10 -19 15 -39 15c-24 0 -47 -26 -69 -78c-22 -53 -33 -101 -33 -144c0 -35 9 -53 27 -53c19 0 38 19 57 56c18 37 33 82 45 137z" />
    </font>
</defs>
</svg>
